<svg width="225.533" height="228.827" viewBox="0 0 169.15 171.62" xmlns="http://www.w3.org/2000/svg" xmlns:xlink="http://www.w3.org/1999/xlink"><defs><symbol id="a" overflow="visible"><path d="M5.188-3.563c0 .575-.043 1.09-.125 1.547-.086.45-.227.836-.422 1.157a1.933 1.933 0 0 1-.735.718c-.293.157-.648.235-1.062.235-.532 0-.969-.14-1.313-.422-.344-.29-.605-.707-.781-1.25C.582-2.128.5-2.79.5-3.563c0-.757.078-1.41.234-1.953.157-.55.407-.972.75-1.265.344-.301.797-.453 1.36-.453.531 0 .969.148 1.312.437.352.293.614.715.782 1.266.164.543.25 1.199.25 1.969zm-3.875 0c0 .657.046 1.211.14 1.657.102.437.27.765.5.984.227.219.524.328.89.328.364 0 .657-.11.876-.328.226-.219.394-.547.5-.984.101-.438.156-.989.156-1.657 0-.656-.055-1.203-.156-1.64-.094-.438-.258-.766-.485-.984-.218-.227-.515-.344-.89-.344s-.68.117-.907.344c-.218.218-.382.546-.484.984-.094.437-.14.984-.14 1.64z"/></symbol><symbol id="b" overflow="visible"><path d="M3.5 0h-.781V-5.921c.008-.114.02-.227.031-.345A2.869 2.869 0 0 1 2.453-6c-.086.074-.187.164-.312.266l-.813.656-.422-.547 1.922-1.484H3.5z"/></symbol><symbol id="c" overflow="visible"><path d="M5.156 0H.484v-.672l1.907-1.937c.351-.352.648-.672.89-.953.25-.282.438-.555.563-.829.125-.27.187-.566.187-.89 0-.406-.121-.711-.36-.922-.241-.207-.554-.313-.937-.313-.344 0-.648.059-.906.172a3.98 3.98 0 0 0-.813.5L.578-6.39a3.618 3.618 0 0 1 1.328-.719c.258-.07.535-.109.828-.109.438 0 .813.078 1.125.235.32.148.567.359.735.64.175.281.265.621.265 1.016 0 .375-.074.726-.219 1.047a4.278 4.278 0 0 1-.625.968c-.273.313-.59.649-.953 1L1.515-.78v.047h3.641z"/></symbol><symbol id="d" overflow="visible"><path d="M4.89-5.453c0 .312-.062.59-.187.828-.125.23-.297.422-.516.578-.218.149-.48.246-.78.297v.047c.57.062 1 .246 1.28.547.282.293.422.672.422 1.14 0 .418-.101.79-.297 1.11-.187.312-.48.558-.875.734-.398.176-.906.266-1.53.266C2.03.094 1.68.063 1.358 0a3.047 3.047 0 0 1-.906-.297v-.75c.29.149.61.262.953.344.352.086.692.125 1.016.125.644 0 1.113-.129 1.406-.39.29-.259.438-.614.438-1.063 0-.313-.086-.563-.25-.75-.157-.188-.387-.32-.688-.406a3.683 3.683 0 0 0-1.078-.141H1.53v-.688h.719c.383 0 .71-.054.984-.171.27-.114.473-.274.61-.485.144-.207.218-.453.218-.734 0-.352-.12-.63-.359-.828-.242-.196-.57-.297-.984-.297-.25 0-.48.027-.688.078a3.557 3.557 0 0 0-1.125.531l-.422-.562c.258-.196.578-.368.953-.516.375-.145.801-.219 1.282-.219.718 0 1.257.168 1.625.5.363.336.546.758.546 1.266z"/></symbol><symbol id="e" overflow="visible"><path d="M5.516-1.656H4.437V0h-.78v-1.656H.218v-.672l3.39-4.828h.828v4.781h1.079zm-1.86-.719v-2.812c.008-.145.016-.282.016-.407.008-.125.015-.242.015-.36.008-.112.016-.222.016-.327h-.031a8.926 8.926 0 0 1-.453.797l-2.203 3.11z"/></symbol><symbol id="f" overflow="visible"><path d="M2.734-4.36c.489 0 .91.087 1.266.25.352.169.629.407.828.72.195.312.297.687.297 1.124 0 .493-.105.914-.313 1.266a2.04 2.04 0 0 1-.906.812c-.398.188-.87.282-1.422.282C2.11.094 1.758.062 1.437 0a2.37 2.37 0 0 1-.796-.297v-.766c.238.149.523.262.859.344.344.086.672.125.984.125a2.4 2.4 0 0 0 .953-.172c.27-.113.477-.285.625-.515.157-.239.235-.54.235-.907 0-.468-.149-.832-.438-1.093-.293-.258-.75-.391-1.375-.391-.199 0-.422.023-.672.063a7.206 7.206 0 0 0-.578.093L.812-3.78l.282-3.328h3.53v.734H1.782l-.187 2.14c.125-.019.285-.046.484-.078.195-.03.414-.046.656-.046z"/></symbol><symbol id="g" overflow="visible"><path d="M.563-3.047c0-.426.03-.844.093-1.25s.16-.785.297-1.14a3.05 3.05 0 0 1 .578-.922c.25-.27.555-.477.922-.625.375-.157.82-.235 1.344-.235.144 0 .3.012.469.031.164.012.304.032.422.063v.687a1.886 1.886 0 0 0-.422-.078 3.438 3.438 0 0 0-.453-.03c-.606 0-1.086.132-1.438.39a2.224 2.224 0 0 0-.75 1.062c-.148.45-.23.953-.25 1.516h.047c.101-.156.234-.297.39-.422.157-.133.344-.238.563-.313.227-.082.488-.125.781-.125.414 0 .774.086 1.078.25.313.168.551.415.72.735.175.324.265.715.265 1.172 0 .492-.094.914-.281 1.265-.18.356-.434.633-.766.828-.336.188-.734.282-1.203.282-.344 0-.664-.063-.953-.188a2.15 2.15 0 0 1-.766-.594 3.016 3.016 0 0 1-.516-.984C.617-2.066.563-2.523.563-3.047zm2.39 2.469c.445 0 .8-.14 1.063-.422.27-.289.406-.719.406-1.281 0-.469-.121-.836-.36-1.11C3.82-3.67 3.47-3.812 3-3.812c-.336 0-.621.07-.86.203-.242.136-.43.308-.562.515-.125.2-.187.407-.187.625 0 .211.03.43.093.657.063.218.157.421.282.609.132.187.3.34.5.453.195.117.425.172.687.172z"/></symbol><symbol id="h" overflow="visible"><path d="m1.406 0 2.922-6.375H.453v-.734h4.75v.609L2.297 0z"/></symbol><symbol id="i" overflow="visible"><path d="M1.984-5.047c.29 0 .547.047.766.14.227.087.406.216.531.391.125.18.188.399.188.657 0 .199-.047.375-.14.53-.087.15-.2.278-.345.391a2.255 2.255 0 0 1-.5.297c.22.106.41.22.579.344.175.117.312.258.406.422.101.168.156.367.156.594 0 .273-.07.511-.203.718-.137.2-.328.356-.578.47A2.167 2.167 0 0 1 2 .061a2.4 2.4 0 0 1-.906-.156A1.229 1.229 0 0 1 .53-.547a1.313 1.313 0 0 1-.187-.719c0-.226.047-.425.14-.593.102-.164.235-.313.391-.438.164-.125.344-.226.531-.312a2.579 2.579 0 0 1-.453-.313 1.32 1.32 0 0 1-.328-.406 1.219 1.219 0 0 1-.11-.531c0-.258.063-.473.188-.641.125-.176.297-.313.516-.406.226-.094.484-.14.765-.14zM.906-1.266c0 .262.086.477.266.64.176.157.445.235.812.235.344 0 .61-.078.797-.234a.829.829 0 0 0 .282-.656.787.787 0 0 0-.125-.438 1.114 1.114 0 0 0-.375-.328 3.396 3.396 0 0 0-.547-.281l-.125-.047c-.211.086-.387.184-.532.297a1.243 1.243 0 0 0-.343.36.875.875 0 0 0-.11.452zm1.078-3.312c-.273 0-.496.062-.671.187-.168.125-.25.309-.25.547 0 .18.039.328.125.453a.993.993 0 0 0 .343.297c.145.086.305.164.485.235.164-.07.316-.149.453-.235.133-.094.238-.195.312-.312a.777.777 0 0 0 .125-.438.632.632 0 0 0-.265-.547c-.168-.125-.387-.187-.657-.187z"/></symbol><symbol id="j" overflow="visible"><path d="m.984 0 2.047-4.453H.312v-.516h3.329v.422L1.609 0z"/></symbol><symbol id="k" overflow="visible"><path d="M.39-2.125c0-.3.02-.594.063-.875a3.5 3.5 0 0 1 .203-.797c.102-.25.242-.469.422-.656a1.85 1.85 0 0 1 .64-.438c.259-.101.571-.156.938-.156.094 0 .196.008.313.016a1.9 1.9 0 0 1 .297.047v.484a1.235 1.235 0 0 0-.282-.063 4.4 4.4 0 0 0-.328-.015c-.418 0-.75.094-1 .281-.242.18-.414.422-.515.735A3.934 3.934 0 0 0 .953-2.5H1c.07-.113.16-.21.266-.297.101-.094.234-.164.39-.219.156-.062.336-.093.547-.093.29 0 .547.062.766.187.218.117.383.29.5.516.113.218.172.492.172.812 0 .344-.063.64-.188.89-.125.243-.308.43-.547.563-.23.137-.508.203-.828.203A1.605 1.605 0 0 1 .86-.484a2.027 2.027 0 0 1-.343-.688 3.15 3.15 0 0 1-.125-.953zM2.064-.406c.312 0 .562-.098.75-.297.187-.195.28-.492.28-.89 0-.333-.085-.594-.25-.782-.167-.187-.417-.281-.75-.281-.23 0-.429.047-.593.14a1.087 1.087 0 0 0-.39.36.737.737 0 0 0-.141.422c0 .156.02.312.062.468.051.149.117.29.203.422a1.1 1.1 0 0 0 .344.328c.145.075.305.11.485.11z"/></symbol><symbol id="n" overflow="visible"><path d="M1.922-3.047c.332 0 .625.059.875.172.25.117.441.281.578.5.133.219.203.484.203.797 0 .344-.074.64-.219.89-.148.243-.359.43-.64.563-.274.125-.602.187-.985.187C1.473.062 1.227.04 1 0a1.48 1.48 0 0 1-.547-.203v-.531c.164.093.363.171.594.234.238.055.469.078.687.078.25 0 .47-.035.657-.11a.957.957 0 0 0 .453-.374C2.945-1.07 3-1.281 3-1.531c0-.32-.105-.57-.313-.75-.199-.188-.515-.282-.953-.282-.136 0-.293.012-.468.032a2.789 2.789 0 0 0-.407.078l-.28-.188.187-2.328h2.468v.516H1.25l-.125 1.5a3.241 3.241 0 0 1 .797-.094z"/></symbol><symbol id="o" overflow="visible"><path d="M3.86-1.156h-.75V0h-.547v-1.156H.156v-.469L2.516-5h.593v3.344h.75zm-1.297-.5v-2.25c.007-.094.015-.176.015-.25.008-.082.016-.16.016-.235h-.031c-.043.086-.094.18-.157.282a2.179 2.179 0 0 1-.156.265L.719-1.656z"/></symbol><symbol id="p" overflow="visible"><path d="M3.422-3.813c0 .22-.047.415-.14.579a1.033 1.033 0 0 1-.36.406 1.508 1.508 0 0 1-.531.203v.031c.394.055.691.184.89.39.196.2.297.466.297.798 0 .281-.07.539-.203.765-.137.22-.344.391-.625.516s-.637.187-1.062.187C1.426.062 1.18.04.953 0a2.715 2.715 0 0 1-.64-.203v-.531c.207.105.43.187.671.25.239.054.473.078.704.078.457 0 .785-.086.984-.266.207-.187.312-.437.312-.75 0-.219-.058-.39-.171-.516a1.024 1.024 0 0 0-.485-.296 2.715 2.715 0 0 0-.765-.094h-.485v-.485h.5c.27 0 .5-.035.688-.109a.911.911 0 0 0 .422-.344.876.876 0 0 0 .156-.515c0-.25-.09-.442-.266-.578-.168-.133-.39-.204-.672-.204-.18 0-.34.024-.484.063-.149.031-.29.078-.422.14-.125.063-.25.137-.375.22l-.281-.391A2.86 2.86 0 0 1 1-4.891c.27-.101.566-.156.89-.156.508 0 .891.117 1.141.344.258.23.39.527.39.89z"/></symbol><symbol id="r" overflow="visible"><path d="M3.61 0H.343v-.469l1.328-1.36c.25-.25.457-.468.625-.655.164-.196.289-.391.375-.579.094-.195.14-.406.14-.625 0-.28-.085-.492-.25-.64-.167-.156-.386-.235-.656-.235-.242 0-.453.043-.64.125-.18.086-.36.2-.547.344l-.313-.375a2.61 2.61 0 0 1 .438-.297c.156-.082.32-.148.5-.203.176-.05.363-.078.562-.078.313 0 .578.059.797.172.219.105.39.258.516.453.125.188.187.422.187.703 0 .262-.054.508-.156.735a3.127 3.127 0 0 1-.453.671c-.188.22-.406.45-.656.688L1.063-.547v.031h2.546z"/></symbol><symbol id="s" overflow="visible"><path d="M2.453 0h-.562v-3.859c.007-.102.015-.192.015-.266 0-.082.004-.164.016-.25-.074.063-.14.121-.203.172l-.219.187-.578.47-.297-.391 1.36-1.032h.468z"/></symbol><symbol id="t" overflow="visible"><path d="M1.984-3.797c.446 0 .774.106.985.313.219.199.328.515.328.953v2.53H2.89l-.11-.546H2.75c-.105.137-.215.25-.328.344a1.19 1.19 0 0 1-.39.203c-.15.039-.329.062-.548.062S1.066.023.891-.047a.975.975 0 0 1-.422-.36C.363-.57.313-.78.313-1.03a.96.96 0 0 1 .437-.844c.3-.207.754-.317 1.36-.328l.64-.031v-.235c0-.32-.07-.547-.203-.672-.137-.125-.336-.187-.594-.187-.187 0-.37.027-.547.078a3.29 3.29 0 0 0-.515.203l-.172-.437a4.15 4.15 0 0 1 .578-.22c.219-.062.445-.093.687-.093zm.766 1.953-.578.031c-.461.024-.79.102-.984.235-.188.125-.282.312-.282.562 0 .211.063.368.188.47.133.105.304.155.515.155.332 0 .602-.086.813-.265.219-.188.328-.469.328-.844z"/></symbol><symbol id="u" overflow="visible"><path d="M1.156-5.297v1.328c0 .149-.008.293-.015.438 0 .148-.008.261-.016.343h.031c.102-.175.25-.32.438-.437.195-.113.445-.172.75-.172.468 0 .836.164 1.11.484.28.325.421.805.421 1.438 0 .43-.063.789-.188 1.078a1.384 1.384 0 0 1-.546.64c-.23.15-.5.22-.813.22-.293 0-.539-.055-.734-.157A1.335 1.335 0 0 1 1.156-.5h-.031L1 0H.594v-5.297zM2.25-3.328c-.273 0-.484.058-.64.172a.894.894 0 0 0-.344.469c-.075.21-.11.48-.11.812v.031c0 .469.078.828.235 1.078.156.243.441.36.859.36.344 0 .602-.125.781-.375.176-.25.266-.614.266-1.094 0-.477-.09-.836-.266-1.078-.168-.25-.43-.375-.781-.375z"/></symbol><symbol id="v" overflow="visible"><path d="M2.094.063c-.344 0-.649-.067-.906-.204a1.418 1.418 0 0 1-.594-.625C.457-1.055.39-1.414.39-1.844c0-.445.07-.812.218-1.094a1.5 1.5 0 0 1 .625-.64c.27-.145.57-.219.907-.219.187 0 .363.024.53.063.177.03.321.078.438.14l-.171.469a3.68 3.68 0 0 0-.391-.11 1.672 1.672 0 0 0-.422-.062c-.25 0-.465.059-.64.172a1.023 1.023 0 0 0-.391.484c-.086.211-.125.477-.125.797 0 .293.039.547.125.766.082.21.207.37.375.484.164.117.367.172.61.172.195 0 .374-.02.53-.062.165-.04.313-.094.438-.157v.516c-.125.062-.266.11-.422.14a2.604 2.604 0 0 1-.531.047z"/></symbol><symbol id="w" overflow="visible"><path d="M1.922.063c-.469 0-.844-.157-1.125-.47-.274-.32-.406-.8-.406-1.437 0-.644.14-1.129.422-1.453.28-.332.656-.5 1.125-.5.195 0 .367.027.515.078.145.055.27.125.375.219.102.086.192.18.266.281h.047a2.411 2.411 0 0 1-.032-.281 3.208 3.208 0 0 1-.015-.297v-1.5h.578V0h-.469l-.078-.531h-.031a1.05 1.05 0 0 1-.266.312 1.19 1.19 0 0 1-.39.203 1.59 1.59 0 0 1-.516.079zm.094-.47c.394 0 .675-.109.843-.327.164-.227.25-.567.25-1.016v-.11c0-.468-.078-.827-.234-1.077-.156-.258-.445-.391-.86-.391-.355 0-.62.137-.796.406-.168.262-.25.621-.25 1.078 0 .461.082.813.25 1.063.176.25.441.375.797.375z"/></symbol><symbol id="x" overflow="visible"><path d="M2.031-3.797c.313 0 .582.074.813.219.226.137.398.336.515.594.125.25.188.543.188.875v.343H.969c.008.438.117.774.328 1 .207.23.504.344.89.344a2.705 2.705 0 0 0 1.188-.25v.5C3.187-.086 3-.032 2.812 0c-.18.039-.39.062-.64.062-.367 0-.684-.07-.953-.218a1.488 1.488 0 0 1-.61-.64c-.148-.282-.218-.63-.218-1.048 0-.394.066-.738.203-1.031.133-.3.32-.531.562-.687.25-.157.54-.235.875-.235zm0 .469a.97.97 0 0 0-.734.297c-.18.187-.281.46-.313.812h1.97c0-.219-.04-.41-.11-.578a.832.832 0 0 0-.297-.39.891.891 0 0 0-.516-.141z"/></symbol><symbol id="y" overflow="visible"><path d="M2.25-3.281h-.922V0H.766v-3.281H.109v-.281l.657-.188V-4c0-.312.046-.562.14-.75a.924.924 0 0 1 .406-.437c.176-.094.391-.141.641-.141.145 0 .274.016.39.047.126.023.227.047.313.078l-.14.437c-.075-.02-.164-.039-.266-.062a1.471 1.471 0 0 0-.297-.031c-.21 0-.367.07-.469.203-.105.137-.156.355-.156.656v.266h.922z"/></symbol><symbol id="z" overflow="visible"><path d="M1.64 1.672c-.492 0-.87-.094-1.14-.281A.858.858 0 0 1 .11.64C.11.398.18.195.327.03.473-.133.68-.242.953-.297A.587.587 0 0 1 .688-.5a.61.61 0 0 1 .016-.672c.07-.101.19-.203.359-.297-.2-.082-.36-.218-.485-.406s-.187-.406-.187-.656c0-.27.054-.5.172-.688.113-.187.273-.328.484-.422A1.723 1.723 0 0 1 2-3.78c.07 0 .14.008.203.015l.156.032h1.282v.359l-.688.094c.07.086.129.187.172.312.039.125.062.266.062.422 0 .367-.125.656-.375.875s-.593.328-1.03.328c-.106 0-.216-.004-.329-.015a1.045 1.045 0 0 0-.25.203.405.405 0 0 0-.078.25c0 .074.02.136.063.187.039.043.101.074.187.094.082.012.188.016.313.016h.656c.406 0 .71.09.922.265.218.168.328.41.328.735 0 .414-.168.734-.5.953-.336.219-.82.328-1.453.328zm.016-.438c.301 0 .551-.03.75-.093a.956.956 0 0 0 .469-.282.6.6 0 0 0 .156-.406.51.51 0 0 0-.11-.344c-.062-.074-.163-.117-.296-.14a2.188 2.188 0 0 0-.484-.047H1.5c-.168 0-.313.027-.438.078S.836.129.766.234A.703.703 0 0 0 .672.61c0 .207.082.364.25.47.176.1.422.155.734.155zm.14-2.984c.27 0 .474-.066.61-.203.133-.133.203-.332.203-.594 0-.281-.07-.488-.203-.625-.136-.144-.34-.219-.61-.219-.26 0-.464.075-.609.22-.136.148-.203.359-.203.64 0 .25.067.445.203.578.145.137.348.203.61.203z"/></symbol><symbol id="A" overflow="visible"><path d="M1.156-5.297v1.578c0 .094-.008.188-.015.281 0 .094-.008.18-.016.25h.047c.07-.125.164-.234.281-.328a1.24 1.24 0 0 1 .406-.203c.157-.05.317-.078.485-.078.3 0 .55.055.75.156a.9.9 0 0 1 .453.438c.101.2.156.46.156.781V0h-.562v-2.39c0-.313-.075-.547-.22-.704-.136-.156-.35-.234-.64-.234-.273 0-.492.058-.656.172a.86.86 0 0 0-.36.469c-.074.199-.109.445-.109.734V0H.594v-5.297z"/></symbol><symbol id="l" overflow="visible"><path d="M4.875-16.359c0 .688.531.938 1.188.984L5.796-8.89h-.313l-2.422-5.235c.422-.218.704-.359.704-.859 0-.688-.485-1.078-1.172-1.078-.703 0-1.172.39-1.172 1.078 0 .547.625.984 1.172.984h.25l.781 5.985c.156.625.437 1.125 1 1.406.203.094.5.906.5 1.437a2.4 2.4 0 0 1-.516 1.47c-.062.093-.172.171-.172.28 0 .032.032.094.063.141.766.688 4.187.766 5.437.766 1.125 0 4.782-.031 5.485-.797.031-.031.062-.078.062-.11 0-.109-.078-.187-.14-.265a2.264 2.264 0 0 1-.547-1.485c0-.5.297-1.343.5-1.437.562-.281.937-.781 1.015-1.406L17.047-14h.265c.532 0 1.172-.437 1.172-.984 0-.687-.468-1.078-1.172-1.078s-1.171.39-1.171 1.078c0 .516.296.656.718.86L14.484-8.89h-.343l-.25-6.485c.656-.046 1.156-.296 1.156-.984s-.485-1.078-1.188-1.078c-.687 0-1.172.39-1.172 1.078 0 .547.344.719.813.906l-2.078 6.266h-.188l-1-6.922c.563-.125.906-.344.906-.938 0-.703-.484-1.078-1.187-1.078-.688 0-1.172.375-1.172 1.078 0 .61.36.844.938.954L8.64-9.187h-.156l-2.11-6.266c.485-.187.86-.36.86-.906 0-.688-.484-1.078-1.172-1.078-.703 0-1.187.39-1.187 1.078z"/></symbol><symbol id="m" overflow="visible"><path d="M8.469-10.375c-.078-.203-1.672-4.828-1.672-4.828.39-.203.594-.64.594-1.078 0-.688-.563-1.344-1.282-1.344-.765 0-1.39.547-1.39 1.328 0 .563.406 1.11.937 1.281L5.36-10h-.015L3.5-13.844c.203-.328.422-.656.422-1.062 0-.735-.64-1.328-1.36-1.328-.734 0-1.28.656-1.28 1.328 0 .64.468 1.265 1.156 1.312.687 5.61.703 5.969.843 6.297.14.36.39.656.657.906.14.11.343.188.468.328.235.282.375.782.375 1.141 0 .437-.078.719-.218.953-.157.281-.454.547-.454.781 0 1.25 4.5 1.297 5.844 1.297 1.36 0 5.89-.047 5.89-1.297 0-.234-.327-.5-.484-.78-.14-.235-.218-.61-.218-.954 0-.375.14-.86.375-1.14.125-.141.328-.22.468-.329.547-.484.844-1.219.844-2l.656-5.203c.688-.047 1.157-.672 1.157-1.312 0-.688-.547-1.328-1.282-1.328-.718 0-1.359.593-1.359 1.328 0 .484.219.718.438 1.062-.782 1.594-1.454 2.922-1.86 3.844h-.015l-.297-5.016c.53-.172.937-.718.937-1.28 0-.782-.594-1.329-1.375-1.329-.719 0-1.297.625-1.297 1.328 0 .438.203.89.594 1.094l-1.672 4.828c-.828-4.844-.828-4.828-.937-5.39.359-.157.78-.626.78-1.204 0-.328-.124-.64-.312-.875a1.335 1.335 0 0 0-1.03-.468c-.704 0-1.329.609-1.329 1.343 0 .532.36 1.016.766 1.266-.063.406-.922 5.328-.922 5.328zm1.484-5.938c-.328 0-.656-.328-.656-.656 0-.343.328-.656.656-.656.344 0 .672.313.672.656 0 .328-.328.657-.672.657zm-4.547 0c0-.343.313-.64.657-.64.328 0 .656.344.656.672 0 .344-.328.64-.656.64-.344 0-.657-.343-.657-.671zm7.797.016c0-.36.328-.656.656-.656.282 0 .657.234.657.656s-.297.656-.657.656-.656-.343-.656-.656zm-10.609.735c.328 0 .656.328.656.656 0 .344-.328.656-.656.656a.682.682 0 0 1-.656-.656c0-.328.312-.656.656-.656zm14.078.656c0-.36.328-.656.656-.656.282 0 .657.28.657.656 0 .437-.328.656-.657.656a.66.66 0 0 1-.656-.656zM3.188-12.891l1.938 3.985-.828-.078c-.25 0-.438.234-.579.375zm12.484 3.907c-.328.015-.531.062-.875.062l1.922-3.969-.39 4.297c-.344-.015-.454-.375-.657-.39zM9-9.484l.953-5.5h.032l.937 5.5a2.763 2.763 0 0 1-.562-.313c-.125-.11-.235-.25-.407-.25-.156 0-.265.14-.39.25-.156.11-.36.234-.563.313zm-3 .359.297-5.438L8.11-9.297c-.235 0-.5-.047-.72-.125-.14-.062-.296-.187-.452-.187-.188.03-.297.14-.422.218-.156.11-.344.203-.516.266zm5.813-.172 1.812-5.281.297 5.453a2.306 2.306 0 0 1-.515-.266c-.125-.078-.235-.187-.375-.218-.204 0-.36.125-.5.187a2.242 2.242 0 0 1-.72.125zm-7.953 1.5c.125-.187.328-.344.547-.469h.671c1.313-.015 1.61-.578 1.891-.578.125 0 .719.219 1.156.219.782 0 1.39-.344 1.578-.484.157-.094.203-.094.25-.094.094 0 .141.062.203.094.5.296 1.047.484 1.625.484.266 0 1.172-.203 1.125-.234.657.312 1.157.546 1.86.609.094 0 .437-.031.61-.031.28 0 .624.328.687.547-.11.468-.406.796-.781.968-1.782-.468-3.532-.718-5.329-.718-1.765 0-4.328.39-5.296.718-.438-.203-.797-.578-.797-1.03zm1.28 1.594c1.829-.406 3.063-.594 4.813-.594 1.766 0 2.453.078 4.828.594l-.296.969c-1.453-.47-2.97-.688-4.532-.688-1.53 0-3.062.219-4.515.688zm.345 1.687c1.406-.5 2.968-.718 4.468-.718 1.516 0 3.422.312 4.485.718l.203.594c-1.531-.234-3.125-.297-4.688-.297-1.546 0-3.14.063-4.671.297zM4.922-3.14c1.594-.359 3.281-.406 5.031-.406 1.766 0 3.36.016 5.047.406-1.61.532-3.36.578-5.047.578s-3.422-.062-5.03-.578z"/></symbol><symbol id="q" overflow="visible"><path d="M4.781-16.562c0 .688.531 1.25 1.188 1.281L5.64-8.937h-.016l-2.484-5.094c.421-.219.718-.656.718-1.156a1.28 1.28 0 0 0-1.265-1.266c-.703 0-1.281.579-1.281 1.266 0 .703.578 1.281 1.28 1.281h.157l.75 5.89c.172.626.562 1.126 1.125 1.407.203.094.5.906.5 1.438a2.4 2.4 0 0 1-.516 1.468c-.062.094-.172.172-.172.282 0 .03.032.093.063.14.766.688 4.187.766 5.437.766 1.125 0 4.782-.031 5.485-.797.031-.031.062-.078.062-.11 0-.109-.078-.187-.14-.265a2.264 2.264 0 0 1-.547-1.484c0-.5.297-1.344.5-1.438.562-.281 1.031-.781 1.125-1.406l.734-5.89h.156c.704 0 1.282-.579 1.282-1.282 0-.687-.578-1.266-1.282-1.266s-1.28.579-1.28 1.266c0 .531.296.969.718 1.156l-2.453 5.094h-.016l-.343-6.344c.671-.031 1.203-.594 1.203-1.281s-.578-1.266-1.282-1.266a1.28 1.28 0 0 0-1.265 1.266c0 .547.328 1.031.812 1.203L11.36-9.296h-.03l-1.095-6.72c.563-.124 1-.64 1-1.234 0-.703-.578-1.28-1.28-1.28-.688 0-1.266.577-1.266 1.28 0 .61.453 1.157 1.03 1.25L8.564-9.296 6.5-15.36a1.3 1.3 0 0 0 .828-1.203 1.28 1.28 0 0 0-1.265-1.266c-.703 0-1.282.578-1.282 1.266zm.86 13.078c-.11 0-.282-.078-.282-.234 0-.172.063-.25.282-.344C6-4.218 7.297-4.64 9.953-4.64c2.672 0 3.969.422 4.328.578.219.094.281.172.281.344 0 .156-.171.234-.28.234-.282 0-.938-.594-4.329-.594-3.375 0-4.031.594-4.312.594zM5.5-6.609c0-.156.125-.266.234-.328.625-.281 2.282-.766 4.22-.766 1.952 0 3.609.485 4.234.766.109.062.234.172.234.328s-.172.219-.234.219c-.422 0-1.641-.766-4.235-.766-2.578 0-3.797.766-4.219.766-.062 0-.234-.063-.234-.219zm.719 1.781c-.11 0-.266-.047-.266-.219 0-.156.125-.234.266-.312.656-.36 2.187-.781 3.703-.781s3.125.422 3.781.78c.14.08.266.157.266.313 0 .172-.157.22-.266.22-.328 0-1.594-.75-3.75-.75-2.14 0-3.406.75-3.734.75z"/></symbol></defs><g fill="#ffcc9c"><path d="M9.745 32.138h19.926V12.212H9.745zM49.597 32.138h19.926V12.212H49.597zM89.443 32.138h19.926V12.212H89.443zM129.293 32.138h19.926V12.212h-19.926zM29.671 52.063h19.926V32.137H29.671z"/><path d="M69.522 52.063h19.922V32.137H69.522zM109.373 52.063h19.926V32.137h-19.926zM149.223 52.063h19.926V32.137h-19.926zM9.745 71.99h19.926V52.062H9.745z"/><path d="M49.597 71.99h19.926V52.062H49.597zM89.443 71.99h19.926V52.062H89.443zM129.293 71.99h19.926V52.062h-19.926zM29.671 91.915h19.926V71.99H29.671zM69.522 91.915h19.922V71.99H69.522zM109.373 91.915h19.926V71.99h-19.926zM149.223 91.915h19.926V71.99h-19.926zM9.745 111.84h19.926V91.914H9.745z"/><path d="M49.597 111.84h19.926V91.914H49.597zM89.443 111.84h19.926V91.914H89.443zM129.293 111.84h19.926V91.914h-19.926zM29.671 131.77h19.926v-19.926H29.671zM69.522 131.77h19.922v-19.926H69.522zM109.373 131.77h19.926v-19.926h-19.926zM149.223 131.77h19.926v-19.926h-19.926zM9.745 151.69h19.926v-19.926H9.745z"/><path d="M49.597 151.69h19.926v-19.926H49.597zM89.443 151.69h19.926v-19.926H89.443zM129.293 151.69h19.926v-19.926h-19.926zM29.671 171.62h19.926v-19.926H29.671zM69.522 171.62h19.922v-19.926H69.522zM109.373 171.62h19.926v-19.926h-19.926zM149.223 171.62h19.926v-19.926h-19.926z"/></g><g fill="#cf8a45"><path d="M29.671 32.138h19.926V12.212H29.671zM69.522 32.138h19.922V12.212H69.522zM109.373 32.138h19.926V12.212h-19.926zM149.223 32.138h19.926V12.212h-19.926zM9.745 52.063h19.926V32.137H9.745z"/><path d="M49.597 52.063h19.926V32.137H49.597zM89.443 52.063h19.926V32.137H89.443zM129.293 52.063h19.926V32.137h-19.926zM29.671 71.99h19.926V52.062H29.671z"/><path d="M69.522 71.99h19.922V52.062H69.522zM109.373 71.99h19.926V52.062h-19.926zM149.223 71.99h19.926V52.062h-19.926zM9.745 91.915h19.926V71.99H9.745zM49.597 91.915h19.926V71.99H49.597zM89.443 91.915h19.926V71.99H89.443zM129.293 91.915h19.926V71.99h-19.926zM29.671 111.84h19.926V91.914H29.671z"/><path d="M69.522 111.84h19.922V91.914H69.522zM109.373 111.84h19.926V91.914h-19.926zM149.223 111.84h19.926V91.914h-19.926zM9.745 131.77h19.926v-19.926H9.745zM49.597 131.77h19.926v-19.926H49.597zM89.443 131.77h19.926v-19.926H89.443zM129.293 131.77h19.926v-19.926h-19.926zM29.671 151.69h19.926v-19.926H29.671z"/><path d="M69.522 151.69h19.922v-19.926H69.522zM109.373 151.69h19.926v-19.926h-19.926zM149.223 151.69h19.926v-19.926h-19.926zM9.745 171.62h19.926v-19.926H9.745zM49.597 171.62h19.926v-19.926H49.597zM89.443 171.62h19.926v-19.926H89.443zM129.293 171.62h19.926v-19.926h-19.926z"/></g><g fill="#7f7f7f" transform="translate(-30.087 -7.71)"><use x="48.239" y="14.944" xlink:href="#a"/><use x="68.162" y="14.944" xlink:href="#b"/><use x="88.086" y="14.944" xlink:href="#c"/><use x="108.009" y="14.944" xlink:href="#d"/><use x="127.932" y="14.944" xlink:href="#e"/><use x="147.865" y="14.944" xlink:href="#f"/><use x="167.789" y="14.944" xlink:href="#g"/><use x="187.712" y="14.944" xlink:href="#h"/><use x="29.868" y="32.877" xlink:href="#a"/></g><use x="194.249" y="26.899" xlink:href="#i" fill="#ffcc9c" transform="translate(-30.087 -7.71)"/><use x="29.868" y="52.802" xlink:href="#b" fill="#7f7f7f" transform="translate(-30.087 -7.71)"/><use x="194.249" y="46.825" xlink:href="#j" fill="#cf8a45" transform="translate(-30.087 -7.71)"/><use x="29.868" y="72.727" xlink:href="#c" fill="#7f7f7f" transform="translate(-30.087 -7.71)"/><use x="194.249" y="66.75" xlink:href="#k" fill="#ffcc9c" transform="translate(-30.087 -7.71)"/><use x="29.868" y="92.653" xlink:href="#d" fill="#7f7f7f" transform="translate(-30.087 -7.71)"/><use x="79.681" y="99.627" xlink:href="#l" fill="#fff" transform="translate(-30.087 -7.71)"/><use x="79.681" y="99.627" xlink:href="#m" transform="translate(-30.087 -7.71)"/><use x="194.249" y="86.675" xlink:href="#n" fill="#cf8a45" transform="translate(-30.087 -7.71)"/><use x="29.868" y="112.578" xlink:href="#e" fill="#7f7f7f" transform="translate(-30.087 -7.71)"/><use x="194.249" y="106.601" xlink:href="#o" fill="#ffcc9c" transform="translate(-30.087 -7.71)"/><use x="29.868" y="132.503" xlink:href="#f" fill="#7f7f7f" transform="translate(-30.087 -7.71)"/><use x="194.249" y="126.526" xlink:href="#p" fill="#cf8a45" transform="translate(-30.087 -7.71)"/><use x="29.868" y="152.428" xlink:href="#g" fill="#7f7f7f" transform="translate(-30.087 -7.71)"/><use x="139.457" y="159.402" xlink:href="#l" fill="#fff" transform="translate(-30.087 -7.71)"/><use x="139.457" y="159.402" xlink:href="#q" transform="translate(-30.087 -7.71)"/><use x="194.249" y="146.451" xlink:href="#r" fill="#ffcc9c" transform="translate(-30.087 -7.71)"/><use x="29.868" y="172.354" xlink:href="#h" fill="#7f7f7f" transform="translate(-30.087 -7.71)"/><use x="194.249" y="166.376" xlink:href="#s" fill="#cf8a45" transform="translate(-30.087 -7.71)"/><use x="41.675" y="176.837" xlink:href="#t" fill="#ffcc9c" transform="translate(-30.087 -7.71)"/><use x="61.404" y="176.837" xlink:href="#u" fill="#cf8a45" transform="translate(-30.087 -7.71)"/><use x="81.793" y="176.837" xlink:href="#v" fill="#ffcc9c" transform="translate(-30.087 -7.71)"/><use x="101.255" y="176.837" xlink:href="#w" fill="#cf8a45" transform="translate(-30.087 -7.71)"/><use x="121.356" y="176.837" xlink:href="#x" fill="#ffcc9c" transform="translate(-30.087 -7.71)"/><use x="142.066" y="176.837" xlink:href="#y" fill="#cf8a45" transform="translate(-30.087 -7.71)"/><use x="161.271" y="176.837" xlink:href="#z" fill="#ffcc9c" transform="translate(-30.087 -7.71)"/><use x="180.951" y="176.837" xlink:href="#A" fill="#cf8a45" transform="translate(-30.087 -7.71)"/><path d="M134.273 141.733c0-8.253-6.691-14.945-14.945-14.945s-14.941 6.692-14.941 14.945c0 8.25 6.688 14.941 14.941 14.941s14.945-6.691 14.945-14.94z" fill="none" stroke="#dc302e" stroke-miterlimit="10" stroke-width="1.993"/><path d="M37.633 81.956H25.442" fill="none" stroke="#fff" stroke-linecap="round" stroke-miterlimit="10" stroke-width="1.196"/><path d="M19.706 81.954c1.7.317 4.46 1.274 6.375 2.391v-4.781c-1.914 1.113-4.676 2.07-6.375 2.39" fill="#fff"/><path d="M81.473 81.956h71.969" fill="none" stroke="#fff" stroke-linecap="round" stroke-miterlimit="10" stroke-width="1.196"/><path d="M159.183 81.954c-1.7-.32-4.46-1.277-6.375-2.39v4.781c1.914-1.117 4.676-2.074 6.375-2.39" fill="#fff"/><path d="M59.553 60.04V27.92" fill="none" stroke="#fff" stroke-linecap="round" stroke-miterlimit="10" stroke-width="1.196"/><path d="M59.554 22.177c-.316 1.7-1.273 4.465-2.39 6.375h4.785c-1.118-1.91-2.075-4.675-2.395-6.375" fill="#fff"/><path d="M59.553 103.874v52.043" fill="none" stroke="#fff" stroke-linecap="round" stroke-miterlimit="10" stroke-width="1.196"/><path d="M59.554 161.65c.32-1.699 1.277-4.46 2.394-6.375h-4.785c1.118 1.915 2.075 4.676 2.39 6.375" fill="#fff"/><path d="M38.223 60.62 23.762 46.163" fill="none" stroke="#fff" stroke-linecap="round" stroke-miterlimit="10" stroke-width="1.196"/><path d="M19.706 42.102c.977 1.426 2.254 4.059 2.816 6.2l3.383-3.383c-2.144-.563-4.773-1.84-6.199-2.817" fill="#fff"/><path d="m80.887 60.62 34.387-34.383" fill="none" stroke="#fff" stroke-linecap="round" stroke-miterlimit="10" stroke-width="1.196"/><path d="M119.333 22.177c-1.426.977-4.055 2.254-6.2 2.817l3.384 3.383c.562-2.141 1.84-4.774 2.816-6.2" fill="#fff"/><path d="M38.223 103.288 23.762 117.75" fill="none" stroke="#fff" stroke-linecap="round" stroke-miterlimit="10" stroke-width="1.196"/><path d="M19.706 121.81c1.426-.976 4.055-2.253 6.2-2.82l-3.384-3.379c-.562 2.14-1.84 4.77-2.816 6.2" fill="#fff"/><path d="m68.003 90.41 35.176 35.175" fill="none" stroke="#dc302e" stroke-linecap="round" stroke-miterlimit="10" stroke-width="1.993"/><path d="M108.763 131.16c-1.344-1.96-3.098-5.578-3.875-8.523l-4.648 4.648c2.945.778 6.562 2.532 8.523 3.875" fill="#dc302e"/></svg>