<svg width="238.573" height="243.56" viewBox="0 0 178.93 182.67" xmlns="http://www.w3.org/2000/svg" xmlns:xlink="http://www.w3.org/1999/xlink"><defs><symbol id="a" overflow="visible"><path d="M5.188-3.563c0 .575-.043 1.09-.125 1.547-.086.45-.227.836-.422 1.157a1.933 1.933 0 0 1-.735.718c-.293.157-.648.235-1.062.235-.532 0-.969-.14-1.313-.422-.344-.29-.605-.707-.781-1.25C.582-2.128.5-2.79.5-3.563c0-.757.078-1.41.234-1.953.157-.55.407-.972.75-1.265.344-.301.797-.453 1.36-.453.531 0 .969.148 1.312.437.352.293.614.715.782 1.266.164.543.25 1.199.25 1.969zm-3.875 0c0 .657.046 1.211.14 1.657.102.437.27.765.5.984.227.219.524.328.89.328.364 0 .657-.11.876-.328.226-.219.394-.547.5-.984.101-.438.156-.989.156-1.657 0-.656-.055-1.203-.156-1.64-.094-.438-.258-.766-.485-.984-.218-.227-.515-.344-.89-.344s-.68.117-.907.344c-.218.218-.382.546-.484.984-.094.437-.14.984-.14 1.64z"/></symbol><symbol id="b" overflow="visible"><path d="M3.5 0h-.781V-5.921c.008-.114.02-.227.031-.345A2.869 2.869 0 0 1 2.453-6c-.086.074-.187.164-.312.266l-.813.656-.422-.547 1.922-1.484H3.5z"/></symbol><symbol id="c" overflow="visible"><path d="M5.156 0H.484v-.672l1.907-1.937c.351-.352.648-.672.89-.953.25-.282.438-.555.563-.829.125-.27.187-.566.187-.89 0-.406-.121-.711-.36-.922-.241-.207-.554-.313-.937-.313-.344 0-.648.059-.906.172a3.98 3.98 0 0 0-.813.5L.578-6.39a3.618 3.618 0 0 1 1.328-.719c.258-.07.535-.109.828-.109.438 0 .813.078 1.125.235.32.148.567.359.735.64.175.281.265.621.265 1.016 0 .375-.074.726-.219 1.047a4.278 4.278 0 0 1-.625.968c-.273.313-.59.649-.953 1L1.515-.78v.047h3.641z"/></symbol><symbol id="d" overflow="visible"><path d="M4.89-5.453c0 .312-.062.59-.187.828-.125.23-.297.422-.516.578-.218.149-.48.246-.78.297v.047c.57.062 1 .246 1.28.547.282.293.422.672.422 1.14 0 .418-.101.79-.297 1.11-.187.312-.48.558-.875.734-.398.176-.906.266-1.53.266C2.03.094 1.68.063 1.358 0a3.047 3.047 0 0 1-.906-.297v-.75c.29.149.61.262.953.344.352.086.692.125 1.016.125.644 0 1.113-.129 1.406-.39.29-.259.438-.614.438-1.063 0-.313-.086-.563-.25-.75-.157-.188-.387-.32-.688-.406a3.683 3.683 0 0 0-1.078-.141H1.53v-.688h.719c.383 0 .71-.054.984-.171.27-.114.473-.274.61-.485.144-.207.218-.453.218-.734 0-.352-.12-.63-.359-.828-.242-.196-.57-.297-.984-.297-.25 0-.48.027-.688.078a3.557 3.557 0 0 0-1.125.531l-.422-.562c.258-.196.578-.368.953-.516.375-.145.801-.219 1.282-.219.718 0 1.257.168 1.625.5.363.336.546.758.546 1.266z"/></symbol><symbol id="e" overflow="visible"><path d="M5.516-1.656H4.437V0h-.78v-1.656H.218v-.672l3.39-4.828h.828v4.781h1.079zm-1.86-.719v-2.812c.008-.145.016-.282.016-.407.008-.125.015-.242.015-.36.008-.112.016-.222.016-.327h-.031a8.926 8.926 0 0 1-.453.797l-2.203 3.11z"/></symbol><symbol id="f" overflow="visible"><path d="M2.734-4.36c.489 0 .91.087 1.266.25.352.169.629.407.828.72.195.312.297.687.297 1.124 0 .493-.105.914-.313 1.266a2.04 2.04 0 0 1-.906.812c-.398.188-.87.282-1.422.282C2.11.094 1.758.062 1.437 0a2.37 2.37 0 0 1-.796-.297v-.766c.238.149.523.262.859.344.344.086.672.125.984.125a2.4 2.4 0 0 0 .953-.172c.27-.113.477-.285.625-.515.157-.239.235-.54.235-.907 0-.468-.149-.832-.438-1.093-.293-.258-.75-.391-1.375-.391-.199 0-.422.023-.672.063a7.206 7.206 0 0 0-.578.093L.812-3.78l.282-3.328h3.53v.734H1.782l-.187 2.14c.125-.019.285-.046.484-.078.195-.03.414-.046.656-.046z"/></symbol><symbol id="g" overflow="visible"><path d="M.563-3.047c0-.426.03-.844.093-1.25s.16-.785.297-1.14a3.05 3.05 0 0 1 .578-.922c.25-.27.555-.477.922-.625.375-.157.82-.235 1.344-.235.144 0 .3.012.469.031.164.012.304.032.422.063v.687a1.886 1.886 0 0 0-.422-.078 3.438 3.438 0 0 0-.453-.03c-.606 0-1.086.132-1.438.39a2.224 2.224 0 0 0-.75 1.062c-.148.45-.23.953-.25 1.516h.047c.101-.156.234-.297.39-.422.157-.133.344-.238.563-.313.227-.082.488-.125.781-.125.414 0 .774.086 1.078.25.313.168.551.415.72.735.175.324.265.715.265 1.172 0 .492-.094.914-.281 1.265-.18.356-.434.633-.766.828-.336.188-.734.282-1.203.282-.344 0-.664-.063-.953-.188a2.15 2.15 0 0 1-.766-.594 3.016 3.016 0 0 1-.516-.984C.617-2.066.563-2.523.563-3.047zm2.39 2.469c.445 0 .8-.14 1.063-.422.27-.289.406-.719.406-1.281 0-.469-.121-.836-.36-1.11C3.82-3.67 3.47-3.812 3-3.812c-.336 0-.621.07-.86.203-.242.136-.43.308-.562.515-.125.2-.187.407-.187.625 0 .211.03.43.093.657.063.218.157.421.282.609.132.187.3.34.5.453.195.117.425.172.687.172z"/></symbol><symbol id="h" overflow="visible"><path d="m1.406 0 2.922-6.375H.453v-.734h4.75v.609L2.297 0z"/></symbol><symbol id="i" overflow="visible"><path d="M4.875-16.359c0 .688.531.938 1.188.984L5.796-8.89h-.313l-2.422-5.235c.422-.218.704-.359.704-.859 0-.688-.485-1.078-1.172-1.078-.703 0-1.172.39-1.172 1.078 0 .547.625.984 1.172.984h.25l.781 5.985c.156.625.437 1.125 1 1.406.203.094.5.906.5 1.437a2.4 2.4 0 0 1-.516 1.47c-.062.093-.172.171-.172.28 0 .032.032.094.063.141.766.688 4.187.766 5.437.766 1.125 0 4.782-.031 5.485-.797.031-.031.062-.078.062-.11 0-.109-.078-.187-.14-.265a2.264 2.264 0 0 1-.547-1.485c0-.5.297-1.343.5-1.437.562-.281.937-.781 1.015-1.406L17.047-14h.265c.532 0 1.172-.437 1.172-.984 0-.687-.468-1.078-1.172-1.078s-1.171.39-1.171 1.078c0 .516.296.656.718.86L14.484-8.89h-.343l-.25-6.485c.656-.046 1.156-.296 1.156-.984s-.485-1.078-1.188-1.078c-.687 0-1.172.39-1.172 1.078 0 .547.344.719.813.906l-2.078 6.266h-.188l-1-6.922c.563-.125.906-.344.906-.938 0-.703-.484-1.078-1.187-1.078-.688 0-1.172.375-1.172 1.078 0 .61.36.844.938.954L8.64-9.187h-.156l-2.11-6.266c.485-.187.86-.36.86-.906 0-.688-.484-1.078-1.172-1.078-.703 0-1.187.39-1.187 1.078z"/></symbol><symbol id="j" overflow="visible"><path d="M8.469-10.375c-.078-.203-1.672-4.828-1.672-4.828.39-.203.594-.64.594-1.078 0-.688-.563-1.344-1.282-1.344-.765 0-1.39.547-1.39 1.328 0 .563.406 1.11.937 1.281L5.36-10h-.015L3.5-13.844c.203-.328.422-.656.422-1.062 0-.735-.64-1.328-1.36-1.328-.734 0-1.28.656-1.28 1.328 0 .64.468 1.265 1.156 1.312.687 5.61.703 5.969.843 6.297.14.36.39.656.657.906.14.11.343.188.468.328.235.282.375.782.375 1.141 0 .437-.078.719-.218.953-.157.281-.454.547-.454.781 0 1.25 4.5 1.297 5.844 1.297 1.36 0 5.89-.047 5.89-1.297 0-.234-.327-.5-.484-.78-.14-.235-.218-.61-.218-.954 0-.375.14-.86.375-1.14.125-.141.328-.22.468-.329.547-.484.844-1.219.844-2l.656-5.203c.688-.047 1.157-.672 1.157-1.312 0-.688-.547-1.328-1.282-1.328-.718 0-1.359.593-1.359 1.328 0 .484.219.718.438 1.062-.782 1.594-1.454 2.922-1.86 3.844h-.015l-.297-5.016c.53-.172.937-.718.937-1.28 0-.782-.594-1.329-1.375-1.329-.719 0-1.297.625-1.297 1.328 0 .438.203.89.594 1.094l-1.672 4.828c-.828-4.844-.828-4.828-.937-5.39.359-.157.78-.626.78-1.204 0-.328-.124-.64-.312-.875a1.335 1.335 0 0 0-1.03-.468c-.704 0-1.329.609-1.329 1.343 0 .532.36 1.016.766 1.266-.063.406-.922 5.328-.922 5.328zm1.484-5.938c-.328 0-.656-.328-.656-.656 0-.343.328-.656.656-.656.344 0 .672.313.672.656 0 .328-.328.657-.672.657zm-4.547 0c0-.343.313-.64.657-.64.328 0 .656.344.656.672 0 .344-.328.64-.656.64-.344 0-.657-.343-.657-.671zm7.797.016c0-.36.328-.656.656-.656.282 0 .657.234.657.656s-.297.656-.657.656-.656-.343-.656-.656zm-10.609.735c.328 0 .656.328.656.656 0 .344-.328.656-.656.656a.682.682 0 0 1-.656-.656c0-.328.312-.656.656-.656zm14.078.656c0-.36.328-.656.656-.656.282 0 .657.28.657.656 0 .437-.328.656-.657.656a.66.66 0 0 1-.656-.656zM3.188-12.891l1.938 3.985-.828-.078c-.25 0-.438.234-.579.375zm12.484 3.907c-.328.015-.531.062-.875.062l1.922-3.969-.39 4.297c-.344-.015-.454-.375-.657-.39zM9-9.484l.953-5.5h.032l.937 5.5a2.763 2.763 0 0 1-.562-.313c-.125-.11-.235-.25-.407-.25-.156 0-.265.14-.39.25-.156.11-.36.234-.563.313zm-3 .359.297-5.438L8.11-9.297c-.235 0-.5-.047-.72-.125-.14-.062-.296-.187-.452-.187-.188.03-.297.14-.422.218-.156.11-.344.203-.516.266zm5.813-.172 1.812-5.281.297 5.453a2.306 2.306 0 0 1-.515-.266c-.125-.078-.235-.187-.375-.218-.204 0-.36.125-.5.187a2.242 2.242 0 0 1-.72.125zm-7.953 1.5c.125-.187.328-.344.547-.469h.671c1.313-.015 1.61-.578 1.891-.578.125 0 .719.219 1.156.219.782 0 1.39-.344 1.578-.484.157-.094.203-.094.25-.094.094 0 .141.062.203.094.5.296 1.047.484 1.625.484.266 0 1.172-.203 1.125-.234.657.312 1.157.546 1.86.609.094 0 .437-.031.61-.031.28 0 .624.328.687.547-.11.468-.406.796-.781.968-1.782-.468-3.532-.718-5.329-.718-1.765 0-4.328.39-5.296.718-.438-.203-.797-.578-.797-1.03zm1.28 1.594c1.829-.406 3.063-.594 4.813-.594 1.766 0 2.453.078 4.828.594l-.296.969c-1.453-.47-2.97-.688-4.532-.688-1.53 0-3.062.219-4.515.688zm.345 1.687c1.406-.5 2.968-.718 4.468-.718 1.516 0 3.422.312 4.485.718l.203.594c-1.531-.234-3.125-.297-4.688-.297-1.546 0-3.14.063-4.671.297zM4.922-3.14c1.594-.359 3.281-.406 5.031-.406 1.766 0 3.36.016 5.047.406-1.61.532-3.36.578-5.047.578s-3.422-.062-5.03-.578z"/></symbol><symbol id="k" overflow="visible"><path d="M4.781-16.562c0 .688.531 1.25 1.188 1.281L5.64-8.937h-.016l-2.484-5.094c.421-.219.718-.656.718-1.156a1.28 1.28 0 0 0-1.265-1.266c-.703 0-1.281.579-1.281 1.266 0 .703.578 1.281 1.28 1.281h.157l.75 5.89c.172.626.562 1.126 1.125 1.407.203.094.5.906.5 1.438a2.4 2.4 0 0 1-.516 1.468c-.062.094-.172.172-.172.282 0 .03.032.093.063.14.766.688 4.187.766 5.437.766 1.125 0 4.782-.031 5.485-.797.031-.031.062-.078.062-.11 0-.109-.078-.187-.14-.265a2.264 2.264 0 0 1-.547-1.484c0-.5.297-1.344.5-1.438.562-.281 1.031-.781 1.125-1.406l.734-5.89h.156c.704 0 1.282-.579 1.282-1.282 0-.687-.578-1.266-1.282-1.266s-1.28.579-1.28 1.266c0 .531.296.969.718 1.156l-2.453 5.094h-.016l-.343-6.344c.671-.031 1.203-.594 1.203-1.281s-.578-1.266-1.282-1.266a1.28 1.28 0 0 0-1.265 1.266c0 .547.328 1.031.812 1.203L11.36-9.296h-.03l-1.095-6.72c.563-.124 1-.64 1-1.234 0-.703-.578-1.28-1.28-1.28-.688 0-1.266.577-1.266 1.28 0 .61.453 1.157 1.03 1.25L8.564-9.296 6.5-15.36a1.3 1.3 0 0 0 .828-1.203 1.28 1.28 0 0 0-1.265-1.266c-.703 0-1.282.578-1.282 1.266zm.86 13.078c-.11 0-.282-.078-.282-.234 0-.172.063-.25.282-.344C6-4.218 7.297-4.64 9.953-4.64c2.672 0 3.969.422 4.328.578.219.094.281.172.281.344 0 .156-.171.234-.28.234-.282 0-.938-.594-4.329-.594-3.375 0-4.031.594-4.312.594zM5.5-6.609c0-.156.125-.266.234-.328.625-.281 2.282-.766 4.22-.766 1.952 0 3.609.485 4.234.766.109.062.234.172.234.328s-.172.219-.234.219c-.422 0-1.641-.766-4.235-.766-2.578 0-3.797.766-4.219.766-.062 0-.234-.063-.234-.219zm.719 1.781c-.11 0-.266-.047-.266-.219 0-.156.125-.234.266-.312.656-.36 2.187-.781 3.703-.781s3.125.422 3.781.78c.14.08.266.157.266.313 0 .172-.157.22-.266.22-.328 0-1.594-.75-3.75-.75-2.14 0-3.406.75-3.734.75z"/></symbol></defs><g fill="#ffcc9c"><path d="M9.743 32.138h19.926V12.212H9.743zM49.594 32.138H69.52V12.212H49.594zM89.441 32.138h19.926V12.212H89.441zM129.301 32.138h19.926V12.212h-19.926z"/><path d="M29.669 52.063h19.926V32.137H29.669zM69.52 52.063h19.926V32.137H69.52zM109.371 52.063h19.926V32.137h-19.926zM149.221 52.063h19.926V32.137h-19.926zM9.743 71.99h19.926V52.062H9.743z"/><path d="M49.594 71.99H69.52V52.062H49.594zM89.441 71.99h19.926V52.062H89.441zM129.301 71.99h19.926V52.062h-19.926zM29.669 91.915h19.926V71.99H29.669zM69.52 91.915h19.926V71.99H69.52zM109.371 91.915h19.926V71.99h-19.926zM149.221 91.915h19.926V71.99h-19.926zM9.743 111.84h19.926V91.914H9.743z"/><path d="M49.594 111.84H69.52V91.914H49.594zM89.441 111.84h19.926V91.914H89.441zM129.301 111.84h19.926V91.914h-19.926zM29.669 131.77h19.926v-19.926H29.669zM69.52 131.77h19.926v-19.926H69.52zM109.371 131.77h19.926v-19.926h-19.926zM149.221 131.77h19.926v-19.926h-19.926zM9.743 151.69h19.926v-19.926H9.743z"/><path d="M49.594 151.69H69.52v-19.926H49.594zM89.441 151.69h19.926v-19.926H89.441zM129.301 151.69h19.926v-19.926h-19.926zM29.669 171.62h19.926v-19.926H29.669zM69.52 171.62h19.926v-19.926H69.52zM109.371 171.62h19.926v-19.926h-19.926zM149.221 171.62h19.926v-19.926h-19.926z"/></g><g fill="#cf8a45"><path d="M29.669 32.138h19.926V12.212H29.669zM69.52 32.138h19.926V12.212H69.52zM109.371 32.138h19.926V12.212h-19.926zM149.221 32.138h19.926V12.212h-19.926zM9.743 52.063h19.926V32.137H9.743z"/><path d="M49.594 52.063H69.52V32.137H49.594zM89.441 52.063h19.926V32.137H89.441zM129.301 52.063h19.926V32.137h-19.926z"/><path d="M29.669 71.99h19.926V52.062H29.669zM69.52 71.99h19.926V52.062H69.52zM109.371 71.99h19.926V52.062h-19.926zM149.221 71.99h19.926V52.062h-19.926zM9.743 91.915h19.926V71.99H9.743zM49.594 91.915H69.52V71.99H49.594zM89.441 91.915h19.926V71.99H89.441zM129.301 91.915h19.926V71.99h-19.926z"/><path d="M29.669 111.84h19.926V91.914H29.669zM69.52 111.84h19.926V91.914H69.52zM109.371 111.84h19.926V91.914h-19.926zM149.221 111.84h19.926V91.914h-19.926zM9.743 131.77h19.926v-19.926H9.743zM49.594 131.77H69.52v-19.926H49.594zM89.441 131.77h19.926v-19.926H89.441zM129.301 131.77h19.926v-19.926h-19.926z"/><path d="M29.669 151.69h19.926v-19.926H29.669zM69.52 151.69h19.926v-19.926H69.52zM109.371 151.69h19.926v-19.926h-19.926zM149.221 151.69h19.926v-19.926h-19.926zM9.743 171.62h19.926v-19.926H9.743zM49.594 171.62H69.52v-19.926H49.594zM89.441 171.62h19.926v-19.926H89.441zM129.301 171.62h19.926v-19.926h-19.926z"/></g><g fill="#7f7f7f" transform="translate(-26.769 -7.71)"><use x="43.628" y="14.944" xlink:href="#a"/><use x="63.551" y="14.944" xlink:href="#b"/><use x="83.475" y="14.944" xlink:href="#c"/><use x="103.398" y="14.944" xlink:href="#d"/><use x="123.321" y="14.944" xlink:href="#e"/><use x="143.254" y="14.944" xlink:href="#f"/><use x="163.178" y="14.944" xlink:href="#g"/><use x="183.101" y="14.944" xlink:href="#h"/><use x="26.55" y="32.877" xlink:href="#a"/><use x="200.182" y="32.877" xlink:href="#a"/><use x="26.55" y="52.802" xlink:href="#b"/><use x="200.182" y="52.802" xlink:href="#b"/><use x="26.55" y="72.727" xlink:href="#c"/><use x="200.182" y="72.727" xlink:href="#c"/><use x="26.55" y="92.653" xlink:href="#d"/></g><use x="76.364" y="99.627" xlink:href="#i" fill="#fff" transform="translate(-26.769 -7.71)"/><use x="76.364" y="99.627" xlink:href="#j" transform="translate(-26.769 -7.71)"/><g fill="#7f7f7f" transform="translate(-26.769 -7.71)"><use x="200.182" y="92.653" xlink:href="#d"/><use x="26.55" y="112.578" xlink:href="#e"/><use x="200.182" y="112.578" xlink:href="#e"/><use x="26.55" y="132.503" xlink:href="#f"/><use x="200.182" y="132.503" xlink:href="#f"/><use x="26.55" y="152.428" xlink:href="#g"/></g><use x="136.139" y="159.402" xlink:href="#i" fill="#fff" transform="translate(-26.769 -7.71)"/><use x="136.139" y="159.402" xlink:href="#k" transform="translate(-26.769 -7.71)"/><g fill="#7f7f7f" transform="translate(-26.769 -7.71)"><use x="200.182" y="152.428" xlink:href="#g"/><use x="26.55" y="172.354" xlink:href="#h"/><use x="200.182" y="172.354" xlink:href="#h"/><use x="43.628" y="190.287" xlink:href="#a"/><use x="63.551" y="190.287" xlink:href="#b"/><use x="83.475" y="190.287" xlink:href="#c"/><use x="103.398" y="190.287" xlink:href="#d"/><use x="123.321" y="190.287" xlink:href="#e"/><use x="143.254" y="190.287" xlink:href="#f"/><use x="163.178" y="190.287" xlink:href="#g"/><use x="183.101" y="190.287" xlink:href="#h"/></g><path d="M134.283 141.733c0-8.253-6.691-14.945-14.945-14.945-8.254 0-14.945 6.692-14.945 14.945 0 8.25 6.691 14.941 14.945 14.941 8.254 0 14.945-6.691 14.945-14.94z" fill="none" stroke="#dc302e" stroke-miterlimit="10" stroke-width="1.993"/><path d="M37.641 81.956H25.446" fill="none" stroke="#fff" stroke-linecap="round" stroke-miterlimit="10" stroke-width="1.196"/><path d="M19.704 81.954c1.7.317 4.465 1.274 6.375 2.391v-4.781c-1.91 1.113-4.676 2.07-6.375 2.39" fill="#fff"/><path d="M81.478 81.956h71.973" fill="none" stroke="#fff" stroke-linecap="round" stroke-miterlimit="10" stroke-width="1.196"/><path d="M159.181 81.954c-1.703-.32-4.465-1.277-6.375-2.39v4.781c1.91-1.117 4.672-2.074 6.375-2.39" fill="#fff"/><path d="M59.561 60.04V27.92" fill="none" stroke="#fff" stroke-linecap="round" stroke-miterlimit="10" stroke-width="1.196"/><path d="M59.555 22.177c-.32 1.7-1.273 4.465-2.39 6.375h4.78c-1.113-1.91-2.07-4.675-2.39-6.375" fill="#fff"/><path d="M59.561 103.874v52.043" fill="none" stroke="#fff" stroke-linecap="round" stroke-miterlimit="10" stroke-width="1.196"/><path d="M59.555 161.65c.32-1.699 1.277-4.46 2.39-6.375h-4.78c1.117 1.915 2.07 4.676 2.39 6.375" fill="#fff"/><path d="M38.221 60.62 23.764 46.163" fill="none" stroke="#fff" stroke-linecap="round" stroke-miterlimit="10" stroke-width="1.196"/><path d="M19.704 42.102c.977 1.426 2.254 4.059 2.82 6.2l3.38-3.383c-2.141-.563-4.77-1.84-6.2-2.817" fill="#fff"/><path d="m80.896 60.62 34.383-34.383" fill="none" stroke="#fff" stroke-linecap="round" stroke-miterlimit="10" stroke-width="1.196"/><path d="M119.331 22.177c-1.43.977-4.059 2.254-6.2 2.817l3.384 3.383c.562-2.141 1.84-4.774 2.816-6.2" fill="#fff"/><path d="M38.221 103.288 23.764 117.75" fill="none" stroke="#fff" stroke-linecap="round" stroke-miterlimit="10" stroke-width="1.196"/><path d="M19.704 121.81c1.43-.976 4.059-2.253 6.2-2.82l-3.38-3.379c-.566 2.14-1.843 4.77-2.82 6.2" fill="#fff"/><path d="m68.011 90.41 35.176 35.175" fill="none" stroke="#dc302e" stroke-linecap="round" stroke-miterlimit="10" stroke-width="1.993"/><path d="M108.771 131.16c-1.344-1.96-3.102-5.578-3.875-8.523l-4.652 4.648c2.945.778 6.562 2.532 8.527 3.875" fill="#dc302e"/></svg>