<svg xmlns="http://www.w3.org/2000/svg" xmlns:xlink="http://www.w3.org/1999/xlink" width="140.8" height="128" viewBox="0 0 105.6 96"><defs><symbol overflow="visible" id="b"><path style="stroke:none" d="M.766-.516H1.78v-3.468l-1.093.218v-.562l1.078-.219h.625v4.031h1V0H.766Zm0 0"/></symbol><symbol overflow="visible" id="c"><path style="stroke:none" d="M1.984-4.14c-.324 0-.562.156-.718.468-.157.313-.235.781-.235 1.406 0 .625.078 1.094.235 1.407.156.304.394.453.718.453.313 0 .547-.149.704-.453.164-.313.25-.782.25-1.407s-.086-1.093-.25-1.406c-.157-.312-.391-.469-.704-.469Zm0-.485c.508 0 .895.203 1.157.61.27.398.406.98.406 1.75 0 .761-.137 1.343-.406 1.75-.262.406-.649.609-1.157.609-.511 0-.902-.203-1.171-.61-.274-.406-.407-.988-.407-1.75 0-.77.133-1.351.406-1.75.27-.406.66-.609 1.172-.609Zm0 0"/></symbol><symbol overflow="visible" id="e"><path style="stroke:none" d="M.672-4.547h2.422v.516h-1.86v1.125c.094-.031.18-.051.266-.063.094-.02.18-.031.266-.031.507 0 .91.14 1.203.422.3.273.453.648.453 1.125 0 .492-.152.871-.453 1.14-.305.274-.735.407-1.297.407-.188 0-.383-.024-.578-.063a4.548 4.548 0 0 1-.61-.14v-.61a2.51 2.51 0 0 0 1.188.297c.344 0 .617-.094.828-.281.207-.188.313-.438.313-.75 0-.32-.106-.57-.313-.75-.21-.188-.484-.281-.828-.281-.168 0-.336.023-.5.062a2.386 2.386 0 0 0-.5.156Zm0 0"/></symbol><clipPath id="a"><path d="M101 67h4.602v2H101Zm0 0"/></clipPath></defs><path style="stroke:none;fill-rule:nonzero;fill:#c7f0ff;fill-opacity:1" d="M100.8 48.008a47.995 47.995 0 0 0-17.85-37.356 47.994 47.994 0 0 0-40.278-9.57A47.992 47.992 0 0 0 9.078 67.805h87.445a47.807 47.807 0 0 0 4.278-19.797Zm0 0"/><path style="stroke:none;fill-rule:nonzero;fill:#ccf7ad;fill-opacity:1" d="M9.078 67.805A47.992 47.992 0 0 0 52.801 96a48 48 0 0 0 43.722-28.195Zm0 0"/><path style="fill:none;stroke-width:1.2;stroke-linecap:round;stroke-linejoin:round;stroke:#45413c;stroke-opacity:1;stroke-miterlimit:4" d="M6 67.805h93.602M.602 67.805h3"/><g clip-path="url(#a)"><path style="fill:none;stroke-width:1.2;stroke-linecap:round;stroke-linejoin:round;stroke:#45413c;stroke-opacity:1;stroke-miterlimit:4" d="M102 67.805h3"/></g><path style="stroke:none;fill-rule:nonzero;fill:#dea47a;fill-opacity:1" d="M38.766 67.86H28.699l5.031-18.114h10.067Zm0 0"/><path style="stroke:none;fill-rule:nonzero;fill:#bf8256;fill-opacity:1" d="M33.73 49.746H43.8l-3.87 13.926a34.04 34.04 0 0 1-8.73-4.8Zm0 0"/><path style="stroke:none;fill-rule:nonzero;fill:#dea47a;fill-opacity:1" d="M64.934 67.86h10.062l-5.031-18.114H59.898Zm0 0"/><path style="stroke:none;fill-rule:nonzero;fill:#bf8256;fill-opacity:1" d="M69.96 49.746H59.899l3.872 13.926a34.016 34.016 0 0 0 8.726-4.8Zm0 0"/><path style="fill:none;stroke-width:1.2;stroke-linecap:round;stroke-linejoin:round;stroke:#45413c;stroke-opacity:1;stroke-miterlimit:4" d="M38.766 67.86H28.699l5.031-18.114h10.067ZM64.934 67.86h10.062l-5.031-18.114H59.898Zm0 0"/><path style="fill-rule:nonzero;fill:#fff;fill-opacity:1;stroke-width:1.2;stroke-linecap:round;stroke-linejoin:round;stroke:#45413c;stroke-opacity:1;stroke-miterlimit:4" d="M21.656 31.629c0 16.676 13.516 30.191 30.192 30.191 16.675 0 30.195-13.515 30.195-30.191S68.523 1.434 51.848 1.434c-16.676 0-30.192 13.52-30.192 30.195Zm0 0"/><path style="fill-rule:nonzero;fill:#ff6242;fill-opacity:1;stroke-width:1.2;stroke-linecap:round;stroke-linejoin:round;stroke:#45413c;stroke-opacity:1;stroke-miterlimit:4" d="M33.73 31.629c0 10.004 8.114 18.117 18.118 18.117 10.007 0 18.117-8.113 18.117-18.117 0-4.805-1.91-9.414-5.305-12.813a18.134 18.134 0 0 0-12.812-5.304c-4.805 0-9.41 1.91-12.809 5.304A18.122 18.122 0 0 0 33.73 31.63Zm0 0"/><path style="fill-rule:nonzero;fill:#fff;fill-opacity:1;stroke-width:1.2;stroke-linecap:round;stroke-linejoin:round;stroke:#45413c;stroke-opacity:1;stroke-miterlimit:4" d="M45.809 31.629a6.038 6.038 0 0 0 6.039 6.039 6.038 6.038 0 1 0-6.04-6.04Zm0 0"/><use xlink:href="#b" x="47.825" y="33.927" style="fill:#45413c;fill-opacity:1"/><path style="fill:none;stroke-width:.259875;stroke-linecap:butt;stroke-linejoin:miter;stroke:#45413c;stroke-opacity:1;stroke-miterlimit:4" d="M48.59 33.41h1.015v-3.469l-1.093.22v-.563l1.078-.22h.625v4.032h1v.516H48.59Zm0 0"/><use xlink:href="#c" x="51.793" y="33.927" style="fill:#45413c;fill-opacity:1"/><path style="fill:none;stroke-width:.259875;stroke-linecap:butt;stroke-linejoin:miter;stroke:#45413c;stroke-opacity:1;stroke-miterlimit:4" d="M53.777 29.785c-.324 0-.562.156-.718.469-.157.312-.235.781-.235 1.406 0 .625.078 1.094.235 1.406.156.305.394.454.718.454.313 0 .547-.149.703-.454.165-.312.25-.78.25-1.406 0-.625-.085-1.094-.25-1.406-.156-.313-.39-.469-.703-.469Zm0-.484c.508 0 .895.203 1.157.61.27.398.406.98.406 1.75 0 .76-.137 1.343-.406 1.75-.262.405-.649.609-1.157.609-.511 0-.902-.204-1.172-.61-.273-.406-.406-.988-.406-1.75 0-.77.133-1.351.406-1.75.27-.406.66-.61 1.172-.61Zm0 0"/><g style="fill:#45413c;fill-opacity:1"><use xlink:href="#d" x="55.761" y="33.927"/><use xlink:href="#d" x="57.738" y="33.927"/><use xlink:href="#d" x="59.715" y="33.927"/><use xlink:href="#e" x="61.692" y="33.927"/></g><path style="fill:none;stroke-width:.259875;stroke-linecap:butt;stroke-linejoin:miter;stroke:#45413c;stroke-opacity:1;stroke-miterlimit:4" d="M62.379 29.379H64.8v.516h-1.86v1.125c.094-.032.18-.051.266-.063.094-.02.18-.031.266-.031.507 0 .91.14 1.203.422.3.273.453.648.453 1.125 0 .492-.152.87-.453 1.14-.305.274-.735.407-1.297.407-.188 0-.383-.024-.578-.063a4.548 4.548 0 0 1-.61-.14v-.61a2.51 2.51 0 0 0 1.188.297c.344 0 .617-.094.828-.281.207-.188.313-.438.313-.75 0-.32-.106-.57-.313-.75-.21-.188-.484-.282-.828-.282-.168 0-.336.024-.5.063a2.386 2.386 0 0 0-.5.156Zm0 0"/><g style="fill:#45413c;fill-opacity:1"><use xlink:href="#d" x="65.677" y="33.927"/><use xlink:href="#d" x="67.654" y="33.927"/><use xlink:href="#d" x="69.631" y="33.927"/><use xlink:href="#d" x="71.608" y="33.927"/><use xlink:href="#b" x="73.585" y="33.927"/></g><path style="fill:none;stroke-width:.259875;stroke-linecap:butt;stroke-linejoin:miter;stroke:#45413c;stroke-opacity:1;stroke-miterlimit:4" d="M74.371 33.41h1.016v-3.469l-1.094.22v-.563l1.078-.22h.625v4.032h1v.516h-2.625Zm0 0"/><g style="fill:#45413c;fill-opacity:1"><use xlink:href="#d" x="77.575" y="33.927"/><use xlink:href="#d" x="79.552" y="33.927"/><use xlink:href="#d" x="81.53" y="33.927"/><use xlink:href="#d" x="83.507" y="33.927"/><use xlink:href="#d" x="85.484" y="33.927"/><use xlink:href="#c" x="87.461" y="33.927"/></g><path style="fill:none;stroke-width:.259875;stroke-linecap:butt;stroke-linejoin:miter;stroke:#45413c;stroke-opacity:1;stroke-miterlimit:4" d="M89.473 29.785c-.325 0-.563.156-.72.469-.155.312-.233.781-.233 1.406 0 .625.078 1.094.234 1.406.156.305.394.454.719.454.312 0 .547-.149.703-.454.164-.312.25-.78.25-1.406 0-.625-.086-1.094-.25-1.406-.156-.313-.39-.469-.703-.469Zm0-.484c.507 0 .894.203 1.156.61.27.398.406.98.406 1.75 0 .76-.137 1.343-.406 1.75-.262.405-.649.609-1.156.609-.512 0-.903-.204-1.172-.61-.274-.406-.406-.988-.406-1.75 0-.77.132-1.351.406-1.75.27-.406.66-.61 1.172-.61Zm0 0"/></svg>