<svg width="97" height="97" viewBox="0 0 97 97" fill="none" xmlns="http://www.w3.org/2000/svg">
<path d="M44.4353 3.84587C46.9432 2.36647 50.0568 2.36648 52.5647 3.84587L84.4019 22.6267C86.8406 24.0652 88.3372 26.6857 88.3372 29.5171V67.3791C88.3372 70.2105 86.8405 72.831 84.4019 74.2695L52.5647 93.0503C50.0568 94.5297 46.9432 94.5297 44.4353 93.0503L12.5981 74.2695C10.1595 72.831 8.66284 70.2105 8.66284 67.3791V29.5171C8.66284 26.6857 10.1595 24.0652 12.5981 22.6267L44.4353 3.84587Z" fill="white"/>
<path fill-rule="evenodd" clip-rule="evenodd" d="M84.7763 23.3753L52.1205 4.52148C49.8801 3.22801 47.1199 3.22801 44.8795 4.52148L12.2237 23.3753C9.98337 24.6688 8.60326 27.0592 8.60326 29.6461V67.3538C8.60326 69.9408 9.98337 72.3312 12.2237 73.6247L44.8795 92.4785C47.1199 93.772 49.8801 93.772 52.1205 92.4785L84.7763 73.6247C87.0166 72.3312 88.3967 69.9408 88.3967 67.3538V29.6461C88.3967 27.0592 87.0166 24.6688 84.7763 23.3753ZM53.6721 1.83398C50.4716 -0.0138328 46.5284 -0.0138338 43.3279 1.83398L10.6721 20.6878C7.47159 22.5356 5.5 25.9505 5.5 29.6461V67.3538C5.5 71.0495 7.47159 74.4643 10.6721 76.3122L43.3279 95.166C46.5284 97.0138 50.4716 97.0138 53.6721 95.166L86.3279 76.3122C89.5284 74.4643 91.5 71.0495 91.5 67.3538V29.6461C91.5 25.9505 89.5284 22.5356 86.3279 20.6878L53.6721 1.83398Z" fill="#F0DB4F"/>
<path d="M72.5 24.4481H24.5V72.4481H72.5V24.4481Z" fill="#F8DC3D"/>
<path d="M44.2744 67.4817C48.1804 67.4817 50.8579 65.4027 50.8579 60.8352V45.7782H46.4479V60.7722C46.4479 62.9772 45.5344 63.5442 44.0854 63.5442C42.5734 63.5442 41.9434 62.5047 41.2504 61.2762L37.6594 63.4497C38.6989 65.6547 40.7464 67.4817 44.2744 67.4817Z" fill="black"/>
<path d="M61.2874 67.4817C65.4769 67.4817 68.5954 65.3082 68.5954 61.3392C68.5954 57.6537 66.4849 56.0157 62.7364 54.4092L61.6339 53.9367C59.7439 53.1177 58.9249 52.5822 58.9249 51.2592C58.9249 50.1882 59.7439 49.3692 61.0354 49.3692C62.2954 49.3692 63.1144 49.9047 63.8704 51.2592L67.3039 49.0542C65.8549 46.5027 63.8389 45.5262 61.0354 45.5262C57.0979 45.5262 54.5779 48.0462 54.5779 51.3537C54.5779 54.9447 56.6884 56.6457 59.8699 58.0002L60.9724 58.4727C62.9884 59.3547 64.1854 59.8902 64.1854 61.4022C64.1854 62.6622 63.0199 63.5757 61.1929 63.5757C59.0194 63.5757 57.7909 62.4417 56.8459 60.8982L53.2549 62.9772C54.5464 65.5287 57.1924 67.4817 61.2874 67.4817Z" fill="black"/>
</svg>
