<svg width="86" height="97" viewBox="0 0 86 97" fill="none" xmlns="http://www.w3.org/2000/svg">
<path d="M38.9353 3.39775C41.4432 1.91835 44.5568 1.91836 47.0647 3.39775L78.9019 22.1786C81.3406 23.6171 82.8372 26.2376 82.8372 29.069V66.931C82.8372 69.7624 81.3405 72.3829 78.9019 73.8214L47.0647 92.6022C44.5568 94.0816 41.4432 94.0816 38.9353 92.6022L7.09811 73.8214C4.65946 72.3829 3.16284 69.7624 3.16284 66.931V29.069C3.16284 26.2376 4.65946 23.6171 7.09811 22.1786L38.9353 3.39775Z" fill="white"/>
<path fill-rule="evenodd" clip-rule="evenodd" d="M79.2763 22.9272L46.6205 4.07336C44.3801 2.77989 41.6199 2.77989 39.3795 4.07336L6.7237 22.9272C4.48337 24.2207 3.10326 26.6111 3.10326 29.198V66.9057C3.10326 69.4927 4.48337 71.8831 6.7237 73.1766L39.3795 92.0304C41.6199 93.3239 44.3801 93.3239 46.6205 92.0304L79.2763 73.1766C81.5166 71.8831 82.8967 69.4927 82.8967 66.9057V29.198C82.8967 26.6111 81.5166 24.2207 79.2763 22.9272ZM48.1721 1.38586C44.9716 -0.461953 41.0284 -0.461954 37.8279 1.38586L5.1721 20.2397C1.97159 22.0875 0 25.5024 0 29.198V66.9057C0 70.6014 1.97159 74.0162 5.1721 75.8641L37.8279 94.7179C41.0284 96.5657 44.9716 96.5657 48.1721 94.7179L80.8279 75.8641C84.0284 74.0162 86 70.6014 86 66.9057V29.198C86 25.5024 84.0284 22.0875 80.8279 20.2397L48.1721 1.38586Z" fill="#F0DB4F"/>
<path d="M67.0001 24H19.0001V72H67.0001V24Z" fill="#F8DC3D"/>
<path d="M38.7745 67.0336C42.6805 67.0336 45.358 64.9546 45.358 60.3871V45.3301H40.948V60.3241C40.948 62.5291 40.0345 63.0961 38.5855 63.0961C37.0735 63.0961 36.4435 62.0566 35.7505 60.8281L32.1595 63.0016C33.199 65.2066 35.2465 67.0336 38.7745 67.0336Z" fill="black"/>
<path d="M55.7875 67.0336C59.977 67.0336 63.0955 64.8601 63.0955 60.8911C63.0955 57.2056 60.985 55.5676 57.2365 53.9611L56.134 53.4886C54.244 52.6696 53.425 52.1341 53.425 50.8111C53.425 49.7401 54.244 48.9211 55.5355 48.9211C56.7955 48.9211 57.6145 49.4566 58.3705 50.8111L61.804 48.6061C60.355 46.0546 58.339 45.0781 55.5355 45.0781C51.598 45.0781 49.078 47.5981 49.078 50.9056C49.078 54.4966 51.1885 56.1976 54.37 57.5521L55.4725 58.0246C57.4885 58.9066 58.6855 59.4421 58.6855 60.9541C58.6855 62.2141 57.52 63.1276 55.693 63.1276C53.5195 63.1276 52.291 61.9936 51.346 60.4501L47.755 62.5291C49.0465 65.0806 51.6925 67.0336 55.7875 67.0336Z" fill="black"/>
</svg>
