<svg width="202" height="202" viewBox="0 0 201 202" fill="none" xmlns="http://www.w3.org/2000/svg">
<g clip-path="url(#clip0_162_2)">
<path fill-rule="evenodd" clip-rule="evenodd" d="M178.576 162.494C148.366 161.584 9.83599 75.1139 8.88599 61.3439L16.5356 48.5869C30.2766 68.5529 171.896 152.647 185.806 149.667L178.576 162.49" fill="#FFFF00"/>
<path d="M178.576 162.494C148.366 161.584 9.83599 75.1139 8.88599 61.3439L16.5356 48.5869C30.2766 68.5529 171.896 152.647 185.806 149.667L178.576 162.49" stroke="black" stroke-width="0.573" stroke-linecap="round" stroke-linejoin="round"/>
<path fill-rule="evenodd" clip-rule="evenodd" d="M14.926 46.854C12.2159 54.1477 51.075 78.172 97.829 106.608C144.581 135.042 184.894 152.614 187.882 150.094C188.065 149.769 189.352 147.553 189.234 147.571C188.674 148.415 187.311 148.681 185.183 148.068C172.552 144.425 139.608 129.303 98.8094 104.562C58.0114 79.8192 22.5154 57.0182 16.9984 47.3302C16.6148 46.659 16.3414 45.434 16.3969 44.4815L16.2629 44.4795L15.0882 46.5327L14.9268 46.8546L14.926 46.854ZM179.286 162.894C178.774 163.824 177.818 163.854 176.004 163.655C164.704 162.404 130.415 145.73 89.8424 121.442C42.6324 93.1821 3.6424 67.4321 7.8724 60.7021L9.0233 58.6675L9.24995 58.7381C5.44625 70.1431 86.1979 116.316 90.952 119.26C137.676 148.207 177.067 165.111 180.553 160.718L179.285 162.899V162.897L179.286 162.894Z" fill="#FFFF00" stroke="black" stroke-width="0.573" stroke-linecap="round" stroke-linejoin="round"/>
<path fill-rule="evenodd" clip-rule="evenodd" d="M100.506 69.6841C130.743 69.4451 168.056 65.5522 189.529 56.9941L184.902 49.4773C172.21 56.502 134.693 61.1213 100.251 61.8123C59.5145 61.4375 30.7605 57.6442 16.3535 47.9773L11.9863 55.9818C38.4703 67.1888 65.609 69.5681 100.506 69.6841Z" fill="#FFFF00" stroke="black" stroke-width="0.573" stroke-linecap="round" stroke-linejoin="round"/>
<path fill-rule="evenodd" clip-rule="evenodd" d="M190.776 57.1639C190.037 58.3457 176.033 63.1752 155.403 66.7392C141.415 68.8717 123.169 70.6947 100.399 70.7168C78.766 70.7371 61.094 69.1972 47.715 67.3839C26.059 63.9884 14.882 59.2638 10.75 57.5943C11.1451 56.8085 11.3991 56.2573 11.7801 55.5235C23.6751 60.2595 34.9041 63.1153 48.0591 65.1393C61.3501 66.9393 78.8091 68.5013 100.335 68.481C122.999 68.4581 141.044 66.4966 154.951 64.4276C176.106 61.0154 187.662 56.6242 189.285 54.5851L190.779 57.1639H190.777H190.776ZM186.716 49.5413C184.423 51.3828 172.998 55.4345 152.897 58.6447C139.482 60.5673 122.425 62.288 100.632 62.3092C79.9277 62.3295 63.0127 60.9342 50.1467 59.0601C29.7327 56.394 18.8677 51.5847 14.9507 50.1825C15.3405 49.5087 15.7374 48.8402 16.1448 48.169C19.1927 49.7036 29.6778 53.9599 50.3708 56.8914C63.0908 58.695 80.0318 60.0391 100.633 60.0179C122.323 59.9958 139.186 58.2417 152.516 56.3296C172.721 53.5497 183.593 48.3824 185.244 47.0886L186.717 49.5395L186.716 49.5413Z" fill="#FFFF00" stroke="black" stroke-width="0.573" stroke-linecap="round" stroke-linejoin="round"/>
<path fill-rule="evenodd" clip-rule="evenodd" d="M1.216 106.114C19.814 116.117 61.121 121.158 100.21 121.505C135.801 121.561 182.168 116.003 199.507 106.815L199.03 96.803C193.605 105.28 143.917 113.412 99.8239 113.079C55.7309 112.746 14.7859 105.936 1.13687 97.12L1.21628 106.111" fill="#FFFF00"/>
<path d="M1.216 106.114C19.814 116.117 61.121 121.158 100.21 121.505C135.801 121.561 182.168 116.003 199.507 106.815L199.03 96.803C193.605 105.28 143.917 113.412 99.8239 113.079C55.7309 112.746 14.7859 105.936 1.13687 97.12L1.21628 106.111" stroke="black" stroke-width="0.573" stroke-linecap="round" stroke-linejoin="round"/>
<path fill-rule="evenodd" clip-rule="evenodd" d="M200.456 104.674L200.457 107.061C197.851 110.177 181.511 114.887 161.02 118.203C145.425 120.594 125.093 122.398 99.7579 122.398C75.6889 122.398 56.4949 120.682 41.6099 118.397C18.0809 114.97 3.03089 108.97 0.0098877 107.18L0.0230865 104.394C9.09789 110.428 33.6841 114.841 41.9401 116.192C56.7281 118.462 75.8081 120.166 99.7571 120.166C124.973 120.166 145.191 118.374 160.688 115.999C175.389 113.876 196.332 108.353 200.455 104.675L200.456 104.674ZM200.466 96.1818L200.467 98.5692C197.861 101.683 181.521 106.393 161.03 109.709C145.435 112.1 125.103 113.904 99.7679 113.904C75.6989 113.904 56.5049 112.189 41.6199 109.902C18.0909 106.478 3.0409 100.478 0.0198975 98.6863L0.0330963 95.9011C9.1079 101.934 33.6941 106.348 41.9501 107.697C56.7381 109.969 75.8181 111.673 99.7671 111.673C124.983 111.673 145.201 109.881 160.698 107.504C175.399 105.38 196.342 99.8574 200.465 96.1799L200.466 96.1818Z" fill="#FFFF00" stroke="black" stroke-width="0.573" stroke-linecap="round" stroke-linejoin="round"/>
<path fill-rule="evenodd" clip-rule="evenodd" d="M100.126 160.774C57.354 160.519 20.705 149.115 12.966 147.23L18.6093 156.064C32.2793 161.815 68.0333 170.384 100.536 169.435C133.04 168.487 161.446 165.969 181.464 156.224L187.25 147.069C173.608 153.494 127.183 160.708 100.126 160.774Z" fill="#FFFF00" stroke="black" stroke-width="0.573" stroke-linecap="round" stroke-linejoin="round"/>
<path fill-rule="evenodd" clip-rule="evenodd" d="M183.636 154.174C182.786 155.473 181.919 156.756 181.04 158.003C171.598 161.333 156.721 164.828 150.443 165.847C137.619 168.49 117.778 170.441 100.169 170.45C62.2787 169.896 31.2637 162.478 16.6727 156.151L15.4954 154.127L15.6877 153.823L17.6843 154.597C43.6323 163.881 72.7753 167.584 100.382 168.249C117.92 168.311 135.477 166.239 149.674 163.7C171.445 159.338 180.248 156.05 182.949 154.56L183.636 154.174ZM188.653 145.899C188.675 145.924 188.697 145.949 188.719 145.976C188.083 147.05 187.427 148.142 186.756 149.239C181.721 151.039 168.054 155.037 148.097 157.828C134.948 159.619 126.775 161.354 100.618 161.862C51.6033 160.615 19.8683 151.031 12.3293 148.667L11.2119 146.524C39.6179 153.939 68.6339 159.116 100.62 159.645C124.551 159.135 134.732 157.373 147.772 155.595C171.043 151.976 182.768 148.145 186.287 147.039C186.243 146.976 186.191 146.909 186.133 146.84L188.656 145.897L188.653 145.899Z" fill="#FFFF00" stroke="black" stroke-width="0.55" stroke-linecap="round" stroke-linejoin="round"/>
<path fill-rule="evenodd" clip-rule="evenodd" d="M189.166 98.2141C189.305 126.351 174.906 151.6 163.308 162.739C146.9 178.498 125.145 188.635 99.739 189.102C71.369 189.623 44.619 171.128 37.444 163.003C23.416 147.118 11.995 126.946 11.629 99.7601C13.3666 69.0511 25.422 47.6601 42.897 32.9911C60.372 18.3221 83.64 11.1781 103.018 11.6891C125.376 12.2791 151.493 23.2471 169.539 45.0211C181.362 59.2871 186.482 74.7691 189.166 98.2141ZM99.98 1.87207C154.465 1.87207 199.276 46.2101 199.276 100.575C199.276 154.939 154.465 199.279 99.98 199.279C45.495 199.279 1.056 154.94 1.056 100.575C1.056 46.2101 45.495 1.87207 99.98 1.87207Z" fill="#FFFF00" stroke="black" stroke-width="0.573" stroke-linecap="round" stroke-linejoin="round"/>
<path fill-rule="evenodd" clip-rule="evenodd" d="M100.246 1.53394C154.78 1.53394 199.257 46.0169 199.257 100.556C199.257 155.094 154.779 199.576 100.246 199.576C45.712 199.576 1.23499 155.095 1.23499 100.556C1.23499 46.0169 45.713 1.53394 100.246 1.53394ZM3.41399 100.556C3.41399 153.816 47.15 197.398 100.246 197.398C153.343 197.398 197.079 153.816 197.079 100.556C197.079 47.2943 153.342 3.71233 100.246 3.71233C47.15 3.71233 3.41399 47.2963 3.41399 100.556Z" fill="#FFFF00" stroke="black" stroke-width="0.573" stroke-linecap="round" stroke-linejoin="round"/>
<path fill-rule="evenodd" clip-rule="evenodd" d="M100.326 9.76392C150.057 9.76392 191.019 50.5849 191.019 100.468C191.019 150.352 150.056 191.171 100.326 191.171C50.596 191.171 9.633 150.352 9.633 100.468C9.633 50.5849 50.597 9.76392 100.326 9.76392ZM11.811 100.467C11.811 149.152 51.79 188.991 100.326 188.991C148.862 188.991 188.841 149.152 188.841 100.467C188.841 51.7813 148.863 11.9423 100.326 11.9423C51.79 11.9423 11.811 51.7813 11.811 100.467Z" fill="#FFFF00" stroke="black" stroke-width="0.573" stroke-linecap="round" stroke-linejoin="round"/>
<path fill-rule="evenodd" clip-rule="evenodd" d="M104.316 1.13403H95.8306L95.8406 200.094H104.355L104.316 1.13403Z" fill="#FFFF00" stroke="black" stroke-width="0.573" stroke-linecap="round" stroke-linejoin="round"/>
<path fill-rule="evenodd" clip-rule="evenodd" d="M103.466 0H105.626L105.644 201.25H103.483L103.466 0ZM95.0447 0.00180054H97.2213L97.2243 201.252H95.046V0.00180054H95.0447Z" fill="#FFFF00" stroke="black" stroke-width="0.573" stroke-linecap="round" stroke-linejoin="round"/>
<path fill-rule="evenodd" clip-rule="evenodd" d="M199.326 104.389V97.0336L193.336 91.4536L159.336 82.4536L110.336 77.4536L51.336 80.4536L9.33601 90.4536L0.856018 96.7336V104.091L22.336 94.4538L73.336 86.4538H122.336L158.336 90.4538L183.336 96.4538L199.326 104.389Z" fill="#FFFF00" stroke="black" stroke-width="0.573" stroke-linecap="round" stroke-linejoin="round"/>
<path fill-rule="evenodd" clip-rule="evenodd" d="M100.286 85.224C123.669 85.1808 146.356 87.4394 164.351 90.9434C182.92 94.6555 195.988 99.299 200.456 104.514L200.451 107.097C195.063 100.606 177.478 95.8487 163.933 93.1287C146.075 89.6547 123.54 87.4119 100.286 87.4551C75.748 87.501 52.899 89.8249 35.302 93.2583C21.182 96.0602 2.351 101.626 0 107.116V104.427C1.2911 100.627 15.313 94.9481 34.984 91.0103C52.713 87.5531 75.604 85.2689 100.286 85.224ZM100.296 76.7318C123.679 76.6895 146.366 78.949 164.361 82.4512C182.93 86.1651 195.998 90.8068 200.466 96.0222L200.461 98.6045C195.073 92.116 177.488 87.3575 163.943 84.6385C146.085 81.1628 123.55 78.92 100.296 78.9649C75.758 79.009 53.02 81.3347 35.421 84.7663C21.795 87.3495 2.195 93.1359 0.00900269 98.6263V95.9355C1.3001 92.1767 15.606 86.2941 34.994 82.5185C52.723 79.0613 75.614 76.7785 100.296 76.7318Z" fill="#FFFF00" stroke="black" stroke-width="0.573" stroke-linecap="round" stroke-linejoin="round"/>
<path fill-rule="evenodd" clip-rule="evenodd" d="M99.816 33.4141C136.665 33.2297 168.806 38.5664 183.511 46.0991L188.875 55.378C176.094 48.49 141.419 41.3281 99.8698 42.3991C66.0158 42.6072 29.8428 46.1261 11.6938 55.809L18.0973 45.1C32.9923 37.3759 68.1193 33.4571 99.8173 33.4161" fill="#FFFF00"/>
<path d="M99.816 33.4141C136.665 33.2297 168.806 38.5664 183.511 46.0991L188.875 55.378C176.094 48.49 141.419 41.3281 99.8698 42.3991C66.0158 42.6072 29.8428 46.1261 11.6938 55.809L18.0973 45.1C32.9923 37.3759 68.1193 33.4571 99.8173 33.4161" stroke="black" stroke-width="0.573" stroke-linecap="round" stroke-linejoin="round"/>
<path fill-rule="evenodd" clip-rule="evenodd" d="M100.306 41.074C121.323 41.0184 141.631 42.2038 157.782 45.1177C172.823 47.917 187.167 52.1186 189.218 54.3781L190.808 57.188C185.82 53.931 173.407 50.3044 157.469 47.282C141.463 44.2737 121.169 43.2771 100.269 43.3318C76.5471 43.2507 58.1171 44.503 42.3001 47.2609C25.5721 50.3909 13.9661 54.8624 11.1031 56.987L12.6614 54.0166C18.2245 51.1785 27.0514 47.7574 41.8844 45.0869C58.2414 42.0989 76.8674 41.2028 100.307 41.0741L100.306 41.074ZM100.297 32.5897C120.41 32.5368 140.269 33.6577 155.749 36.4403C167.958 38.8171 180.032 42.5275 184.453 45.8295L186.779 49.5249C182.825 45.1302 167.943 40.9656 154.805 38.6329C139.444 35.9835 120.41 34.9349 100.297 34.7673C79.1886 34.8264 59.6816 36.1193 44.5446 38.8754C30.1036 41.6235 20.7846 44.877 16.8416 47.4179L18.8867 44.3311C24.3281 41.4665 33.1187 38.8357 44.1897 36.6846C59.4387 33.9082 79.065 32.6488 100.297 32.5897Z" fill="#FFFF00" stroke="black" stroke-width="0.573" stroke-linecap="round" stroke-linejoin="round"/>
<path fill-rule="evenodd" clip-rule="evenodd" d="M149.486 141.714C131.268 138.313 113.017 137.819 100.269 137.969C38.862 138.689 19.025 150.578 16.604 154.178L12.0146 146.697C27.6486 135.365 61.0876 129.01 100.602 129.66C121.12 129.996 138.826 131.358 153.721 134.243L149.485 141.716" fill="#FFFF00"/>
<path d="M149.486 141.714C131.268 138.313 113.017 137.819 100.269 137.969C38.862 138.689 19.025 150.578 16.604 154.178L12.0146 146.697C27.6486 135.365 61.0876 129.01 100.602 129.66C121.12 129.996 138.826 131.358 153.721 134.243L149.485 141.716" stroke="black" stroke-width="0.573" stroke-linecap="round" stroke-linejoin="round"/>
<path fill-rule="evenodd" clip-rule="evenodd" d="M99.916 136.914C116.998 137.169 133.765 137.874 149.949 140.892L148.777 142.961C133.746 140.187 117.722 139.125 99.974 139.211C77.311 139.034 54.389 141.151 34.433 146.878C28.1362 148.631 17.712 152.679 16.649 156.024L15.4831 154.101C15.8191 152.124 22.1194 148.02 33.8971 144.711C56.7551 138.166 78.1361 137.062 99.9161 136.912L99.916 136.914ZM100.691 128.318C118.389 128.648 136.666 129.467 154.431 132.986L153.211 135.14C137.169 131.955 121.842 130.893 100.796 130.569C78.0606 130.611 53.9446 132.232 32.0176 138.607C24.9385 140.669 12.7206 145.127 12.3136 148.657L11.1477 146.591C11.4132 143.385 21.9897 139.203 31.5057 136.435C53.6017 130.011 77.7802 128.359 100.691 128.318Z" fill="#FFFF00" stroke="black" stroke-width="0.55" stroke-linecap="round" stroke-linejoin="round"/>
<path fill-rule="evenodd" clip-rule="evenodd" d="M187.916 147.834L180.537 159.283L159.336 140.454L104.336 103.454L42.336 69.4541L10.146 58.4441L17.006 45.7241L19.336 44.4541L39.336 49.4541L105.336 83.4541L143.336 107.454L175.336 130.454L188.336 145.454L187.916 147.834Z" fill="#FFFF00" stroke="black" stroke-width="0.573" stroke-linecap="round" stroke-linejoin="round"/>
<path fill-rule="evenodd" clip-rule="evenodd" d="M8.98601 58.7441C14.632 54.9147 56.125 73.3991 99.541 99.5781C142.842 125.832 184.218 155.499 180.483 161.051L179.255 162.983L178.691 163.428C178.812 163.341 179.434 162.58 178.63 160.522C176.785 154.452 147.435 131.031 98.7361 101.627C51.2611 73.3179 11.6951 56.2559 7.73907 61.1329L8.98601 58.7441ZM189.426 147.671C192.996 140.619 154.51 111.627 106.794 83.3991C57.981 55.7331 22.8 39.4481 16.374 44.3041L14.9462 46.9032C14.9338 47.0461 14.9982 46.7259 15.2999 46.4931C16.4684 45.4736 18.4051 45.5424 19.2791 45.5265C30.3441 45.6923 61.946 60.2355 106.285 85.6545C125.713 96.9695 188.356 137.145 188.117 148.443C188.134 149.415 188.197 149.615 187.832 150.095L189.426 147.671Z" fill="#FFFF00"/>
<path d="M189.426 147.671C192.996 140.619 154.51 111.627 106.794 83.3991C57.981 55.7331 22.8 39.4481 16.374 44.3041L14.9462 46.9032C14.9338 47.0461 14.9982 46.7259 15.2999 46.4931C16.4684 45.4736 18.4051 45.5424 19.2791 45.5265C30.3441 45.6923 61.946 60.2355 106.285 85.6545C125.713 96.9695 188.356 137.145 188.117 148.443C188.134 149.415 188.197 149.615 187.832 150.095L189.426 147.671ZM189.426 147.671L189.426 147.67M8.98601 58.7441C14.632 54.9147 56.125 73.3991 99.541 99.5781C142.842 125.832 184.218 155.499 180.483 161.051L179.255 162.983L178.691 163.428C178.812 163.341 179.434 162.58 178.63 160.522C176.785 154.452 147.435 131.031 98.7361 101.627C51.2611 73.3179 11.6951 56.2559 7.73907 61.1329L8.98601 58.7441Z" stroke="black" stroke-width="0.573" stroke-linecap="round" stroke-linejoin="round"/>
<path d="M40.936 111.464C40.936 127.735 47.5988 142.451 58.393 153.206C69.208 163.984 83.905 170.785 100.202 170.785C116.583 170.785 131.449 164.133 142.218 153.396C152.987 142.661 159.661 127.844 159.664 111.516H159.662V32.3271L40.922 32.186L40.9343 111.464L40.936 111.464Z" fill="white" stroke="black" stroke-width="0.67037" stroke-linejoin="bevel"/>
<path d="M43.156 111.574V111.619C43.156 127.176 49.5974 141.343 59.931 151.628C70.285 161.933 84.545 168.34 100.145 168.34C115.826 168.34 130.057 161.98 140.367 151.714C150.675 141.449 157.064 127.281 157.066 111.67H157.064V34.8442L43.224 34.8257L43.1543 111.574M134.176 57.8267L134.18 106.718L134.139 111.889C134.139 113.25 134.058 114.802 133.899 116.123C132.974 123.852 129.419 130.59 124.154 135.831C117.99 141.966 109.483 145.772 100.107 145.772C90.7799 145.772 82.4679 141.834 76.2779 135.672C69.9282 129.352 66.2479 120.686 66.2479 111.725L66.2347 57.702L134.175 57.8246L134.176 57.8267Z" fill="#FF0000"/>
<path d="M43.156 111.574V111.619C43.156 127.176 49.5974 141.343 59.931 151.628C70.285 161.933 84.545 168.34 100.145 168.34C115.826 168.34 130.057 161.98 140.367 151.714C150.675 141.449 157.064 127.281 157.066 111.67H157.064V34.8442L43.224 34.8257L43.1543 111.574M134.176 57.8267L134.18 106.718L134.139 111.889C134.139 113.25 134.058 114.802 133.899 116.123C132.974 123.852 129.419 130.59 124.154 135.831C117.99 141.966 109.483 145.772 100.107 145.772C90.7799 145.772 82.4679 141.834 76.2779 135.672C69.9282 129.352 66.2479 120.686 66.2479 111.725L66.2347 57.702L134.175 57.8246L134.176 57.8267Z" stroke="black" stroke-width="0.50734"/>
<path d="M50.526 54.884C50.6609 49.363 54.5784 48.056 54.6066 48.0366C54.6348 48.0181 58.838 49.4442 58.8239 54.9352L50.526 54.884Z" fill="#FFFF00"/>
<path d="M47.146 48.144L46.4643 54.4887L50.6049 54.4977C50.6446 49.2484 54.5788 48.3752 54.674 48.3946C54.7631 48.3896 58.6629 49.5552 58.7669 54.4977H62.918L62.1684 48.1045L47.1464 48.1424L47.146 48.144Z" fill="#FFFF00" stroke="black" stroke-width="0.5"/>
<path d="M46.186 54.5142H63.132C63.4892 54.5142 63.7811 54.8669 63.7811 55.2982C63.7811 55.7286 63.4892 56.0796 63.132 56.0796H46.186C45.8288 56.0796 45.5369 55.7286 45.5369 55.2982C45.5369 54.8669 45.8288 54.5142 46.186 54.5142Z" fill="#FFFF00" stroke="black" stroke-width="0.5"/>
<path d="M52.346 54.4841C52.3645 51.1715 54.6081 50.234 54.6196 50.2358C54.6205 50.2358 56.9619 51.2025 56.9805 54.4841H52.346Z" fill="#FFFF00" stroke="black" stroke-width="0.5"/>
<path d="M46.546 45.5042H62.791C63.1332 45.5042 63.4137 45.8225 63.4137 46.2088C63.4137 46.596 63.1332 46.9135 62.791 46.9135H46.546C46.2039 46.9135 45.9234 46.5978 45.9234 46.2088C45.9234 45.8225 46.2039 45.5042 46.546 45.5042Z" fill="#FFFF00" stroke="black" stroke-width="0.5"/>
<path d="M46.886 46.9241H62.424C62.7512 46.9241 63.0193 47.2407 63.0193 47.6279C63.0193 48.0159 62.7512 48.3325 62.424 48.3325H46.886C46.5588 48.3325 46.2907 48.0159 46.2907 47.6279C46.2907 47.2407 46.5588 46.9241 46.886 46.9241Z" fill="#FFFF00" stroke="black" stroke-width="0.5"/>
<path d="M51.906 36.3341L53.1327 36.3361V37.2074H54.0278V36.3167L55.2845 36.3206V37.2079H56.1823V36.3171H57.4399L57.4379 38.3288C57.4379 38.6446 57.1839 38.8492 56.8894 38.8492H52.4781C52.1818 38.8492 51.9084 38.6119 51.9075 38.3227L51.9045 36.3348L51.906 36.3341Z" fill="#FFFF00" stroke="black" stroke-width="0.5"/>
<path d="M56.526 39.0241L56.8029 45.4755L52.5001 45.4596L52.785 39.0073L56.526 39.0241Z" fill="#FFFF00" stroke="black" stroke-width="0.5"/>
<path d="M51.276 42.0142L51.4074 45.4917L47.2818 45.4937L47.3982 42.0144L51.276 42.0142Z" fill="#FFFF00" stroke="black" stroke-width="0.5"/>
<path d="M61.885 42.0142L62.0164 45.4917L57.8908 45.4937L58.0072 42.0144L61.885 42.0142Z" fill="#FFFF00" stroke="black" stroke-width="0.5"/>
<path d="M46.636 39.4941L47.8354 39.4971V40.3693H48.7129V39.4768L49.9423 39.4808V40.3698H50.8216V39.4773L52.0518 39.4793L52.0498 41.491C52.0498 41.805 51.8011 42.0096 51.5136 42.0096H47.1967C46.9074 42.0096 46.6384 41.7741 46.6375 41.4839L46.6345 39.4951L46.636 39.4941Z" fill="#FFFF00" stroke="black" stroke-width="0.5"/>
<path d="M57.245 39.4941L58.4444 39.4971V40.3693H59.3219V39.4768L60.5513 39.4808V40.3698H61.4306V39.4773L62.6608 39.4793L62.6588 41.491C62.6588 41.805 62.4101 42.0096 62.1226 42.0096H57.8057C57.5164 42.0096 57.2474 41.7741 57.2465 41.4839L57.2435 39.4951L57.245 39.4941Z" fill="#FFFF00" stroke="black" stroke-width="0.5"/>
<path d="M54.236 41.064C54.2095 40.4369 55.1126 40.4299 55.1021 41.064V42.6004H54.236L54.236 41.064Z" fill="black"/>
<path d="M48.906 43.294C48.903 42.6881 49.7429 42.6758 49.7324 43.294V44.4811H48.9063L48.906 43.294Z" fill="black"/>
<path d="M59.547 43.294C59.544 42.6881 60.3839 42.6758 60.3733 43.294V44.4811H59.5473L59.547 43.294Z" fill="black"/>
<path d="M50.526 101.204C50.6609 95.6828 54.5784 94.3758 54.6066 94.3564C54.6348 94.3379 58.838 95.764 58.8239 101.255L50.526 101.204Z" fill="#FFFF00"/>
<path d="M47.146 94.4638L46.4643 100.809L50.6049 100.818C50.6446 95.5682 54.5788 94.695 54.674 94.7144C54.7631 94.7094 58.6629 95.875 58.7669 100.818H62.918L62.1684 94.4243L47.1464 94.4622L47.146 94.4638Z" fill="#FFFF00" stroke="black" stroke-width="0.5"/>
<path d="M46.186 100.834H63.132C63.4892 100.834 63.7811 101.187 63.7811 101.618C63.7811 102.048 63.4892 102.399 63.132 102.399H46.186C45.8288 102.399 45.5369 102.048 45.5369 101.618C45.5369 101.187 45.8288 100.834 46.186 100.834Z" fill="#FFFF00" stroke="black" stroke-width="0.5"/>
<path d="M52.346 100.804C52.3645 97.4914 54.6081 96.5539 54.6196 96.5557C54.6205 96.5557 56.9619 97.5223 56.9805 100.804H52.346Z" fill="#FFFF00" stroke="black" stroke-width="0.5"/>
<path d="M46.546 91.824H62.791C63.1332 91.824 63.4137 92.1424 63.4137 92.5287C63.4137 92.9158 63.1332 93.2333 62.791 93.2333H46.546C46.2039 93.2333 45.9234 92.9176 45.9234 92.5287C45.9234 92.1424 46.2039 91.824 46.546 91.824Z" fill="#FFFF00" stroke="black" stroke-width="0.5"/>
<path d="M46.886 93.2439H62.424C62.7512 93.2439 63.0193 93.5605 63.0193 93.9477C63.0193 94.3357 62.7512 94.6524 62.424 94.6524H46.886C46.5588 94.6524 46.2907 94.3357 46.2907 93.9477C46.2907 93.5605 46.5588 93.2439 46.886 93.2439Z" fill="#FFFF00" stroke="black" stroke-width="0.5"/>
<path d="M51.906 82.6539L53.1327 82.6559V83.5272H54.0278V82.6365L55.2845 82.6405V83.5277H56.1823V82.6369H57.4399L57.4379 84.6487C57.4379 84.9644 57.1839 85.169 56.8894 85.169H52.4781C52.1818 85.169 51.9084 84.9318 51.9075 84.6425L51.9045 82.6546L51.906 82.6539Z" fill="#FFFF00" stroke="black" stroke-width="0.5"/>
<path d="M56.526 85.3439L56.8029 91.7953L52.5001 91.7794L52.785 85.3271L56.526 85.3439Z" fill="#FFFF00" stroke="black" stroke-width="0.5"/>
<path d="M51.276 88.334L51.4074 91.8115L47.2818 91.8135L47.3982 88.3342L51.276 88.334Z" fill="#FFFF00" stroke="black" stroke-width="0.5"/>
<path d="M61.885 88.334L62.0164 91.8115L57.8908 91.8135L58.0072 88.3342L61.885 88.334Z" fill="#FFFF00" stroke="black" stroke-width="0.5"/>
<path d="M46.636 85.8139L47.8354 85.8169V86.6892H48.7129V85.7966L49.9423 85.8006V86.6896H50.8216V85.7971L52.0518 85.7991L52.0498 87.8108C52.0498 88.1248 51.8011 88.3294 51.5136 88.3294H47.1967C46.9074 88.3294 46.6384 88.0939 46.6375 87.8038L46.6345 85.815L46.636 85.8139Z" fill="#FFFF00" stroke="black" stroke-width="0.5"/>
<path d="M57.245 85.8139L58.4444 85.8169V86.6892H59.3219V85.7966L60.5513 85.8006V86.6896H61.4306V85.7971L62.6608 85.7991L62.6588 87.8108C62.6588 88.1248 62.4101 88.3294 62.1226 88.3294H57.8057C57.5164 88.3294 57.2474 88.0939 57.2465 87.8038L57.2435 85.815L57.245 85.8139Z" fill="#FFFF00" stroke="black" stroke-width="0.5"/>
<path d="M54.236 87.3838C54.2095 86.7568 55.1126 86.7497 55.1021 87.3838V88.9202H54.236L54.236 87.3838Z" fill="black"/>
<path d="M48.906 89.6138C48.903 89.0079 49.7429 88.9956 49.7324 89.6138V90.801H48.9063L48.906 89.6138Z" fill="black"/>
<path d="M59.547 89.6138C59.544 89.0079 60.3839 88.9956 60.3733 89.6138V90.801H59.5473L59.547 89.6138Z" fill="black"/>
<path d="M68.587 149.418C64.7644 145.432 66.5972 141.731 66.6033 141.698C66.6101 141.665 70.5837 139.687 74.4701 143.566L68.587 149.418Z" fill="#FFFF00"/>
<path d="M61.4227 147.067L65.4446 152.021L68.3685 149.09C64.6715 145.363 66.824 141.956 66.9049 141.902C66.9641 141.835 70.539 139.889 74.1195 143.298L77.0444 140.352L71.9796 136.379L61.4219 147.066L61.4227 147.067Z" fill="#FFFF00" stroke="black" stroke-width="0.5"/>
<path d="M65.2665 152.237L77.2068 140.212C77.4584 139.958 77.9144 140 78.2205 140.304C78.5259 140.607 78.5693 141.061 78.3176 141.315L66.3773 153.34C66.1256 153.593 65.6709 153.553 65.3655 153.25C65.0594 152.946 65.0148 152.49 65.2665 152.237Z" fill="#FFFF00" stroke="black" stroke-width="0.5"/>
<path d="M69.5856 147.844C67.248 145.497 68.1636 143.245 68.173 143.238C68.1736 143.237 70.5093 142.257 72.8511 144.556L69.5856 147.844Z" fill="#FFFF00" stroke="black" stroke-width="0.5"/>
<path d="M59.1267 145.633L70.573 134.105C70.8141 133.862 71.2377 133.888 71.5118 134.16C71.7865 134.433 71.8142 134.855 71.5731 135.098L60.1267 146.626C59.8856 146.868 59.464 146.845 59.188 146.571C58.9139 146.299 58.8856 145.875 59.1267 145.633Z" fill="#FFFF00" stroke="black" stroke-width="0.5"/>
<path d="M60.3739 146.392L71.3221 135.366C71.5526 135.134 71.9662 135.167 72.2409 135.44C72.5163 135.713 72.552 136.127 72.3215 136.359L61.3733 147.384C61.1428 147.617 60.7292 147.584 60.4538 147.31C60.1791 147.038 60.1433 146.624 60.3739 146.392Z" fill="#FFFF00" stroke="black" stroke-width="0.5"/>
<path d="M56.3964 135.368L57.2621 134.499L57.8804 135.113L58.5112 134.478L57.8791 133.85L58.7674 132.961L59.397 133.586L60.0296 132.949L59.3975 132.322L60.2836 131.429L61.7097 132.848C61.9337 133.071 61.9 133.395 61.6924 133.604L58.5842 136.734C58.3754 136.945 58.0144 136.971 57.8085 136.768L56.3958 135.37L56.3964 135.368Z" fill="#FFFF00" stroke="black" stroke-width="0.5"/>
<path d="M61.5605 133.985L66.3335 138.334L63.2904 141.376L58.9126 136.628L61.5605 133.985Z" fill="#FFFF00" stroke="black" stroke-width="0.5"/>
<path d="M59.983 139.817L62.5432 142.174L59.6377 145.103L57.2508 142.569L59.983 139.817Z" fill="#FFFF00" stroke="black" stroke-width="0.5"/>
<path d="M67.4582 132.289L70.0184 134.646L67.1129 137.575L64.726 135.041L67.4582 132.289Z" fill="#FFFF00" stroke="black" stroke-width="0.5"/>
<path d="M54.9254 141.334L55.7726 140.485L56.3916 141.1L57.0099 140.477L56.3765 139.848L57.2456 138.979L57.8764 139.605L58.496 138.981L57.8626 138.352L58.7309 137.481L60.157 138.9C60.3798 139.121 60.3497 139.441 60.1471 139.645L57.1054 142.709C56.9016 142.914 56.545 142.939 56.3384 142.735L54.9251 141.336L54.9254 141.334Z" fill="#FFFF00" stroke="black" stroke-width="0.5"/>
<path d="M62.4006 133.806L63.2478 132.957L63.8668 133.572L64.4851 132.949L63.8517 132.32L64.7208 131.451L65.3516 132.077L65.9712 131.453L65.3378 130.824L66.2061 129.953L67.6321 131.371C67.8549 131.593 67.8249 131.913 67.6223 132.117L64.5806 135.181C64.3768 135.386 64.0202 135.411 63.8136 135.207L62.4003 133.808L62.4006 133.806Z" fill="#FFFF00" stroke="black" stroke-width="0.5"/>
<path d="M61.3945 137.047C60.9309 136.624 61.5622 135.979 62.0047 136.433L63.0949 137.515L62.4847 138.13L61.3945 137.047Z" fill="black"/>
<path d="M59.2213 142.401C58.7893 141.976 59.3723 141.371 59.8036 141.814L60.6459 142.651L60.0639 143.237L59.2213 142.401Z" fill="black"/>
<path d="M66.7191 134.85C66.287 134.425 66.8701 133.821 67.3013 134.264L68.1437 135.1L67.5617 135.686L66.7191 134.85Z" fill="black"/>
<path d="M96.2398 54.884C96.3747 49.363 100.292 48.056 100.32 48.0366C100.349 48.0181 104.552 49.4442 104.538 54.9352L96.2398 54.884Z" fill="#FFFF00"/>
<path d="M92.8598 48.144L92.1781 54.4887L96.3187 54.4977C96.3584 49.2484 100.293 48.3752 100.388 48.3946C100.477 48.3896 104.377 49.5552 104.481 54.4977H108.632L107.882 48.1045L92.8602 48.1424L92.8598 48.144Z" fill="#FFFF00" stroke="black" stroke-width="0.5"/>
<path d="M91.8998 54.5142H108.846C109.203 54.5142 109.495 54.8669 109.495 55.2982C109.495 55.7286 109.203 56.0796 108.846 56.0796H91.8998C91.5426 56.0796 91.2507 55.7286 91.2507 55.2982C91.2507 54.8669 91.5426 54.5142 91.8998 54.5142Z" fill="#FFFF00" stroke="black" stroke-width="0.5"/>
<path d="M98.0598 54.4841C98.0783 51.1715 100.322 50.234 100.333 50.2358C100.334 50.2358 102.676 51.2025 102.694 54.4841H98.0598Z" fill="#FFFF00" stroke="black" stroke-width="0.5"/>
<path d="M92.2598 45.5042H108.505C108.847 45.5042 109.127 45.8225 109.127 46.2088C109.127 46.596 108.847 46.9135 108.505 46.9135H92.2598C91.9176 46.9135 91.6372 46.5978 91.6372 46.2088C91.6372 45.8225 91.9176 45.5042 92.2598 45.5042Z" fill="#FFFF00" stroke="black" stroke-width="0.5"/>
<path d="M92.5998 46.9241H108.138C108.465 46.9241 108.733 47.2407 108.733 47.6279C108.733 48.0159 108.465 48.3325 108.138 48.3325H92.5998C92.2726 48.3325 92.0045 48.0159 92.0045 47.6279C92.0045 47.2407 92.2726 46.9241 92.5998 46.9241Z" fill="#FFFF00" stroke="black" stroke-width="0.5"/>
<path d="M97.6198 36.3341L98.8465 36.3361V37.2074H99.7416V36.3167L100.998 36.3206V37.2079H101.896V36.3171H103.154L103.152 38.3288C103.152 38.6446 102.898 38.8492 102.603 38.8492H98.1919C97.8955 38.8492 97.6221 38.6119 97.6213 38.3227L97.6183 36.3348L97.6198 36.3341Z" fill="#FFFF00" stroke="black" stroke-width="0.5"/>
<path d="M102.24 39.0241L102.517 45.4755L98.2139 45.4596L98.4988 39.0073L102.24 39.0241Z" fill="#FFFF00" stroke="black" stroke-width="0.5"/>
<path d="M96.9898 42.0142L97.1212 45.4917L92.9956 45.4937L93.112 42.0144L96.9898 42.0142Z" fill="#FFFF00" stroke="black" stroke-width="0.5"/>
<path d="M107.599 42.0142L107.73 45.4917L103.605 45.4937L103.721 42.0144L107.599 42.0142Z" fill="#FFFF00" stroke="black" stroke-width="0.5"/>
<path d="M92.3498 39.4941L93.5492 39.4971V40.3693H94.4267V39.4768L95.6561 39.4808V40.3698H96.5354V39.4773L97.7656 39.4793L97.7636 41.491C97.7636 41.805 97.5149 42.0096 97.2274 42.0096H92.9105C92.6212 42.0096 92.3522 41.7741 92.3513 41.4839L92.3483 39.4951L92.3498 39.4941Z" fill="#FFFF00" stroke="black" stroke-width="0.5"/>
<path d="M102.959 39.4941L104.158 39.4971V40.3693H105.036V39.4768L106.265 39.4808V40.3698H107.144V39.4773L108.375 39.4793L108.373 41.491C108.373 41.805 108.124 42.0096 107.836 42.0096H103.519C103.23 42.0096 102.961 41.7741 102.96 41.4839L102.957 39.4951L102.959 39.4941Z" fill="#FFFF00" stroke="black" stroke-width="0.5"/>
<path d="M99.9498 41.064C99.9233 40.4369 100.826 40.4299 100.816 41.064V42.6004H99.9498L99.9498 41.064Z" fill="black"/>
<path d="M94.6198 43.294C94.6168 42.6881 95.4567 42.6758 95.4461 43.294V44.4811H94.6201L94.6198 43.294Z" fill="black"/>
<path d="M105.261 43.294C105.258 42.6881 106.098 42.6758 106.087 43.294V44.4811H105.261L105.261 43.294Z" fill="black"/>
<path d="M149.938 54.884C149.803 49.363 145.886 48.056 145.857 48.0366C145.829 48.0181 141.626 49.4442 141.64 54.9352L149.938 54.884Z" fill="#FFFF00"/>
<path d="M153.318 48.144L154 54.4887L149.859 54.4977C149.819 49.2484 145.885 48.3752 145.79 48.3946C145.701 48.3896 141.801 49.5552 141.697 54.4977H137.546L138.296 48.1045L153.318 48.1424L153.318 48.144Z" fill="#FFFF00" stroke="black" stroke-width="0.5"/>
<path d="M154.278 54.5142H137.332C136.975 54.5142 136.683 54.8669 136.683 55.2982C136.683 55.7286 136.975 56.0796 137.332 56.0796H154.278C154.635 56.0796 154.927 55.7286 154.927 55.2982C154.927 54.8669 154.635 54.5142 154.278 54.5142Z" fill="#FFFF00" stroke="black" stroke-width="0.5"/>
<path d="M148.118 54.4841C148.099 51.1715 145.856 50.234 145.844 50.2358C145.843 50.2358 143.502 51.2025 143.483 54.4841H148.118Z" fill="#FFFF00" stroke="black" stroke-width="0.5"/>
<path d="M153.918 45.5042H137.673C137.331 45.5042 137.05 45.8225 137.05 46.2088C137.05 46.596 137.331 46.9135 137.673 46.9135H153.918C154.26 46.9135 154.541 46.5978 154.541 46.2088C154.541 45.8225 154.26 45.5042 153.918 45.5042Z" fill="#FFFF00" stroke="black" stroke-width="0.5"/>
<path d="M153.578 46.9241H138.04C137.713 46.9241 137.445 47.2407 137.445 47.6279C137.445 48.0159 137.713 48.3325 138.04 48.3325H153.578C153.905 48.3325 154.173 48.0159 154.173 47.6279C154.173 47.2407 153.905 46.9241 153.578 46.9241Z" fill="#FFFF00" stroke="black" stroke-width="0.5"/>
<path d="M148.558 36.3341L147.331 36.3361V37.2074H146.436V36.3167L145.179 36.3206V37.2079H144.282V36.3171H143.024L143.026 38.3288C143.026 38.6446 143.28 38.8492 143.575 38.8492H147.986C148.282 38.8492 148.556 38.6119 148.557 38.3227L148.56 36.3348L148.558 36.3341Z" fill="#FFFF00" stroke="black" stroke-width="0.5"/>
<path d="M143.938 39.0241L143.661 45.4755L147.964 45.4596L147.679 39.0073L143.938 39.0241Z" fill="#FFFF00" stroke="black" stroke-width="0.5"/>
<path d="M149.188 42.0142L149.057 45.4917L153.182 45.4937L153.066 42.0144L149.188 42.0142Z" fill="#FFFF00" stroke="black" stroke-width="0.5"/>
<path d="M138.579 42.0142L138.448 45.4917L142.573 45.4937L142.457 42.0144L138.579 42.0142Z" fill="#FFFF00" stroke="black" stroke-width="0.5"/>
<path d="M153.828 39.4941L152.629 39.4971V40.3693H151.751V39.4768L150.522 39.4808V40.3698H149.642V39.4773L148.412 39.4793L148.414 41.491C148.414 41.805 148.663 42.0096 148.95 42.0096H153.267C153.557 42.0096 153.826 41.7741 153.826 41.4839L153.829 39.4951L153.828 39.4941Z" fill="#FFFF00" stroke="black" stroke-width="0.5"/>
<path d="M143.219 39.4941L142.02 39.4971V40.3693H141.142V39.4768L139.913 39.4808V40.3698H139.033V39.4773L137.803 39.4793L137.805 41.491C137.805 41.805 138.054 42.0096 138.341 42.0096H142.658C142.948 42.0096 143.217 41.7741 143.217 41.4839L143.22 39.4951L143.219 39.4941Z" fill="#FFFF00" stroke="black" stroke-width="0.5"/>
<path d="M146.228 41.064C146.254 40.4369 145.351 40.4299 145.362 41.064V42.6004H146.228L146.228 41.064Z" fill="black"/>
<path d="M151.558 43.294C151.561 42.6881 150.721 42.6758 150.732 43.294V44.4811H151.558L151.558 43.294Z" fill="black"/>
<path d="M140.917 43.294C140.92 42.6881 140.08 42.6758 140.091 43.294V44.4811H140.917L140.917 43.294Z" fill="black"/>
<path d="M149.938 101.204C149.803 95.6828 145.886 94.3758 145.857 94.3564C145.829 94.3379 141.626 95.764 141.64 101.255L149.938 101.204Z" fill="#FFFF00"/>
<path d="M153.318 94.4638L154 100.809L149.859 100.818C149.819 95.5682 145.885 94.695 145.79 94.7144C145.701 94.7094 141.801 95.875 141.697 100.818H137.546L138.296 94.4243L153.318 94.4622L153.318 94.4638Z" fill="#FFFF00" stroke="black" stroke-width="0.5"/>
<path d="M154.278 100.834H137.332C136.975 100.834 136.683 101.187 136.683 101.618C136.683 102.048 136.975 102.399 137.332 102.399H154.278C154.635 102.399 154.927 102.048 154.927 101.618C154.927 101.187 154.635 100.834 154.278 100.834Z" fill="#FFFF00" stroke="black" stroke-width="0.5"/>
<path d="M148.118 100.804C148.099 97.4914 145.856 96.5539 145.844 96.5557C145.843 96.5557 143.502 97.5223 143.483 100.804H148.118Z" fill="#FFFF00" stroke="black" stroke-width="0.5"/>
<path d="M153.918 91.824H137.673C137.331 91.824 137.05 92.1424 137.05 92.5287C137.05 92.9158 137.331 93.2333 137.673 93.2333H153.918C154.26 93.2333 154.541 92.9176 154.541 92.5287C154.541 92.1424 154.26 91.824 153.918 91.824Z" fill="#FFFF00" stroke="black" stroke-width="0.5"/>
<path d="M153.578 93.2439H138.04C137.713 93.2439 137.445 93.5605 137.445 93.9477C137.445 94.3357 137.713 94.6524 138.04 94.6524H153.578C153.905 94.6524 154.173 94.3357 154.173 93.9477C154.173 93.5605 153.905 93.2439 153.578 93.2439Z" fill="#FFFF00" stroke="black" stroke-width="0.5"/>
<path d="M148.558 82.6539L147.331 82.6559V83.5272H146.436V82.6365L145.179 82.6405V83.5277H144.282V82.6369H143.024L143.026 84.6487C143.026 84.9644 143.28 85.169 143.575 85.169H147.986C148.282 85.169 148.556 84.9318 148.557 84.6425L148.56 82.6546L148.558 82.6539Z" fill="#FFFF00" stroke="black" stroke-width="0.5"/>
<path d="M143.938 85.3439L143.661 91.7953L147.964 91.7794L147.679 85.3271L143.938 85.3439Z" fill="#FFFF00" stroke="black" stroke-width="0.5"/>
<path d="M149.188 88.334L149.057 91.8115L153.182 91.8135L153.066 88.3342L149.188 88.334Z" fill="#FFFF00" stroke="black" stroke-width="0.5"/>
<path d="M138.579 88.334L138.448 91.8115L142.573 91.8135L142.457 88.3342L138.579 88.334Z" fill="#FFFF00" stroke="black" stroke-width="0.5"/>
<path d="M153.828 85.8139L152.629 85.8169V86.6892H151.751V85.7966L150.522 85.8006V86.6896H149.642V85.7971L148.412 85.7991L148.414 87.8108C148.414 88.1248 148.663 88.3294 148.95 88.3294H153.267C153.557 88.3294 153.826 88.0939 153.826 87.8038L153.829 85.815L153.828 85.8139Z" fill="#FFFF00" stroke="black" stroke-width="0.5"/>
<path d="M143.219 85.8139L142.02 85.8169V86.6892H141.142V85.7966L139.913 85.8006V86.6896H139.033V85.7971L137.803 85.7991L137.805 87.8108C137.805 88.1248 138.054 88.3294 138.341 88.3294H142.658C142.948 88.3294 143.217 88.0939 143.217 87.8038L143.22 85.815L143.219 85.8139Z" fill="#FFFF00" stroke="black" stroke-width="0.5"/>
<path d="M146.228 87.3838C146.254 86.7568 145.351 86.7497 145.362 87.3838V88.9202H146.228L146.228 87.3838Z" fill="black"/>
<path d="M151.558 89.6138C151.561 89.0079 150.721 88.9956 150.732 89.6138V90.801H151.558L151.558 89.6138Z" fill="black"/>
<path d="M140.917 89.6138C140.92 89.0079 140.08 88.9956 140.091 89.6138V90.801H140.917L140.917 89.6138Z" fill="black"/>
<path d="M131.877 149.418C135.7 145.432 133.867 141.731 133.861 141.697C133.854 141.664 129.88 139.687 125.994 143.566L131.877 149.418Z" fill="#FFFF00"/>
<path d="M139.041 147.067L135.019 152.021L132.096 149.09C135.792 145.363 133.64 141.956 133.559 141.902C133.5 141.835 129.925 139.889 126.344 143.298L123.42 140.352L128.484 136.379L139.042 147.066L139.041 147.067Z" fill="#FFFF00" stroke="black" stroke-width="0.5"/>
<path d="M135.197 152.237L123.257 140.212C123.006 139.958 122.55 140 122.243 140.304C121.938 140.607 121.895 141.061 122.146 141.315L134.087 153.34C134.338 153.593 134.793 153.553 135.098 153.25C135.405 152.946 135.449 152.49 135.197 152.237Z" fill="#FFFF00" stroke="black" stroke-width="0.5"/>
<path d="M130.878 147.844C133.216 145.497 132.3 143.245 132.291 143.238C132.29 143.237 129.955 142.257 127.613 144.556L130.878 147.844Z" fill="#FFFF00" stroke="black" stroke-width="0.5"/>
<path d="M141.337 145.633L129.891 134.105C129.65 133.862 129.226 133.888 128.952 134.16C128.677 134.433 128.65 134.855 128.891 135.098L140.337 146.626C140.578 146.868 141 146.845 141.276 146.571C141.55 146.299 141.578 145.875 141.337 145.633Z" fill="#FFFF00" stroke="black" stroke-width="0.5"/>
<path d="M140.09 146.392L129.142 135.366C128.911 135.134 128.498 135.167 128.223 135.44C127.948 135.713 127.912 136.127 128.142 136.359L139.091 147.384C139.321 147.617 139.735 147.584 140.01 147.31C140.285 147.038 140.321 146.624 140.09 146.392Z" fill="#FFFF00" stroke="black" stroke-width="0.5"/>
<path d="M144.068 135.368L143.202 134.499L142.584 135.113L141.953 134.478L142.585 133.85L141.697 132.961L141.067 133.586L140.434 132.949L141.066 132.322L140.18 131.429L138.754 132.848C138.53 133.071 138.564 133.395 138.772 133.604L141.88 136.734C142.089 136.945 142.45 136.971 142.655 136.768L144.068 135.37L144.068 135.368Z" fill="#FFFF00" stroke="black" stroke-width="0.5"/>
<path d="M138.903 133.985L134.13 138.334L137.174 141.376L141.551 136.628L138.903 133.985Z" fill="#FFFF00" stroke="black" stroke-width="0.5"/>
<path d="M140.481 139.817L137.921 142.174L140.826 145.103L143.213 142.569L140.481 139.817Z" fill="#FFFF00" stroke="black" stroke-width="0.5"/>
<path d="M133.006 132.289L130.446 134.646L133.351 137.575L135.738 135.041L133.006 132.289Z" fill="#FFFF00" stroke="black" stroke-width="0.5"/>
<path d="M145.539 141.334L144.691 140.485L144.072 141.1L143.454 140.477L144.087 139.848L143.218 138.979L142.588 139.605L141.968 138.981L142.601 138.352L141.733 137.481L140.307 138.9C140.084 139.121 140.114 139.441 140.317 139.645L143.359 142.709C143.562 142.914 143.919 142.939 144.126 142.735L145.539 141.336L145.539 141.334Z" fill="#FFFF00" stroke="black" stroke-width="0.5"/>
<path d="M138.063 133.806L137.216 132.957L136.597 133.572L135.979 132.949L136.612 132.32L135.743 131.451L135.112 132.077L134.493 131.453L135.126 130.824L134.258 129.953L132.832 131.371C132.609 131.593 132.639 131.913 132.842 132.117L135.883 135.181C136.087 135.386 136.444 135.411 136.65 135.207L138.064 133.808L138.063 133.806Z" fill="#FFFF00" stroke="black" stroke-width="0.5"/>
<path d="M139.069 137.047C139.533 136.624 138.902 135.979 138.459 136.433L137.369 137.515L137.979 138.13L139.069 137.047Z" fill="black"/>
<path d="M141.243 142.401C141.675 141.976 141.092 141.371 140.66 141.814L139.818 142.651L140.4 143.237L141.243 142.401Z" fill="black"/>
<path d="M133.745 134.85C134.177 134.425 133.594 133.821 133.163 134.264L132.32 135.1L132.902 135.686L133.745 134.85Z" fill="black"/>
<path d="M92.972 102.86V102.865C92.972 105.077 93.8213 107.092 95.1838 108.555C96.549 110.021 98.4292 110.932 100.486 110.932C102.553 110.932 104.43 110.027 105.789 108.567C107.147 107.108 107.991 105.095 107.991 102.874V92.1058L92.9988 92.0935L92.972 102.86Z" fill="#003399"/>
<path d="M92.972 76.8442V76.8492C92.972 79.0611 93.8213 81.0764 95.1838 82.5386C96.549 84.0053 98.4292 84.9163 100.486 84.9163C102.553 84.9163 104.43 84.0115 105.789 82.5509C107.147 81.0922 107.991 79.0787 107.991 76.8579V66.0899L92.9988 66.0776L92.972 76.8442Z" fill="#003399"/>
<path d="M72.173 102.86V102.865C72.173 105.077 73.0223 107.092 74.3848 108.555C75.75 110.021 77.6302 110.932 79.6868 110.932C81.754 110.932 83.6307 110.027 84.9897 108.567C86.3478 107.108 87.1918 105.095 87.1918 102.874V92.1058L72.1998 92.0935L72.173 102.86Z" fill="#003399"/>
<path d="M113.717 102.86V102.865C113.717 105.077 114.566 107.092 115.929 108.555C117.294 110.021 119.174 110.932 121.231 110.932C123.298 110.932 125.175 110.027 126.534 108.567C127.892 107.108 128.736 105.095 128.736 102.874V92.1058L113.744 92.0935L113.717 102.86Z" fill="#003399"/>
<path d="M92.972 128.644V128.649C92.972 130.861 93.8213 132.876 95.1838 134.338C96.549 135.805 98.4292 136.716 100.486 136.716C102.553 136.716 104.43 135.811 105.789 134.351C107.147 132.892 107.991 130.879 107.991 128.658V117.89L92.9988 117.877L92.972 128.644Z" fill="#003399"/>
</g>
<defs>
<clipPath id="clip0_162_2">
<rect width="200.467" height="201.252" fill="white"/>
</clipPath>
</defs>
</svg>
