<svg xmlns="http://www.w3.org/2000/svg" width="322.667" height="480" version="1.0" viewBox="0 0 242 360"><path d="M0 180v180h242V0H0z"/><path fill="#fff" d="M119.2 15.2c.5 21-.7 31.8-3.7 31.8-.8 0-4.3-1.6-7.8-3.5C93.7 35.8 88 41.1 88 62c0 11 1.2 16.3 4.5 19.6s6.8 3 15.2-1.2c3.9-2 7.8-3.4 8.6-3.1s1.8 2.5 2.3 4.9c1 5.6.7 34.9-.4 36-.5.5-8.4.9-17.6.9-17 0-23.6-1-23.6-3.7 0-.7 1.6-4.3 3.5-8 4.1-7.8 4.4-11.6 1.1-14.9S73 88 62 88s-16.3 1.2-19.6 4.5c-3.4 3.4-3.1 7.6 1.1 15.2 1.9 3.5 3.5 7 3.5 7.8 0 3-6.6 3.8-30.7 3.6L6 119V6h113z"/><path fill="#fff" d="M236 61.8v55.7h-18.2c-16.6 0-18.7.2-23 2.2-6.6 3-6.8 4.7-1.7 15.3 4.7 10 4.6 11.2-2 13-4.6 1.3-17.6 1.3-22.2 0-6.7-1.9-6.8-3.1-1.9-12.7 4.9-9.5 4.8-12.7-.4-15.1-4.8-2.3-16.6-3.5-29.6-2.8l-12.6.6V99.7c.1-16.6-.1-18.6-2.1-22.9-3.1-6.8-5.3-7.1-15.7-1.7-9.5 4.8-10.7 4.6-12.6-2-2.3-8.2-.5-26.6 2.7-27.8.8-.3 5.4 1.3 10.3 3.7 10.6 5 12.3 4.8 15.3-1.8 2-4.3 2.2-6.3 2.1-23V6H236zM73.1 94c6.6 1.9 6.8 3.1 2 12.6-4.9 9.5-4.9 12.4-.1 14.9s17.5 3.8 30.5 3.1l12.1-.7v18.3c-.1 16.7.1 18.7 2.1 23 3.1 6.8 5.3 7.1 15.7 1.7 9.5-4.8 10.7-4.6 12.6 2 1.3 4.6 1.3 17.6 0 22.2-1.9 6.6-3.1 6.8-12.6 2-10.4-5.4-12.6-5.1-15.7 1.7-2 4.3-2.2 6.3-2.2 22.7l.1 18.1-18.1-.1c-16.4 0-18.4.2-22.7 2.2-6.8 3.1-7.1 5.3-1.7 15.7 3.6 7.1 4.1 8.7 3 10-2 2.4-7.7 3.6-16.6 3.5-9.3-.1-15.8-1.7-16.3-4.2-.2-.9 1.2-4.7 3.2-8.4 4.8-9.3 5.3-11.6 2.7-14.2-3.6-3.6-9.5-4.6-27.8-4.5H6V124.4h17.3c18.3.1 24.2-.9 27.8-4.5 2.6-2.6 1.9-6-2.7-14.4-4.8-8.7-4.6-10 2-11.6 4.7-1.1 18.6-1 22.7.1"/><path fill="#fff" d="M160.8 123.7c1.9.3 3.6 1.2 3.9 2s-1.1 4.6-3.1 8.5c-4.2 8.2-4.5 12-1.2 15.3S169 154 180 154s16.3-1.2 19.6-4.5c3.4-3.4 3.1-7.6-1.1-15.2-3.6-6.6-4.2-8.8-2.5-9.8 2.2-1.4 17.3-2.3 28.3-1.8l11.7.6v112.8l-12.2-.7c-13.3-.7-25.9.6-30.8 3.1-4.8 2.5-4.8 5.4.1 14.9 2.3 4.5 4 9 3.7 9.8-1.3 3.3-19.5 5.1-27.9 2.8-6.6-1.9-6.8-3.1-2-12.6 5.4-10.4 5.1-12.6-1.7-15.7-4.3-2-6.2-2.2-23.4-2.1H123l-.2-8.5c-.6-19.2.5-30.9 2.9-31.8.8-.3 4.6 1 8.3 3.1 7.9 4.2 12.1 4.6 15.5 1.2 3.3-3.3 4.5-8.6 4.5-19.6s-1.2-16.3-4.5-19.6c-3.4-3.4-7.6-3.1-15.2 1.1-6.6 3.6-8.8 4.2-9.8 2.5-1.3-2.2-2.3-19.1-1.7-29.5l.7-11 9-.6c9.2-.6 22.3-.3 28.3.8M43.8 242.1c1.7.6 3.2 1.7 3.2 2.4 0 .8-1.6 4.3-3.5 7.8-7.7 14-2.4 19.7 18.5 19.7 11 0 16.3-1.2 19.6-4.5s3-7.1-1.1-14.9c-1.9-3.7-3.5-7.3-3.5-8 0-3.1 7.6-4 30.6-3.7l10 .1v18.7c-.1 17.3.1 19.2 2.1 23.5 3.1 6.8 5.3 7.1 15.9 1.7l8.5-4.4 1.9 2.3c4.7 5.8 3.5 32.2-1.6 32.2-.6 0-5-1.8-9.7-4.1-10.2-4.9-12-4.7-15 1.9-2 4.3-2.2 6.3-2.1 22.9V354H6V241.1l10.3-.3c13.5-.4 23.4.1 27.5 1.3"/><path fill="#fff" d="M161.8 242.1c1.7.6 3.2 1.6 3.2 2.3s-1.6 4.3-3.5 8c-4.1 8-4.4 11.8-1.1 15.1S169 272 180 272s16.3-1.2 19.6-4.5c3.4-3.4 3.1-7.6-1.1-15.2-1.9-3.5-3.5-7-3.5-7.8 0-3 7.6-3.9 30.8-3.6l10.2.1v113H123l-.2-8.8c-.6-20.7.7-32.2 3.7-32.2.8 0 4.3 1.6 7.8 3.5 14 7.7 19.7 2.4 19.7-18.5 0-11-1.2-16.3-4.5-19.6s-7.1-3-15.1 1.1c-7 3.7-8.9 4.1-9.9 2.5-1.3-2.2-2.3-19.1-1.7-29.5l.7-11 10.5-.5c13-.6 23.5-.2 27.8 1.1"/></svg>
