<svg xmlns="http://www.w3.org/2000/svg" width="480" height="480" version="1.0" viewBox="0 0 360 360"><path d="M0 180v180h360V0H0z"/><path fill="#fff" d="M119.1 15.7c.4 22.6-.7 31.3-3.6 31.3-.8 0-4.3-1.6-7.8-3.5C93.6 35.7 88 41 88 62.2c0 10.9 1.2 16.1 4.5 19.4s7.1 3 14.9-1.1c3.7-1.9 7.3-3.5 8-3.5 3 0 4.1 9.3 3.8 31.3l-.2 9.8-13.2-.7c-20.7-1-32.3 1.3-34.2 6.8-.8 2.2-.2 4 3.5 11.3l4.4 8.6-2.3 1.9c-5.8 4.7-32.2 3.5-32.2-1.6 0-.6 1.8-5 4.1-9.7 4.9-10.2 4.7-12-1.9-15-4.3-2-6.4-2.2-22.9-2.2H6V6h113z"/><path fill="#fff" d="M237.2 14.2c.7 20.7-.7 32.8-3.7 32.8-.8 0-4.3-1.6-7.8-3.5-14-7.7-19.7-2.4-19.7 18.5 0 11 1.2 16.3 4.5 19.6s7.1 3 15.1-1.1c7-3.7 8.9-4.1 9.9-2.5 1.4 2.2 2.3 17.2 1.8 28l-.6 11.6-18.6-.1c-17 0-19 .2-23.3 2.2-6.8 3.1-7.1 5.3-1.7 15.7 4.8 9.5 4.6 10.7-2 12.6-4.6 1.3-17.6 1.3-22.2 0-6.6-1.9-6.8-3.1-2-12.6 5.4-10.4 5.1-12.6-1.7-15.7-4.3-2-6.3-2.2-22.7-2.2h-18.1v-18c.1-16.3-.1-18.4-2.1-22.7-3.1-6.8-5.3-7.1-15.9-1.7l-8.5 4.4-1.9-2.3c-2.5-3-3.4-9.5-2.8-19.7.6-8.5 1.9-12.5 4.2-12.5.8 0 5.2 1.8 9.9 4.1 9.5 4.5 11.8 4.5 14.2-.1 2.5-4.9 3.8-17.5 3.1-30.8L123.9 6H237z"/><path fill="#fff" d="M354 61.8v55.7h-18.2c-16.6 0-18.7.2-23 2.2-6.6 3-6.8 4.7-1.7 15.3 4.7 10 4.6 11.2-2 13-4.6 1.3-17.6 1.3-22.2 0-6.7-1.9-6.8-3.1-1.9-12.7 4.9-9.5 4.8-12.7-.4-15.1-4.8-2.4-16.6-3.5-29.9-2.8l-12.7.6.6-12.7c.7-13.3-.4-25.1-2.8-29.9-2.4-5.2-5.6-5.3-15.3-.3l-8.6 4.4-1.9-2.3c-4.7-5.8-3.5-32.2 1.6-32.2.6 0 5 1.8 9.7 4.1 10.2 4.9 12 4.7 15-1.9 2-4.3 2.2-6.4 2.2-23V6H354zM42.8 123.7c1.9.3 3.6 1.2 3.9 1.9.3.8-1.1 4.5-3.1 8.3-4.2 8.1-4.6 12.2-1.2 15.6 3.3 3.3 8.6 4.5 19.6 4.5s16.3-1.2 19.6-4.5 3-7.1-1.1-15.1c-3.7-7-4.1-8.9-2.5-9.9 2.2-1.4 17.2-2.3 28-1.8l11.6.6-.1 18.6c0 17 .2 19 2.2 23.3 3.1 6.8 5.3 7.1 15.7 1.7 9.5-4.8 10.7-4.6 12.6 2 1.3 4.6 1.3 17.6 0 22.2-1.9 6.6-3.1 6.8-12.6 2-10.4-5.4-12.6-5.1-15.7 1.7-2 4.3-2.2 6.3-2.2 22.7v18.1l-18-.1c-16.4 0-18.4.2-22.7 2.2-6.8 3.1-7.1 5.3-1.7 15.9l4.4 8.5-2.3 1.9c-3 2.5-9.5 3.4-19.7 2.8-8.5-.6-12.5-1.9-12.5-4.2 0-.8 1.8-5.2 4.1-9.9 4.5-9.5 4.5-11.8-.1-14.2-4.9-2.5-17.5-3.8-30.7-3.1l-12.3.7v-113l8.8-.4c9.4-.4 22.7 0 28 1"/><path fill="#fff" d="M160.8 123.7c1.9.3 3.6 1.2 3.9 2 .3.9-1 4.6-3.1 8.3-4.2 7.9-4.6 12.1-1.2 15.5 3.3 3.3 8.6 4.5 19.6 4.5s16.3-1.2 19.6-4.5c3.4-3.4 3-7.6-1.2-15.5-2.1-3.7-3.4-7.5-3.1-8.3s2.5-1.9 4.9-2.3c5.5-1 34.9-.7 36 .4s1.4 30.5.4 36c-.4 2.4-1.5 4.6-2.3 4.9s-4.6-1-8.3-3.1c-7.9-4.2-12.1-4.6-15.5-1.2-3.3 3.3-4.5 8.6-4.5 19.6s1.2 16.3 4.5 19.6c3.4 3.4 7.6 3 15.5-1.2 3.7-2.1 7.5-3.4 8.3-3.1s1.9 2.5 2.3 4.9c1 5.5.7 34.9-.4 36s-30.4 1.4-36 .4c-2.4-.4-4.6-1.5-4.9-2.3s1-4.6 3.1-8.3c4.2-7.9 4.6-12.1 1.2-15.5-3.3-3.3-8.6-4.5-19.6-4.5s-16.3 1.2-19.6 4.5c-3.4 3.4-3 7.6 1.2 15.5 2.1 3.7 3.4 7.5 3.1 8.3s-2.5 1.9-4.9 2.3c-5.6 1-34.9.7-36-.4s-1.4-30.5-.4-36c.4-2.4 1.5-4.6 2.3-4.9s4.6 1 8.3 3.1c7.9 4.2 12.1 4.6 15.5 1.2 3.3-3.3 4.5-8.6 4.5-19.6s-1.2-16.3-4.5-19.6c-3.4-3.4-7.6-3.1-15.2 1.1-6.6 3.6-8.8 4.2-9.8 2.5-1.4-2.3-2.4-19.3-1.7-29.5l.7-11 9-.6c9.2-.6 22.3-.3 28.3.8"/><path fill="#fff" d="M278.8 123.7c1.9.3 3.6 1.2 3.9 2s-1.1 4.6-3.1 8.5c-4.2 8.2-4.5 12-1.2 15.3S287 154 298 154s16.3-1.2 19.6-4.5c3.4-3.4 3.1-7.6-1.1-15.2-3.6-6.6-4.2-8.8-2.5-9.8 2.2-1.4 17.3-2.3 28.3-1.8l11.7.6v112.30000000000001h-17.2c-18.4-.1-24.3.9-27.9 4.5-2.6 2.6-1.9 6 2.7 14.4 1.9 3.4 3.4 6.9 3.4 7.8 0 2.6-3.7 3.9-12.5 4.5-10.2.6-16.7-.3-19.7-2.8l-2.3-1.9 4.4-8.5c5.4-10.6 5.1-12.8-1.7-15.9-4.3-2-6.3-2.2-22.7-2.2l-18 .1v-18.1c0-16.4-.2-18.4-2.2-22.7-3.1-6.8-5.3-7.1-15.7-1.7-9.5 4.8-10.7 4.6-12.6-2-1.3-4.6-1.3-17.6 0-22.2 1.9-6.6 3.1-6.8 12.6-2 10.5 5.3 12.6 5.1 15.7-1.7 2-4.3 2.2-6.3 2.2-23.4l-.1-18.7 8.6-.4c9.2-.4 22.5 0 27.8 1M191.1 212c6.6 1.9 6.8 3.1 2 12.6-5.4 10.4-5.1 12.6 1.7 15.7 4.3 2 6.3 2.2 22.7 2.2h18.1l-.1 18c0 16.4.2 18.4 2.2 22.7 3.1 6.8 5.3 7.1 15.9 1.7l8.5-4.4 1.9 2.3c2.5 3 3.4 9.5 2.8 19.7-.6 8.8-1.9 12.5-4.5 12.5-.9 0-4.4-1.5-7.8-3.4-8.4-4.6-11.8-5.3-14.4-2.7-3.6 3.6-4.6 9.5-4.5 27.8V354H124.4v-17.3c.1-18.3-.9-24.2-4.5-27.8-2.6-2.6-6-1.9-14.4 2.7-3.4 1.9-6.9 3.4-7.8 3.4-2.6 0-3.9-3.7-4.5-12.5-.6-10.2.3-16.7 2.8-19.7l1.9-2.3 8.5 4.4c10.6 5.4 12.8 5.1 15.9-1.7 2-4.3 2.2-6.4 2.1-22.7v-18h18.1c16.4 0 18.4-.2 22.7-2.2 6.8-3.1 7-5.2 1.7-15.7-4.8-9.4-4.6-10.8 1.5-12.5 4.3-1.3 18.3-1.3 22.7-.1"/><path fill="#fff" d="M43.8 242.1c1.7.6 3.2 1.7 3.2 2.4 0 .8-1.6 4.3-3.5 7.8-7.7 14-2.4 19.7 18.5 19.7 11 0 16.3-1.2 19.6-4.5s3-7.1-1.2-15c-1.9-3.7-3.4-7.4-3.2-8.3s1.7-1.9 3.3-2.4c3.9-1.1 36.6-1.1 37.7 0 .5.5.9 8.3.9 17.4.1 17-.9 23.8-3.7 23.8-.7 0-4.3-1.6-8-3.5-7.8-4.1-11.6-4.4-14.9-1.1S88 287 88 298s1.2 16.3 4.5 19.6c3.4 3.4 7.6 3.1 15.2-1.1 3.5-1.9 7-3.5 7.8-3.5 2.9 0 4 8.7 3.6 31.2l-.1 9.8H6V241.1l10.3-.3c13.5-.4 23.4.1 27.5 1.3M277.8 241.6c2.6.3 4.6 1.2 4.9 2.1.3.8-1.1 4.7-3.1 8.6-4.2 8.4-4.5 11.9-1.2 15.2S287 272 298 272s16.3-1.2 19.6-4.5c3.4-3.4 3.1-7.6-1.1-15.2-1.9-3.5-3.5-7-3.5-7.8 0-3 7.6-3.9 30.8-3.6l10.2.1v113H241l-.2-9.8c-.3-21.9.8-31.2 3.7-31.2.8 0 4.3 1.6 7.8 3.5 14 7.7 19.7 2.4 19.7-18.5 0-11-1.2-16.3-4.5-19.6s-7.1-3-15 1.2c-3.7 1.9-7.4 3.4-8.3 3.2s-1.9-1.7-2.4-3.3c-1.1-3.8-1.1-36.6-.1-37.6 1.5-1.5 25.2-1.6 36.1-.3"/><path d="M128 143.5c0 8.5.2 15.5.5 15.5s2.9-1.2 5.8-2.7c10.1-5.1 17-3.1 21.7 6.3 2.3 4.4 2.5 6.1 2.5 17.4s-.2 13-2.5 17.4c-4.8 9.5-12 11.5-22.1 6.2-2.9-1.4-5.3-2.5-5.4-2.4-.4.5-.9 19.8-.7 25.5l.2 5.3h15.5c8.5 0 15.5-.2 15.5-.5s-1.2-2.9-2.7-5.8c-3.8-7.4-3.7-13.6.1-17.6 4.9-5.1 10.4-6.6 24.1-6.6 10.8 0 12.5.2 16.9 2.5 9.5 4.8 11.5 12 6.3 22.1-1.5 2.8-2.7 5.3-2.7 5.5s7 .4 15.5.4H232v-15.5c0-8.5-.2-15.5-.4-15.5s-2.8 1.2-5.7 2.7c-10.3 5.1-17.1 3.2-21.9-6.3-2.3-4.4-2.5-6.1-2.5-17.4s.2-13 2.5-17.4c4.8-9.5 11.6-11.4 21.9-6.3 2.9 1.5 5.5 2.7 5.7 2.7s.4-7 .4-15.5V128h-15.5c-8.5 0-15.5.2-15.5.4s1.2 2.7 2.7 5.5c5.2 10.1 3.2 17.3-6.3 22.1-4.4 2.3-6.1 2.5-17.4 2.5s-13-.2-17.4-2.5c-9.4-4.7-11.4-11.6-6.3-21.7 1.5-2.9 2.7-5.5 2.7-5.8s-7-.5-15.5-.5H128z"/></svg>
