<svg width="116.045" height="90.755" viewBox="0 0 116.045 90.755" xmlns="http://www.w3.org/2000/svg"><path d="M12.235 0c0 6.757-5.478 12.235-12.235 12.235S-12.235 6.757-12.235 0-6.757-12.235 0-12.235 12.235-6.757 12.235 0z" style="fill:#fff;fill-opacity:1;fill-rule:nonzero;stroke:none" transform="matrix(1.33333 0 0 -1.33333 66.23 16.981)"/><path d="M11.473-3.057H9.692V0H6.645v-3.058H.352v-2.168l6.469-9.528h2.87v9.282h1.782ZM6.645-5.471V-7.98c0-.413.015-1.014.047-1.805.038-.797.064-1.26.082-1.394h-.07c-.252.556-.551 1.095-.903 1.617l-2.707 4.09zm0 0" style="fill:#000;fill-opacity:1;fill-rule:nonzero;stroke:none" aria-label="4" transform="matrix(1.33333 0 0 1.33333 58.367 26.815)"/><path d="M-24.551-42.52c0 6.799-5.512 12.31-12.311 12.31-6.8 0-12.311-5.511-12.311-12.31 0-6.8 5.512-12.311 12.31-12.311 6.8 0 12.312 5.512 12.312 12.31z" style="fill:#fff;fill-opacity:1;fill-rule:nonzero;stroke:none" transform="matrix(1.33333 0 0 -1.33333 66.23 16.981)"/><path d="M11.133 0H.833v-2.168l3.702-3.738C5.628-7.03 6.343-7.807 6.68-8.238c.334-.436.577-.838.726-1.207.147-.375.223-.762.223-1.16 0-.586-.164-1.023-.492-1.313-.328-.296-.762-.445-1.301-.445-.58 0-1.137.135-1.676.398-.533.267-1.09.642-1.676 1.125L.785-12.855c.727-.615 1.327-1.049 1.805-1.3a6.617 6.617 0 0 1 1.559-.599 7.977 7.977 0 0 1 1.91-.21c.914 0 1.722.17 2.425.503.71.337 1.26.809 1.653 1.418.39.604.586 1.295.586 2.075 0 .68-.123 1.32-.364 1.921-.234.595-.603 1.205-1.101 1.829-.501.627-1.383 1.517-2.649 2.671L4.711-2.765v.14h6.422zm0 0" style="fill:#000;fill-opacity:1;fill-rule:nonzero;stroke:none" aria-label="2" transform="matrix(1.33333 0 0 1.33333 9.219 83.648)"/><path d="m-8.537-9.847-19.74-22.77" style="fill:none;stroke:#fff;stroke-width:5.18068;stroke-linecap:butt;stroke-linejoin:miter;stroke-miterlimit:10;stroke-dasharray:none;stroke-opacity:1" transform="matrix(1.33333 0 0 -1.33333 66.23 16.981)"/><path d="m-8.537-9.847-19.74-22.77" style="fill:none;stroke:#000;stroke-width:1.99252;stroke-linecap:butt;stroke-linejoin:miter;stroke-miterlimit:10;stroke-dasharray:none;stroke-opacity:1" transform="matrix(1.33333 0 0 -1.33333 66.23 16.981)"/></svg>