<svg width="140.215" height="98.52" viewBox="0 0 140.215 98.52" xmlns="http://www.w3.org/2000/svg"><path d="M14.114 0c0 7.795-6.319 14.114-14.114 14.114-7.795 0-14.114-6.319-14.114-14.114 0-7.795 6.319-14.114 14.114-14.114 7.795 0 14.114 6.319 14.114 14.114z" style="fill:#fff;fill-opacity:1;fill-rule:nonzero;stroke:none" transform="matrix(1.33333 0 0 -1.33333 68.723 19.485)"/><path d="M11.472-3.057H9.691V0H6.644v-3.058H.351v-2.168l6.469-9.528h2.87v9.282h1.782ZM6.644-5.471V-7.98c0-.413.015-1.014.047-1.805.038-.797.064-1.26.082-1.394h-.07c-.252.556-.551 1.095-.903 1.617l-2.707 4.09zm0 0" style="fill:#000;fill-opacity:1;fill-rule:nonzero;stroke:none" aria-label="4" transform="matrix(1.33333 0 0 1.33333 60.86 29.319)"/><path d="M-22.682-42.52c0 7.832-6.348 14.18-14.18 14.18s-14.18-6.348-14.18-14.18 6.348-14.18 14.18-14.18 14.18 6.348 14.18 14.18z" style="fill:#fff;fill-opacity:1;fill-rule:nonzero;stroke:none" transform="matrix(1.33333 0 0 -1.33333 68.723 19.485)"/><path d="M11.133 0H.833v-2.168l3.702-3.738C5.628-7.031 6.343-7.807 6.68-8.238c.334-.437.577-.838.726-1.207.147-.375.223-.762.223-1.16 0-.586-.164-1.023-.492-1.313-.328-.296-.762-.445-1.3-.445-.58 0-1.138.135-1.677.398-.533.267-1.09.642-1.675 1.125l-1.7-2.015c.727-.615 1.328-1.049 1.805-1.301a6.617 6.617 0 0 1 1.559-.598 7.977 7.977 0 0 1 1.91-.21c.914 0 1.722.17 2.426.503.709.337 1.26.809 1.652 1.418.39.604.586 1.295.586 2.075 0 .68-.123 1.32-.363 1.921-.235.595-.604 1.204-1.102 1.829-.501.626-1.383 1.517-2.648 2.671L4.71-2.765v.14h6.422zm0 0" style="fill:#000;fill-opacity:1;fill-rule:nonzero;stroke:none" aria-label="2" transform="matrix(1.33333 0 0 1.33333 11.71 86.152)"/><path d="m-9.767-11.266-17.284-19.938" style="fill:none;stroke:#fff;stroke-width:5.18068;stroke-linecap:butt;stroke-linejoin:miter;stroke-miterlimit:10;stroke-dasharray:none;stroke-opacity:1" transform="matrix(1.33333 0 0 -1.33333 68.723 19.485)"/><path d="m-9.767-11.266-17.284-19.938" style="fill:none;stroke:#000;stroke-width:1.99252;stroke-linecap:butt;stroke-linejoin:miter;stroke-miterlimit:10;stroke-dasharray:none;stroke-opacity:1" transform="matrix(1.33333 0 0 -1.33333 68.723 19.485)"/><path d="M53.12-42.52c0 8.978-7.28 16.257-16.258 16.257-8.978 0-16.257-7.279-16.257-16.257 0-8.979 7.279-16.257 16.257-16.257 8.979 0 16.257 7.278 16.257 16.257z" style="fill:#fff;fill-opacity:1;fill-rule:nonzero;stroke:none" transform="matrix(1.33333 0 0 -1.33333 68.723 19.485)"/><path d="M0 0h12.274v2.066H0Z" style="fill:#000;fill-opacity:1;fill-rule:nonzero;stroke:none" transform="matrix(1.33333 0 0 -1.33333 109.69 89.7)"/><path d="M.725-6.27c0-2.912.616-5.08 1.852-6.503 1.233-1.43 3.082-2.145 5.543-2.145.844 0 1.503.053 1.98.152v2.485a8.32 8.32 0 0 0-1.78-.2c-1.073 0-1.946.165-2.626.493-.674.322-1.178.797-1.512 1.43-.336.632-.536 1.532-.597 2.695h.14c.663-1.149 1.729-1.723 3.2-1.723 1.312 0 2.338.416 3.082 1.242.75.83 1.125 1.975 1.125 3.434 0 1.57-.446 2.818-1.336 3.738C8.91-.258 7.686.2 6.116.2 5.02.2 4.068-.05 3.256-.55c-.805-.507-1.429-1.245-1.874-2.215C.942-3.732.725-4.9.725-6.269Zm5.332 3.985c.663 0 1.172-.223 1.524-.668.357-.451.539-1.093.539-1.922 0-.718-.17-1.283-.504-1.7-.328-.412-.83-.62-1.5-.62-.633 0-1.178.208-1.629.62-.445.408-.668.886-.668 1.43 0 .797.211 1.474.633 2.028.422.557.955.832 1.605.832zm0 0" style="fill:#000;fill-opacity:1;fill-rule:nonzero;stroke:none" aria-label="6" transform="matrix(1.33333 0 0 1.33333 110.01 82.55)"/><path d="m9.767-11.266 15.924-18.369" style="fill:none;stroke:#fff;stroke-width:5.18068;stroke-linecap:butt;stroke-linejoin:miter;stroke-miterlimit:10;stroke-dasharray:none;stroke-opacity:1" transform="matrix(1.33333 0 0 -1.33333 68.723 19.485)"/><path d="m9.767-11.266 15.924-18.369" style="fill:none;stroke:#000;stroke-width:1.99252;stroke-linecap:butt;stroke-linejoin:miter;stroke-miterlimit:10;stroke-dasharray:none;stroke-opacity:1" transform="matrix(1.33333 0 0 -1.33333 68.723 19.485)"/></svg>