<svg width="121.339" height="98.552" viewBox="0 0 121.339 98.552" xmlns="http://www.w3.org/2000/svg"><path d="M14.114 0c0 7.795-6.319 14.114-14.114 14.114-7.795 0-14.114-6.319-14.114-14.114 0-7.795 6.319-14.114 14.114-14.114 7.795 0 14.114 6.319 14.114 14.114z" style="fill:#fff;fill-opacity:1;fill-rule:nonzero;stroke:none" transform="matrix(1.33333 0 0 -1.33333 71.524 19.484)"/><path d="M11.472-3.06H9.69V0H6.644v-3.06H.35v-2.167l6.468-9.528h2.872v9.282h1.78ZM6.644-5.472v-2.508c0-.413.014-1.014.047-1.805.038-.797.064-1.26.082-1.394h-.07c-.253.556-.552 1.095-.903 1.617l-2.707 4.09zm0 0" style="fill:#000;fill-opacity:1;fill-rule:nonzero;stroke:none" aria-label="4" transform="matrix(1.33333 0 0 1.33333 63.661 29.317)"/><path d="M-20.581-42.52c0 8.992-7.29 16.281-16.281 16.281-8.992 0-16.281-7.29-16.281-16.281 0-8.992 7.289-16.281 16.28-16.281 8.993 0 16.282 7.289 16.282 16.28z" style="fill:#fff;fill-opacity:1;fill-rule:nonzero;stroke:none" transform="matrix(1.33333 0 0 -1.33333 71.524 19.484)"/><path d="M0 0h12.274v2.066H0Z" style="fill:#000;fill-opacity:1;fill-rule:nonzero;stroke:none" transform="matrix(1.33333 0 0 -1.33333 14.192 89.727)"/><path d="M11.133 0H.832v-2.167l3.703-3.739C5.628-7.03 6.343-7.807 6.679-8.238c.334-.436.578-.838.727-1.207.147-.375.223-.761.223-1.16 0-.586-.164-1.022-.492-1.312-.329-.296-.762-.446-1.301-.446-.58 0-1.137.135-1.676.399-.533.266-1.09.641-1.676 1.125l-1.7-2.016c.728-.615 1.328-1.049 1.806-1.3a6.617 6.617 0 0 1 1.558-.598 7.977 7.977 0 0 1 1.91-.211c.914 0 1.723.17 2.426.504.71.337 1.26.808 1.653 1.418.39.603.585 1.295.585 2.074 0 .68-.123 1.321-.363 1.922-.234.594-.603 1.204-1.101 1.828-.501.627-1.383 1.517-2.649 2.672L4.711-2.765v.14h6.422zm0 0" style="fill:#000;fill-opacity:1;fill-rule:nonzero;stroke:none" aria-label="2" transform="matrix(1.33333 0 0 1.33333 14.512 82.577)"/><path d="m-9.767-11.266-15.908-18.35" style="fill:none;stroke:#fff;stroke-width:5.18068;stroke-linecap:butt;stroke-linejoin:miter;stroke-miterlimit:10;stroke-dasharray:none;stroke-opacity:1" transform="matrix(1.33333 0 0 -1.33333 71.524 19.484)"/><path d="m-9.767-11.266-15.908-18.35" style="fill:none;stroke:#000;stroke-width:1.99252;stroke-linecap:butt;stroke-linejoin:miter;stroke-miterlimit:10;stroke-dasharray:none;stroke-opacity:1" transform="matrix(1.33333 0 0 -1.33333 71.524 19.484)"/></svg>