<svg width="197.356" height="155.177" viewBox="0 0 197.356 155.177" xmlns="http://www.w3.org/2000/svg"><path d="M14.114 0c0 7.795-6.319 14.114-14.114 14.114-7.795 0-14.114-6.319-14.114-14.114 0-7.795 6.319-14.114 14.114-14.114 7.795 0 14.114 6.319 14.114 14.114z" style="fill:#fff;fill-opacity:1;fill-rule:nonzero;stroke:none" transform="matrix(1.33333 0 0 -1.33333 98.687 19.485)"/><path d="M11.473-3.057H9.692V0H6.645v-3.058H.352v-2.168l6.468-9.528h2.872v9.282h1.78ZM6.645-5.471V-7.98c0-.413.014-1.014.047-1.805.038-.797.064-1.26.082-1.394h-.07c-.253.556-.551 1.095-.903 1.617l-2.707 4.09zm0 0" style="fill:#000;fill-opacity:1;fill-rule:nonzero;stroke:none" aria-label="4" transform="matrix(1.33333 0 0 1.33333 90.824 29.319)"/><path d="M-22.682-42.52c0 7.832-6.348 14.18-14.18 14.18s-14.18-6.348-14.18-14.18 6.348-14.18 14.18-14.18 14.18 6.348 14.18 14.18z" style="fill:#fff;fill-opacity:1;fill-rule:nonzero;stroke:none" transform="matrix(1.33333 0 0 -1.33333 98.687 19.485)"/><path d="M11.134 0H.833V-2.17l3.703-3.738c1.093-1.125 1.808-1.901 2.145-2.332.334-.437.577-.838.726-1.207.147-.375.223-.762.223-1.16 0-.586-.164-1.023-.492-1.313-.329-.296-.762-.445-1.301-.445-.58 0-1.137.135-1.676.398-.533.267-1.09.642-1.676 1.125L.786-12.856c.727-.615 1.327-1.049 1.805-1.301a6.617 6.617 0 0 1 1.558-.598 7.977 7.977 0 0 1 1.91-.21c.914 0 1.723.17 2.426.503.71.337 1.26.809 1.653 1.418.39.604.585 1.295.585 2.075 0 .68-.123 1.32-.363 1.921-.234.595-.603 1.204-1.101 1.829-.501.626-1.383 1.517-2.649 2.671L4.712-2.766v.14h6.422zm0 0" style="fill:#000;fill-opacity:1;fill-rule:nonzero;stroke:none" aria-label="2" transform="matrix(1.33333 0 0 1.33333 41.675 86.153)"/><path d="m-9.767-11.266-17.284-19.938" style="fill:none;stroke:#fff;stroke-width:5.18068;stroke-linecap:butt;stroke-linejoin:miter;stroke-miterlimit:10;stroke-dasharray:none;stroke-opacity:1" transform="matrix(1.33333 0 0 -1.33333 98.687 19.485)"/><path d="m-9.767-11.266-17.284-19.938" style="fill:none;stroke:#000;stroke-width:1.99252;stroke-linecap:butt;stroke-linejoin:miter;stroke-miterlimit:10;stroke-dasharray:none;stroke-opacity:1" transform="matrix(1.33333 0 0 -1.33333 98.687 19.485)"/><path d="M-41.056-85.04c0 8.963-7.266 16.23-16.23 16.23s-16.23-7.267-16.23-16.23c0-8.964 7.266-16.23 16.23-16.23s16.23 7.266 16.23 16.23z" style="fill:#fff;fill-opacity:1;fill-rule:nonzero;stroke:none" transform="matrix(1.33333 0 0 -1.33333 98.687 19.485)"/><path d="M0 0h12.274v2.066H0Z" style="fill:#000;fill-opacity:1;fill-rule:nonzero;stroke:none" transform="matrix(1.33333 0 0 -1.33333 14.124 146.28)"/><path d="M8.532 0H5.415v-8.532l.035-1.406.047-1.535c-.516.524-.876.864-1.078 1.02l-1.7 1.359-1.5-1.875 4.759-3.785h2.554zm0 0" style="fill:#000;fill-opacity:1;fill-rule:nonzero;stroke:none" aria-label="1" transform="matrix(1.33333 0 0 1.33333 14.444 139.13)"/><path d="m-43.347-56.02-6.567-13.673" style="fill:none;stroke:#fff;stroke-width:5.18068;stroke-linecap:butt;stroke-linejoin:miter;stroke-miterlimit:10;stroke-dasharray:none;stroke-opacity:1" transform="matrix(1.33333 0 0 -1.33333 98.687 19.485)"/><path d="m-43.347-56.02-6.567-13.673" style="fill:none;stroke:#000;stroke-width:1.99252;stroke-linecap:butt;stroke-linejoin:miter;stroke-miterlimit:10;stroke-dasharray:none;stroke-opacity:1" transform="matrix(1.33333 0 0 -1.33333 98.687 19.485)"/><path d="M-2.199-85.04c0 7.864-6.375 14.24-14.24 14.24-7.864 0-14.24-6.376-14.24-14.24 0-7.865 6.376-14.24 14.24-14.24 7.865 0 14.24 6.375 14.24 14.24z" style="fill:#fff;fill-opacity:1;fill-rule:nonzero;stroke:none" transform="matrix(1.33333 0 0 -1.33333 98.687 19.485)"/><path d="M10.56-11.45c0 .923-.282 1.708-.844 2.355-.557.642-1.336 1.084-2.344 1.325v.058c1.195.15 2.097.513 2.707 1.09.61.571.914 1.345.914 2.32 0 1.424-.516 2.529-1.547 3.317C8.421-.195 6.953.198 5.04.198 3.446.198 2.028-.065.786-.598v-2.649a9.26 9.26 0 0 0 1.887.703 7.93 7.93 0 0 0 2.039.27c1.03 0 1.787-.17 2.273-.516.492-.351.738-.914.738-1.687 0-.695-.28-1.187-.843-1.477-.563-.287-1.465-.434-2.707-.434H3.059v-2.39h1.137c1.14 0 1.975-.147 2.508-.445.53-.305.797-.82.797-1.547 0-1.108-.7-1.664-2.098-1.664-.486 0-.981.082-1.488.246-.501.158-1.055.433-1.664.832L.809-13.513c1.342-.966 2.945-1.453 4.805-1.453 1.53 0 2.736.314 3.621.938.882.618 1.324 1.476 1.324 2.578zm0 0" style="fill:#000;fill-opacity:1;fill-rule:nonzero;stroke:none" aria-label="3" transform="matrix(1.33333 0 0 1.33333 68.905 142.712)"/><path d="m-30.378-56.02 7.43-15.467" style="fill:none;stroke:#fff;stroke-width:5.18068;stroke-linecap:butt;stroke-linejoin:miter;stroke-miterlimit:10;stroke-dasharray:none;stroke-opacity:1" transform="matrix(1.33333 0 0 -1.33333 98.687 19.485)"/><path d="m-30.378-56.02 7.43-15.467" style="fill:none;stroke:#000;stroke-width:1.99252;stroke-linecap:butt;stroke-linejoin:miter;stroke-miterlimit:10;stroke-dasharray:none;stroke-opacity:1" transform="matrix(1.33333 0 0 -1.33333 98.687 19.485)"/><path d="M51.076-42.52c0 7.85-6.364 14.214-14.214 14.214-7.85 0-14.214-6.364-14.214-14.214 0-7.85 6.364-14.214 14.214-14.214 7.85 0 14.214 6.364 14.214 14.214z" style="fill:#fff;fill-opacity:1;fill-rule:nonzero;stroke:none" transform="matrix(1.33333 0 0 -1.33333 98.687 19.485)"/><path d="M.727-6.27c0-2.912.615-5.08 1.852-6.503 1.233-1.43 3.082-2.145 5.543-2.145.843 0 1.503.053 1.98.153v2.484a8.32 8.32 0 0 0-1.781-.2c-1.072 0-1.946.165-2.625.493-.674.322-1.178.797-1.512 1.43-.337.632-.536 1.532-.598 2.695h.141c.662-1.149 1.729-1.723 3.2-1.723 1.312 0 2.337.416 3.081 1.242.75.83 1.125 1.975 1.125 3.434 0 1.57-.445 2.818-1.336 3.738C8.913-.258 7.688.2 6.117.2 5.023.2 4.07-.05 3.259-.55c-.805-.506-1.43-1.245-1.875-2.214C.943-3.732.727-4.901.727-6.27ZM6.06-2.284c.662 0 1.172-.223 1.524-.668.357-.451.539-1.093.539-1.922 0-.718-.17-1.283-.504-1.7-.328-.412-.83-.62-1.5-.62-.633 0-1.178.208-1.63.62-.445.408-.667.886-.667 1.43 0 .797.21 1.474.633 2.028.421.557.955.832 1.605.832zm0 0" style="fill:#000;fill-opacity:1;fill-rule:nonzero;stroke:none" aria-label="6" transform="matrix(1.33333 0 0 1.33333 139.972 85.992)"/><path d="M9.767-11.266 27.03-31.18" style="fill:none;stroke:#fff;stroke-width:5.18068;stroke-linecap:butt;stroke-linejoin:miter;stroke-miterlimit:10;stroke-dasharray:none;stroke-opacity:1" transform="matrix(1.33333 0 0 -1.33333 98.687 19.485)"/><path d="M9.767-11.266 27.03-31.18" style="fill:none;stroke:#000;stroke-width:1.99252;stroke-linecap:butt;stroke-linejoin:miter;stroke-miterlimit:10;stroke-dasharray:none;stroke-opacity:1" transform="matrix(1.33333 0 0 -1.33333 98.687 19.485)"/><path d="M32.668-85.04c0 8.963-7.266 16.23-16.23 16.23-8.963 0-16.23-7.267-16.23-16.23 0-8.964 7.267-16.23 16.23-16.23 8.964 0 16.23 7.266 16.23 16.23z" style="fill:#fff;fill-opacity:1;fill-rule:nonzero;stroke:none" transform="matrix(1.33333 0 0 -1.33333 98.687 19.485)"/><path d="M0 0h12.274v2.066H0Z" style="fill:#000;fill-opacity:1;fill-rule:nonzero;stroke:none" transform="matrix(1.33333 0 0 -1.33333 112.421 146.28)"/><path d="M6.2-9.422c1.42 0 2.555.404 3.398 1.207.844.797 1.266 1.892 1.266 3.281 0 1.65-.51 2.918-1.524 3.809C8.324-.241 6.87.199 4.981.199c-1.64 0-2.965-.264-3.973-.797v-2.695c.53.29 1.149.524 1.852.703a8.527 8.527 0 0 0 2.016.258c1.898 0 2.847-.78 2.847-2.344 0-1.483-.984-2.227-2.953-2.227-.351 0-.747.035-1.183.106-.431.07-.78.15-1.043.234L1.3-7.23l.551-7.523h8.004v2.648H4.594l-.28 2.895.362-.07c.405-.094.914-.141 1.524-.141zm0 0" style="fill:#000;fill-opacity:1;fill-rule:nonzero;stroke:none" aria-label="5" transform="matrix(1.33333 0 0 1.33333 112.741 139.13)"/><path d="M30.363-56.05 23.81-69.693" style="fill:none;stroke:#fff;stroke-width:5.18068;stroke-linecap:butt;stroke-linejoin:miter;stroke-miterlimit:10;stroke-dasharray:none;stroke-opacity:1" transform="matrix(1.33333 0 0 -1.33333 98.687 19.485)"/><path d="M30.363-56.05 23.81-69.693" style="fill:none;stroke:#000;stroke-width:1.99252;stroke-linecap:butt;stroke-linejoin:miter;stroke-miterlimit:10;stroke-dasharray:none;stroke-opacity:1" transform="matrix(1.33333 0 0 -1.33333 98.687 19.485)"/><path d="M73.503-85.04c0 8.956-7.26 16.217-16.217 16.217-8.957 0-16.218-7.26-16.218-16.217 0-8.957 7.261-16.218 16.218-16.218s16.217 7.26 16.217 16.218z" style="fill:#fff;fill-opacity:1;fill-rule:nonzero;stroke:none" transform="matrix(1.33333 0 0 -1.33333 98.687 19.485)"/><path d="M0 0h12.274v2.066H0Z" style="fill:#000;fill-opacity:1;fill-rule:nonzero;stroke:none" transform="matrix(1.33333 0 0 -1.33333 166.884 146.267)"/><path d="m2.284 0 5.543-12.105H.55v-2.625h10.582v1.957L5.554.001Zm0 0" style="fill:#000;fill-opacity:1;fill-rule:nonzero;stroke:none" aria-label="7" transform="matrix(1.33333 0 0 1.33333 167.204 139.116)"/><path d="m43.36-56.05 6.56-13.654" style="fill:none;stroke:#fff;stroke-width:5.18068;stroke-linecap:butt;stroke-linejoin:miter;stroke-miterlimit:10;stroke-dasharray:none;stroke-opacity:1" transform="matrix(1.33333 0 0 -1.33333 98.687 19.485)"/><path d="m43.36-56.05 6.56-13.654" style="fill:none;stroke:#000;stroke-width:1.99252;stroke-linecap:butt;stroke-linejoin:miter;stroke-miterlimit:10;stroke-dasharray:none;stroke-opacity:1" transform="matrix(1.33333 0 0 -1.33333 98.687 19.485)"/></svg>