<svg xmlns="http://www.w3.org/2000/svg" xmlns:xlink="http://www.w3.org/1999/xlink" width="172.561" height="136.555" viewBox="0 0 129.421 102.416"><defs><symbol overflow="visible" id="a"><path style="stroke:none" d="M5.516-1.656H4.437V0h-.78v-1.656H.218v-.672l3.39-4.828h.829v4.781h1.078Zm-1.86-.719v-2.812c.008-.145.016-.282.016-.407.008-.125.015-.242.015-.36.008-.112.016-.222.016-.327h-.031a8.926 8.926 0 0 1-.453.797L1.016-2.375Zm0 0"/></symbol><symbol overflow="visible" id="b"><path style="stroke:none" d="M5.156 0H.484v-.672l1.907-1.937c.351-.352.648-.672.89-.954.25-.28.438-.554.563-.828.125-.27.187-.566.187-.89 0-.407-.12-.711-.36-.922-.241-.207-.554-.313-.937-.313-.343 0-.648.059-.906.172a3.98 3.98 0 0 0-.812.5L.578-6.39a3.618 3.618 0 0 1 1.328-.719c.258-.07.535-.109.828-.109.438 0 .813.078 1.125.235.32.148.567.359.735.64.176.282.265.621.265 1.016 0 .375-.074.726-.218 1.047a4.278 4.278 0 0 1-.625.968c-.274.313-.59.649-.954 1L1.516-.78v.047h3.64Zm0 0"/></symbol><symbol overflow="visible" id="d"><path style="stroke:none" d="M3.5 0h-.781V-5.921c.008-.114.02-.227.031-.345A2.87 2.87 0 0 1 2.453-6c-.086.074-.187.164-.312.266l-.813.656-.422-.547 1.922-1.484H3.5Zm0 0"/></symbol><symbol overflow="visible" id="e"><path style="stroke:none" d="M4.89-5.453c0 .312-.062.59-.187.828-.125.23-.297.422-.516.578-.218.149-.48.246-.78.297v.047c.57.062 1 .246 1.28.547.282.293.422.672.422 1.14 0 .418-.101.79-.296 1.11-.188.312-.481.558-.875.734-.399.176-.907.266-1.532.266C2.031.094 1.68.062 1.36 0a3.047 3.047 0 0 1-.906-.297v-.75c.29.149.61.262.953.344.352.086.692.125 1.016.125.644 0 1.113-.129 1.406-.39.29-.259.438-.614.438-1.063 0-.313-.086-.563-.25-.75-.157-.188-.387-.32-.688-.406a3.683 3.683 0 0 0-1.078-.141h-.719v-.688h.719c.383 0 .71-.054.984-.171.27-.114.473-.274.61-.485.144-.207.219-.453.219-.734 0-.352-.122-.63-.36-.828-.242-.196-.57-.297-.984-.297-.25 0-.48.027-.688.078a3.557 3.557 0 0 0-1.125.531l-.422-.562c.258-.196.579-.368.954-.516.375-.145.8-.219 1.28-.219.72 0 1.259.168 1.626.5.363.336.547.758.547 1.266Zm0 0"/></symbol><symbol overflow="visible" id="f"><path style="stroke:none" d="M.563-3.047c0-.426.03-.844.093-1.25s.16-.785.297-1.14c.145-.352.336-.66.578-.922.25-.27.555-.477.922-.625.375-.157.82-.235 1.344-.235.144 0 .3.012.469.032.164.011.304.03.421.062v.688a1.886 1.886 0 0 0-.421-.079 3.438 3.438 0 0 0-.454-.03c-.605 0-1.085.132-1.437.39a2.224 2.224 0 0 0-.75 1.062c-.148.45-.23.953-.25 1.516h.047c.101-.156.234-.297.39-.422.157-.133.344-.238.563-.313.227-.082.488-.125.781-.125.414 0 .774.086 1.078.25.313.168.551.415.72.735.175.324.265.715.265 1.172 0 .492-.094.914-.282 1.265-.18.356-.433.633-.765.829-.336.187-.734.28-1.203.28-.344 0-.664-.062-.953-.187a2.15 2.15 0 0 1-.766-.594 3.016 3.016 0 0 1-.516-.984C.617-2.066.563-2.523.563-3.047Zm2.39 2.469c.445 0 .8-.14 1.063-.422.27-.29.406-.719.406-1.281 0-.469-.121-.836-.36-1.11C3.82-3.67 3.47-3.812 3-3.812c-.336 0-.621.07-.86.203-.242.136-.43.308-.562.515-.125.2-.187.406-.187.625 0 .211.03.43.093.656.063.22.157.422.282.61.132.187.3.34.5.453.195.117.425.172.687.172Zm0 0"/></symbol><symbol overflow="visible" id="h"><path style="stroke:none" d="M2.734-4.36c.489 0 .91.087 1.266.25.352.169.629.407.828.72.195.312.297.687.297 1.124 0 .493-.105.914-.313 1.266a2.04 2.04 0 0 1-.906.813c-.398.187-.87.28-1.422.28-.375 0-.726-.03-1.046-.093A2.369 2.369 0 0 1 .64-.297v-.766c.238.149.523.262.859.344.344.086.672.125.984.125a2.4 2.4 0 0 0 .954-.172c.269-.113.476-.285.624-.515.157-.239.235-.54.235-.907 0-.468-.149-.832-.438-1.093-.293-.258-.75-.39-1.375-.39-.199 0-.421.023-.671.062a7.206 7.206 0 0 0-.579.093L.813-3.78l.28-3.328h3.532v.734H1.781l-.187 2.14.484-.077c.195-.032.414-.047.656-.047Zm0 0"/></symbol><symbol overflow="visible" id="j"><path style="stroke:none" d="m1.406 0 2.922-6.375H.453v-.734h4.75v.609L2.297 0Zm0 0"/></symbol><clipPath id="c"><path d="M0 77h25v25.414H0Zm0 0"/></clipPath><clipPath id="g"><path d="M64 77h31v25.414H64Zm0 0"/></clipPath><clipPath id="i"><path d="M104 77h25.422v25.414H104Zm0 0"/></clipPath></defs><use xlink:href="#a" x="61.862" y="10.971" style="fill:#000;fill-opacity:1"/><use xlink:href="#b" x="26.993" y="53.522" style="fill:#000;fill-opacity:1"/><path style="fill:none;stroke-width:.3985;stroke-linecap:butt;stroke-linejoin:miter;stroke:#000;stroke-opacity:1;stroke-miterlimit:10" d="m-5.815-7.096-23.211-28.297" transform="matrix(1 0 0 -1 64.71 7.396)"/><g clip-path="url(#c)"><path style="fill:none;stroke-width:.3985;stroke-linecap:butt;stroke-linejoin:miter;stroke:#000;stroke-opacity:1;stroke-miterlimit:10" d="M-45.577-85.041c0 5.09-4.13 9.218-9.219 9.218-5.09 0-9.215-4.129-9.215-9.219a9.214 9.214 0 0 1 9.215-9.214c5.09 0 9.219 4.125 9.219 9.215Zm0 0" transform="matrix(1 0 0 -1 64.71 7.396)"/></g><use xlink:href="#d" x="7.068" y="95.991" style="fill:#000;fill-opacity:1"/><path style="fill:none;stroke-width:.3985;stroke-linecap:butt;stroke-linejoin:miter;stroke:#000;stroke-opacity:1;stroke-miterlimit:10" d="M-38.21-49.647-50.8-76.514" transform="matrix(1 0 0 -1 64.71 7.396)"/><use xlink:href="#e" x="46.918" y="95.993" style="fill:#000;fill-opacity:1"/><path style="fill:none;stroke-width:.3985;stroke-linecap:butt;stroke-linejoin:miter;stroke:#000;stroke-opacity:1;stroke-miterlimit:10" d="m-31.53-49.647 13.226-28.219" transform="matrix(1 0 0 -1 64.71 7.396)"/><use xlink:href="#f" x="96.731" y="53.474" style="fill:#000;fill-opacity:1"/><path style="fill:none;stroke-width:.3985;stroke-linecap:butt;stroke-linejoin:miter;stroke:#000;stroke-opacity:1;stroke-miterlimit:10" d="m5.817-7.096 23.172-28.25" transform="matrix(1 0 0 -1 64.71 7.396)"/><g clip-path="url(#g)"><path style="fill:none;stroke-width:.3985;stroke-linecap:butt;stroke-linejoin:miter;stroke:#000;stroke-opacity:1;stroke-miterlimit:10" d="M24.227-85.041c0 5.128-4.156 9.28-9.285 9.28a9.282 9.282 0 0 1 0-18.563c5.13.001 9.285 4.157 9.285 9.282Zm0 0" transform="matrix(1 0 0 -1 64.71 7.396)"/></g><use xlink:href="#h" x="76.806" y="95.942" style="fill:#000;fill-opacity:1"/><path style="fill:none;stroke-width:.3985;stroke-linecap:butt;stroke-linejoin:miter;stroke:#000;stroke-opacity:1;stroke-miterlimit:10" d="M31.509-49.698 18.966-76.456" transform="matrix(1 0 0 -1 64.71 7.396)"/><g clip-path="url(#i)"><path style="fill:none;stroke-width:.3985;stroke-linecap:butt;stroke-linejoin:miter;stroke:#000;stroke-opacity:1;stroke-miterlimit:10" d="M64.013-85.041c0 5.09-4.13 9.218-9.22 9.218-5.089 0-9.214-4.129-9.214-9.219a9.214 9.214 0 0 1 9.215-9.214c5.09 0 9.219 4.125 9.219 9.215Zm0 0" transform="matrix(1 0 0 -1 64.71 7.396)"/></g><use xlink:href="#j" x="116.657" y="95.991" style="fill:#000;fill-opacity:1"/><path style="fill:none;stroke-width:.3985;stroke-linecap:butt;stroke-linejoin:miter;stroke:#000;stroke-opacity:1;stroke-miterlimit:10" d="m38.231-49.698 12.57-26.816" transform="matrix(1 0 0 -1 64.71 7.396)"/></svg>