<svg width="193.611" height="150.892" viewBox="0 0 193.611 150.892" xmlns="http://www.w3.org/2000/svg"><path d="M12.235 0c0 6.757-5.478 12.235-12.235 12.235S-12.235 6.757-12.235 0-6.757-12.235 0-12.235 12.235-6.757 12.235 0z" style="fill:#fff;fill-opacity:1;fill-rule:nonzero;stroke:none" transform="matrix(1.33333 0 0 -1.33333 96.815 16.98)"/><path d="M11.473-3.06h-1.78V0H6.644v-3.06H.352v-2.167l6.47-9.528h2.87v9.282h1.781ZM6.645-5.472v-2.508c0-.413.015-1.014.047-1.805.038-.797.065-1.26.082-1.394h-.07c-.252.556-.55 1.095-.902 1.617l-2.707 4.09Zm0 0" style="fill:#000;fill-opacity:1;fill-rule:nonzero;stroke:none" aria-label="4" transform="matrix(1.33333 0 0 1.33333 88.952 26.813)"/><path d="M-24.551-42.52c0 6.799-5.512 12.31-12.311 12.31-6.8 0-12.311-5.511-12.311-12.31 0-6.8 5.512-12.311 12.31-12.311 6.8 0 12.312 5.512 12.312 12.31z" style="fill:#fff;fill-opacity:1;fill-rule:nonzero;stroke:none" transform="matrix(1.33333 0 0 -1.33333 96.815 16.98)"/><path d="M11.131 0H.831v-2.168l3.703-3.738C5.627-7.03 6.34-7.807 6.678-8.238c.334-.436.577-.838.727-1.207.146-.375.222-.762.222-1.16 0-.586-.164-1.023-.492-1.313-.328-.296-.761-.445-1.3-.445-.58 0-1.137.135-1.676.398-.533.267-1.09.642-1.676 1.125l-1.7-2.015c.727-.615 1.328-1.049 1.805-1.3a6.617 6.617 0 0 1 1.559-.599 7.977 7.977 0 0 1 1.91-.21c.914 0 1.723.17 2.426.503.709.337 1.26.809 1.652 1.418.39.604.586 1.295.586 2.075 0 .68-.123 1.32-.363 1.921-.234.595-.604 1.205-1.102 1.829-.5.627-1.382 1.517-2.648 2.671L4.71-2.765v.14h6.421zm0 0" style="fill:#000;fill-opacity:1;fill-rule:nonzero;stroke:none" aria-label="2" transform="matrix(1.33333 0 0 1.33333 39.803 83.648)"/><path d="m-8.537-9.847-19.74-22.77" style="fill:none;stroke:#fff;stroke-width:5.18068;stroke-linecap:butt;stroke-linejoin:miter;stroke-miterlimit:10;stroke-dasharray:none;stroke-opacity:1" transform="matrix(1.33333 0 0 -1.33333 96.815 16.98)"/><path d="m-8.537-9.847-19.74-22.77" style="fill:none;stroke:#000;stroke-width:1.99252;stroke-linecap:butt;stroke-linejoin:miter;stroke-miterlimit:10;stroke-dasharray:none;stroke-opacity:1" transform="matrix(1.33333 0 0 -1.33333 96.815 16.98)"/><path d="M-45.05-85.04c0 6.757-5.478 12.235-12.236 12.235-6.757 0-12.235-5.478-12.235-12.235 0-6.758 5.478-12.236 12.235-12.236 6.758 0 12.235 5.478 12.235 12.236z" style="fill:#fff;fill-opacity:1;fill-rule:nonzero;stroke:#fff;stroke-width:5.18068;stroke-linecap:butt;stroke-linejoin:miter;stroke-miterlimit:10;stroke-dasharray:none;stroke-opacity:1" transform="matrix(1.33333 0 0 -1.33333 96.815 16.98)"/><path d="M-45.05-85.04c0 6.757-5.478 12.235-12.236 12.235-6.757 0-12.235-5.478-12.235-12.235 0-6.758 5.478-12.236 12.235-12.236 6.758 0 12.235 5.478 12.235 12.236z" style="fill:none;stroke:#000;stroke-width:1.99252;stroke-linecap:butt;stroke-linejoin:miter;stroke-miterlimit:10;stroke-dasharray:none;stroke-opacity:1" transform="matrix(1.33333 0 0 -1.33333 96.815 16.98)"/><path d="M8.531 0H5.414v-8.532l.035-1.406.047-1.535c-.516.524-.876.864-1.078 1.02l-1.7 1.359-1.5-1.875 4.758-3.785h2.555zm0 0" style="fill:#000;fill-opacity:1;fill-rule:nonzero;stroke:none" aria-label="1" transform="matrix(1.33333 0 0 1.33333 12.57 140.2)"/><path d="m-42.537-54.335-9.107-18.959" style="fill:none;stroke:#fff;stroke-width:5.18068;stroke-linecap:butt;stroke-linejoin:miter;stroke-miterlimit:10;stroke-dasharray:none;stroke-opacity:1" transform="matrix(1.33333 0 0 -1.33333 96.815 16.98)"/><path d="m-42.537-54.335-9.107-18.959" style="fill:none;stroke:#000;stroke-width:1.99252;stroke-linecap:butt;stroke-linejoin:miter;stroke-miterlimit:10;stroke-dasharray:none;stroke-opacity:1" transform="matrix(1.33333 0 0 -1.33333 96.815 16.98)"/><path d="M-4.06-85.04c0 6.837-5.542 12.379-12.378 12.379-6.837 0-12.38-5.542-12.38-12.38 0-6.836 5.543-12.379 12.38-12.379 6.836 0 12.379 5.543 12.379 12.38z" style="fill:#fff;fill-opacity:1;fill-rule:nonzero;stroke:none" transform="matrix(1.33333 0 0 -1.33333 96.815 16.98)"/><path d="M10.56-11.449c0 .923-.281 1.708-.844 2.356C9.16-8.452 8.38-8.01 7.372-7.77v.058c1.196.15 2.098.513 2.707 1.09.61.571.915 1.345.915 2.32 0 1.424-.516 2.529-1.547 3.317C8.42-.194 6.954.199 5.04.199 3.447.2 2.03-.064.787-.597v-2.649a9.26 9.26 0 0 0 1.886.703 7.93 7.93 0 0 0 2.04.27c1.03 0 1.786-.17 2.273-.516.492-.351.738-.914.738-1.687 0-.695-.281-1.187-.844-1.477-.562-.287-1.465-.433-2.707-.433H3.06v-2.391h1.137c1.14 0 1.974-.147 2.507-.445.53-.305.797-.82.797-1.547 0-1.108-.7-1.664-2.097-1.664-.487 0-.982.082-1.489.246-.5.158-1.054.433-1.664.832L.81-13.511c1.342-.967 2.944-1.454 4.805-1.454 1.529 0 2.736.314 3.62.938.883.618 1.325 1.476 1.325 2.578zm0 0" style="fill:#000;fill-opacity:1;fill-rule:nonzero;stroke:none" aria-label="3" transform="matrix(1.33333 0 0 1.33333 67.033 140.207)"/><path d="m-31.187-54.335 9.044-18.829" style="fill:none;stroke:#fff;stroke-width:5.18068;stroke-linecap:butt;stroke-linejoin:miter;stroke-miterlimit:10;stroke-dasharray:none;stroke-opacity:1" transform="matrix(1.33333 0 0 -1.33333 96.815 16.98)"/><path d="m-31.187-54.335 9.044-18.829" style="fill:none;stroke:#000;stroke-width:1.99252;stroke-linecap:butt;stroke-linejoin:miter;stroke-miterlimit:10;stroke-dasharray:none;stroke-opacity:1" transform="matrix(1.33333 0 0 -1.33333 96.815 16.98)"/><path d="M49.215-42.52c0 6.822-5.53 12.353-12.353 12.353-6.822 0-12.353-5.53-12.353-12.353 0-6.823 5.53-12.353 12.353-12.353 6.823 0 12.353 5.53 12.353 12.353z" style="fill:#fff;fill-opacity:1;fill-rule:nonzero;stroke:none" transform="matrix(1.33333 0 0 -1.33333 96.815 16.98)"/><path d="M.728-6.268c0-2.912.615-5.08 1.851-6.504 1.234-1.43 3.082-2.145 5.543-2.145.844 0 1.503.053 1.98.153v2.484a8.32 8.32 0 0 0-1.78-.2c-1.073 0-1.946.165-2.626.493-.673.322-1.177.797-1.511 1.43-.337.632-.536 1.532-.598 2.695h.14c.663-1.149 1.73-1.723 3.2-1.723 1.312 0 2.338.416 3.082 1.242.75.83 1.125 1.975 1.125 3.434 0 1.57-.445 2.818-1.336 3.738C8.913-.257 7.688.2 6.118.2 5.023.2 4.071-.049 3.26-.55c-.806-.506-1.43-1.245-1.875-2.214C.944-3.731.728-4.9.728-6.268ZM6.06-2.284c.662 0 1.172-.223 1.523-.668.358-.451.54-1.093.54-1.922 0-.718-.17-1.283-.505-1.699-.328-.413-.829-.621-1.5-.621-.632 0-1.177.208-1.629.621-.445.407-.668.885-.668 1.43 0 .797.211 1.473.633 2.027.422.557.955.832 1.606.832zm0 0" style="fill:#000;fill-opacity:1;fill-rule:nonzero;stroke:none" aria-label="6" transform="matrix(1.33333 0 0 1.33333 138.1 83.487)"/><path d="m8.537-9.847 19.712-22.737" style="fill:none;stroke:#fff;stroke-width:5.18068;stroke-linecap:butt;stroke-linejoin:miter;stroke-miterlimit:10;stroke-dasharray:none;stroke-opacity:1" transform="matrix(1.33333 0 0 -1.33333 96.815 16.98)"/><path d="m8.537-9.847 19.712-22.737" style="fill:none;stroke:#000;stroke-width:1.99252;stroke-linecap:butt;stroke-linejoin:miter;stroke-miterlimit:10;stroke-dasharray:none;stroke-opacity:1" transform="matrix(1.33333 0 0 -1.33333 96.815 16.98)"/><path d="M28.743-85.04c0 6.795-5.509 12.304-12.304 12.304-6.796 0-12.305-5.509-12.305-12.304 0-6.796 5.509-12.305 12.304-12.305 6.796 0 12.305 5.509 12.305 12.305z" style="fill:#fff;fill-opacity:1;fill-rule:nonzero;stroke:#fff;stroke-width:5.18068;stroke-linecap:butt;stroke-linejoin:miter;stroke-miterlimit:10;stroke-dasharray:none;stroke-opacity:1" transform="matrix(1.33333 0 0 -1.33333 96.815 16.98)"/><path d="M28.743-85.04c0 6.795-5.509 12.304-12.304 12.304-6.796 0-12.305-5.509-12.305-12.304 0-6.796 5.509-12.305 12.304-12.305 6.796 0 12.305 5.509 12.305 12.305z" style="fill:none;stroke:#000;stroke-width:1.99252;stroke-linecap:butt;stroke-linejoin:miter;stroke-miterlimit:10;stroke-dasharray:none;stroke-opacity:1" transform="matrix(1.33333 0 0 -1.33333 96.815 16.98)"/><path d="M6.2-9.421c1.421 0 2.555.404 3.399 1.207.844.797 1.266 1.893 1.266 3.281 0 1.65-.51 2.918-1.524 3.809C8.325-.24 6.871.2 4.981.2 3.342.2 2.018-.064 1.01-.597v-2.695c.53.29 1.149.524 1.852.703a8.527 8.527 0 0 0 2.015.258c1.899 0 2.848-.78 2.848-2.344 0-1.482-.984-2.227-2.953-2.227-.352 0-.747.036-1.184.106-.43.07-.779.15-1.043.234L1.302-7.23l.55-7.523h8.005v2.648H4.595L4.314-9.21l.363-.07c.404-.094.914-.141 1.524-.141zm0 0" style="fill:#000;fill-opacity:1;fill-rule:nonzero;stroke:none" aria-label="5" transform="matrix(1.33333 0 0 1.33333 110.87 140.065)"/><path d="m31.17-54.373-9.06-18.858" style="fill:none;stroke:#fff;stroke-width:5.18068;stroke-linecap:butt;stroke-linejoin:miter;stroke-miterlimit:10;stroke-dasharray:none;stroke-opacity:1" transform="matrix(1.33333 0 0 -1.33333 96.815 16.98)"/><path d="m31.17-54.373-9.06-18.858" style="fill:none;stroke:#000;stroke-width:1.99252;stroke-linecap:butt;stroke-linejoin:miter;stroke-miterlimit:10;stroke-dasharray:none;stroke-opacity:1" transform="matrix(1.33333 0 0 -1.33333 96.815 16.98)"/><path d="M69.508-85.04c0 6.75-5.472 12.222-12.222 12.222-6.75 0-12.222-5.472-12.222-12.222 0-6.75 5.472-12.223 12.222-12.223 6.75 0 12.222 5.472 12.222 12.223z" style="fill:#fff;fill-opacity:1;fill-rule:nonzero;stroke:#fff;stroke-width:5.18068;stroke-linecap:butt;stroke-linejoin:miter;stroke-miterlimit:10;stroke-dasharray:none;stroke-opacity:1" transform="matrix(1.33333 0 0 -1.33333 96.815 16.98)"/><path d="M69.508-85.04c0 6.75-5.472 12.222-12.222 12.222-6.75 0-12.222-5.472-12.222-12.222 0-6.75 5.472-12.223 12.222-12.223 6.75 0 12.222 5.472 12.222 12.223z" style="fill:none;stroke:#000;stroke-width:1.99252;stroke-linecap:butt;stroke-linejoin:miter;stroke-miterlimit:10;stroke-dasharray:none;stroke-opacity:1" transform="matrix(1.33333 0 0 -1.33333 96.815 16.98)"/><path d="m2.285 0 5.543-12.105H.551v-2.625h10.582v1.957L5.555.001Zm0 0" style="fill:#000;fill-opacity:1;fill-rule:nonzero;stroke:none" aria-label="7" transform="matrix(1.33333 0 0 1.33333 165.332 140.187)"/><path d="m42.555-54.373 9.094-18.932" style="fill:none;stroke:#fff;stroke-width:5.18068;stroke-linecap:butt;stroke-linejoin:miter;stroke-miterlimit:10;stroke-dasharray:none;stroke-opacity:1" transform="matrix(1.33333 0 0 -1.33333 96.815 16.98)"/><path d="m42.555-54.373 9.094-18.932" style="fill:none;stroke:#000;stroke-width:1.99252;stroke-linecap:butt;stroke-linejoin:miter;stroke-miterlimit:10;stroke-dasharray:none;stroke-opacity:1" transform="matrix(1.33333 0 0 -1.33333 96.815 16.98)"/></svg>