<svg width="154.093" height="155.245" viewBox="0 0 154.093 155.245" xmlns="http://www.w3.org/2000/svg"><path d="M14.114 0c0 7.795-6.319 14.114-14.114 14.114-7.795 0-14.114-6.319-14.114-14.114 0-7.795 6.319-14.114 14.114-14.114 7.795 0 14.114 6.319 14.114 14.114z" style="fill:#fff;fill-opacity:1;fill-rule:nonzero;stroke:none" transform="matrix(1.33333 0 0 -1.33333 77.047 19.485)"/><path d="M11.472-3.057h-1.78V0H6.643v-3.058H.351v-2.168l6.469-9.528h2.871v9.282h1.781ZM6.644-5.471V-7.98c0-.413.015-1.014.047-1.805.038-.797.065-1.26.082-1.394h-.07c-.252.556-.551 1.095-.903 1.617l-2.707 4.09zm0 0" style="fill:#000;fill-opacity:1;fill-rule:nonzero;stroke:none" aria-label="4" transform="matrix(1.33333 0 0 1.33333 69.184 29.319)"/><path d="M-22.682-42.52c0 7.832-6.348 14.18-14.18 14.18s-14.18-6.348-14.18-14.18 6.348-14.18 14.18-14.18 14.18 6.348 14.18 14.18z" style="fill:#fff;fill-opacity:1;fill-rule:nonzero;stroke:none" transform="matrix(1.33333 0 0 -1.33333 77.047 19.485)"/><path d="M11.133 0H.833v-2.168l3.703-3.738C5.628-7.031 6.343-7.807 6.68-8.238c.334-.437.577-.838.727-1.207.146-.375.222-.762.222-1.16 0-.586-.164-1.023-.492-1.313-.328-.296-.762-.445-1.3-.445-.58 0-1.137.135-1.676.398-.534.267-1.09.642-1.676 1.125l-1.7-2.015c.727-.615 1.328-1.049 1.805-1.301a6.617 6.617 0 0 1 1.559-.598 7.977 7.977 0 0 1 1.91-.21c.914 0 1.723.17 2.426.503.709.337 1.26.809 1.652 1.418.39.604.586 1.295.586 2.075 0 .68-.123 1.32-.363 1.921-.235.595-.604 1.204-1.102 1.829-.5.626-1.383 1.517-2.648 2.671L4.71-2.765v.14h6.422Zm0 0" style="fill:#000;fill-opacity:1;fill-rule:nonzero;stroke:none" aria-label="2" transform="matrix(1.33333 0 0 1.33333 20.035 86.152)"/><path d="m-9.767-11.266-17.284-19.938" style="fill:none;stroke:#fff;stroke-width:5.18068;stroke-linecap:butt;stroke-linejoin:miter;stroke-miterlimit:10;stroke-dasharray:none;stroke-opacity:1" transform="matrix(1.33333 0 0 -1.33333 77.047 19.485)"/><path d="m-9.767-11.266-17.284-19.938" style="fill:none;stroke:#000;stroke-width:1.99252;stroke-linecap:butt;stroke-linejoin:miter;stroke-miterlimit:10;stroke-dasharray:none;stroke-opacity:1" transform="matrix(1.33333 0 0 -1.33333 77.047 19.485)"/><path d="M-.157-85.04c0 8.992-7.29 16.28-16.281 16.28-8.992 0-16.282-7.288-16.282-16.28s7.29-16.282 16.282-16.282c8.991 0 16.28 7.29 16.28 16.282z" style="fill:#fff;fill-opacity:1;fill-rule:nonzero;stroke:none" transform="matrix(1.33333 0 0 -1.33333 77.047 19.485)"/><path d="M0 0h12.274v2.066H0Z" style="fill:#000;fill-opacity:1;fill-rule:nonzero;stroke:none" transform="matrix(1.33333 0 0 -1.33333 46.947 146.42)"/><path d="M10.558-11.45c0 .923-.281 1.708-.844 2.355-.557.642-1.336 1.084-2.344 1.325v.058c1.196.15 2.098.513 2.707 1.09.61.571.914 1.345.914 2.32 0 1.424-.515 2.529-1.546 3.317C8.419-.195 6.95.198 5.038.198 3.445.198 2.027-.065.784-.599v-2.648a9.26 9.26 0 0 0 1.887.703 7.93 7.93 0 0 0 2.04.27c1.03 0 1.786-.17 2.273-.516.492-.351.738-.914.738-1.687 0-.695-.281-1.187-.844-1.477-.562-.287-1.465-.434-2.707-.434H3.058v-2.39h1.137c1.14 0 1.974-.147 2.507-.446.53-.304.797-.82.797-1.546 0-1.108-.7-1.664-2.097-1.664-.487 0-.982.082-1.489.246-.5.158-1.054.433-1.664.832L.808-13.513c1.342-.966 2.944-1.453 4.805-1.453 1.529 0 2.736.314 3.62.938.882.618 1.325 1.476 1.325 2.578zm0 0" style="fill:#000;fill-opacity:1;fill-rule:nonzero;stroke:none" aria-label="3" transform="matrix(1.33333 0 0 1.33333 47.267 139.27)"/><path d="m-30.377-56.02 6.545-13.627" style="fill:none;stroke:#fff;stroke-width:5.18068;stroke-linecap:butt;stroke-linejoin:miter;stroke-miterlimit:10;stroke-dasharray:none;stroke-opacity:1" transform="matrix(1.33333 0 0 -1.33333 77.047 19.485)"/><path d="m-30.377-56.02 6.545-13.627" style="fill:none;stroke:#000;stroke-width:1.99252;stroke-linecap:butt;stroke-linejoin:miter;stroke-miterlimit:10;stroke-dasharray:none;stroke-opacity:1" transform="matrix(1.33333 0 0 -1.33333 77.047 19.485)"/><path d="M51.076-42.52c0 7.85-6.364 14.214-14.214 14.214-7.85 0-14.214-6.364-14.214-14.214 0-7.85 6.364-14.214 14.214-14.214 7.85 0 14.214 6.364 14.214 14.214z" style="fill:#fff;fill-opacity:1;fill-rule:nonzero;stroke:none" transform="matrix(1.33333 0 0 -1.33333 77.047 19.485)"/><path d="M.726-6.268c0-2.913.615-5.08 1.851-6.504 1.234-1.43 3.082-2.145 5.543-2.145.844 0 1.503.053 1.98.153v2.484a8.32 8.32 0 0 0-1.78-.2c-1.073 0-1.946.165-2.626.493-.673.322-1.177.797-1.511 1.43-.337.632-.537 1.532-.598 2.695h.14c.663-1.149 1.73-1.723 3.2-1.723 1.312 0 2.338.416 3.082 1.242.75.83 1.125 1.975 1.125 3.434 0 1.57-.445 2.818-1.336 3.738C8.91-.257 7.686.2 6.116.2c-1.095 0-2.048-.249-2.86-.75-.805-.506-1.429-1.245-1.874-2.214C.942-3.731.726-4.9.726-6.268Zm5.332 3.984c.662 0 1.171-.223 1.523-.668.357-.451.54-1.093.54-1.922 0-.718-.17-1.283-.505-1.7-.328-.412-.829-.62-1.5-.62-.633 0-1.178.208-1.629.62-.445.408-.668.886-.668 1.43 0 .797.211 1.474.633 2.028.422.557.955.832 1.606.832zm0 0" style="fill:#000;fill-opacity:1;fill-rule:nonzero;stroke:none" aria-label="6" transform="matrix(1.33333 0 0 1.33333 118.333 85.99)"/><path d="M9.767-11.266 27.03-31.18" style="fill:none;stroke:#fff;stroke-width:5.18068;stroke-linecap:butt;stroke-linejoin:miter;stroke-miterlimit:10;stroke-dasharray:none;stroke-opacity:1" transform="matrix(1.33333 0 0 -1.33333 77.047 19.485)"/><path d="M9.767-11.266 27.03-31.18" style="fill:none;stroke:#000;stroke-width:1.99252;stroke-linecap:butt;stroke-linejoin:miter;stroke-miterlimit:10;stroke-dasharray:none;stroke-opacity:1" transform="matrix(1.33333 0 0 -1.33333 77.047 19.485)"/></svg>