<svg xmlns="http://www.w3.org/2000/svg" xmlns:xlink="http://www.w3.org/1999/xlink" width="147.452" height="136.581" viewBox="0 0 110.589 102.436"><defs><symbol overflow="visible" id="a"><path style="stroke:none" d="M5.516-1.656H4.437V0h-.78v-1.656H.218v-.672l3.39-4.828h.829v4.781h1.078Zm-1.86-.719v-2.812c.008-.145.016-.282.016-.407.008-.125.015-.242.015-.36.008-.112.016-.222.016-.327h-.031a8.926 8.926 0 0 1-.453.797L1.016-2.375Zm0 0"/></symbol><symbol overflow="visible" id="b"><path style="stroke:none" d="M5.156 0H.484v-.672l1.907-1.937c.351-.352.648-.672.89-.954.25-.28.438-.554.563-.828.125-.27.187-.566.187-.89 0-.407-.12-.711-.36-.922-.241-.207-.554-.313-.937-.313-.343 0-.648.059-.906.172a3.98 3.98 0 0 0-.812.5L.578-6.39a3.618 3.618 0 0 1 1.328-.719c.258-.07.535-.109.828-.109.438 0 .813.078 1.125.235.32.148.567.359.735.64.176.282.265.621.265 1.016 0 .375-.074.726-.218 1.047a4.278 4.278 0 0 1-.625.968c-.274.313-.59.649-.954 1L1.516-.78v.047h3.64Zm0 0"/></symbol><symbol overflow="visible" id="d"><path style="stroke:none" d="M4.89-5.453c0 .312-.062.59-.187.828-.125.23-.297.422-.516.578-.218.149-.48.246-.78.297v.047c.57.062 1 .246 1.28.547.282.293.422.672.422 1.14 0 .418-.101.79-.296 1.11-.188.312-.481.558-.875.734-.399.176-.907.266-1.532.266C2.031.094 1.68.062 1.36 0a3.047 3.047 0 0 1-.906-.297v-.75c.29.149.61.262.953.344.352.086.692.125 1.016.125.644 0 1.113-.129 1.406-.39.29-.259.438-.614.438-1.063 0-.313-.086-.563-.25-.75-.157-.188-.387-.32-.688-.406a3.683 3.683 0 0 0-1.078-.141h-.719v-.688h.719c.383 0 .71-.054.984-.171.27-.114.473-.274.61-.485.144-.207.219-.453.219-.734 0-.352-.122-.63-.36-.828-.242-.196-.57-.297-.984-.297-.25 0-.48.027-.688.078a3.557 3.557 0 0 0-1.125.531l-.422-.562c.258-.196.579-.368.954-.516.375-.145.8-.219 1.28-.219.72 0 1.259.168 1.626.5.363.336.547.758.547 1.266Zm0 0"/></symbol><symbol overflow="visible" id="e"><path style="stroke:none" d="M.563-3.047c0-.426.03-.844.093-1.25s.16-.785.297-1.14c.145-.352.336-.66.578-.922.25-.27.555-.477.922-.625.375-.157.82-.235 1.344-.235.144 0 .3.012.469.032.164.011.304.03.421.062v.688a1.886 1.886 0 0 0-.421-.079 3.438 3.438 0 0 0-.454-.03c-.605 0-1.085.132-1.437.39a2.224 2.224 0 0 0-.75 1.062c-.148.45-.23.953-.25 1.516h.047c.101-.156.234-.297.39-.422.157-.133.344-.238.563-.313.227-.082.488-.125.781-.125.414 0 .774.086 1.078.25.313.168.551.415.72.735.175.324.265.715.265 1.172 0 .492-.094.914-.282 1.265-.18.356-.433.633-.765.829-.336.187-.734.28-1.203.28-.344 0-.664-.062-.953-.187a2.15 2.15 0 0 1-.766-.594 3.016 3.016 0 0 1-.516-.984C.617-2.066.563-2.523.563-3.047Zm2.39 2.469c.445 0 .8-.14 1.063-.422.27-.29.406-.719.406-1.281 0-.469-.121-.836-.36-1.11C3.82-3.67 3.47-3.812 3-3.812c-.336 0-.621.07-.86.203-.242.136-.43.308-.562.515-.125.2-.187.406-.187.625 0 .211.03.43.093.656.063.22.157.422.282.61.132.187.3.34.5.453.195.117.425.172.687.172Zm0 0"/></symbol><clipPath id="c"><path d="M25 77h31v25.438H25Zm0 0"/></clipPath></defs><use xlink:href="#a" x="52.446" y="10.971" style="fill:#000;fill-opacity:1"/><use xlink:href="#b" x="17.577" y="53.523" style="fill:#000;fill-opacity:1"/><path style="fill:none;stroke-width:.3985;stroke-linecap:butt;stroke-linejoin:miter;stroke:#000;stroke-opacity:1;stroke-miterlimit:10" d="m-5.818-7.096-23.207-28.297" transform="matrix(1 0 0 -1 55.295 7.396)"/><g clip-path="url(#c)"><path style="fill:none;stroke-width:.3985;stroke-linecap:butt;stroke-linejoin:miter;stroke:#000;stroke-opacity:1;stroke-miterlimit:10" d="M-5.643-85.041a9.3 9.3 0 1 1-18.601 0 9.3 9.3 0 1 1 18.601 0Zm0 0" transform="matrix(1 0 0 -1 55.295 7.396)"/></g><use xlink:href="#d" x="37.502" y="95.994" style="fill:#000;fill-opacity:1"/><path style="fill:none;stroke-width:.3985;stroke-linecap:butt;stroke-linejoin:miter;stroke:#000;stroke-opacity:1;stroke-miterlimit:10" d="m-31.53-49.647 12.555-26.789" transform="matrix(1 0 0 -1 55.295 7.396)"/><use xlink:href="#e" x="87.316" y="53.474" style="fill:#000;fill-opacity:1"/><path style="fill:none;stroke-width:.3985;stroke-linecap:butt;stroke-linejoin:miter;stroke:#000;stroke-opacity:1;stroke-miterlimit:10" d="m5.818-7.096 23.168-28.25" transform="matrix(1 0 0 -1 55.295 7.396)"/></svg>