<svg xmlns="http://www.w3.org/2000/svg" xmlns:xlink="http://www.w3.org/1999/xlink" width="106.964" height="59.9pt" viewBox="0 0 80.223 59.9"><defs><symbol overflow="visible" id="a"><path style="stroke:none" d="M5.516-1.656H4.437V0h-.78v-1.656H.218v-.672l3.39-4.828h.829v4.781h1.078Zm-1.86-.719v-2.812c.008-.145.016-.282.016-.407.008-.125.015-.242.015-.36.008-.112.016-.222.016-.327h-.031a8.926 8.926 0 0 1-.453.797L1.016-2.375Zm0 0"/></symbol><symbol overflow="visible" id="c"><path style="stroke:none" d="M5.156 0H.484v-.672l1.907-1.937c.351-.352.648-.672.89-.954.25-.28.438-.554.563-.828.125-.27.187-.566.187-.89 0-.407-.12-.711-.36-.922-.241-.207-.554-.313-.937-.313-.343 0-.648.059-.906.172a3.98 3.98 0 0 0-.812.5L.578-6.39a3.618 3.618 0 0 1 1.328-.719c.258-.07.535-.109.828-.109.438 0 .813.078 1.125.235.32.148.567.359.735.64.176.282.265.621.265 1.016 0 .375-.074.726-.218 1.047a4.278 4.278 0 0 1-.625.968c-.274.313-.59.649-.954 1L1.516-.78v.047h3.64Zm0 0"/></symbol><clipPath id="b"><path d="M0 34h25v25.898H0Zm0 0"/></clipPath></defs><use xlink:href="#a" x="42.005" y="10.972" style="fill:#000;fill-opacity:1"/><g clip-path="url(#b)"><path style="fill:none;stroke-width:.3985;stroke-linecap:butt;stroke-linejoin:miter;stroke:#000;stroke-opacity:1;stroke-miterlimit:10" d="M-25.583-42.522a9.284 9.284 0 0 1-9.286 9.285 9.284 9.284 0 0 1-9.285-9.285c0-5.125 4.156-9.285 9.285-9.285 5.13 0 9.286 4.16 9.286 9.285Zm0 0" transform="matrix(1 0 0 -1 44.853 7.396)"/></g><use xlink:href="#c" x="7.136" y="53.523" style="fill:#000;fill-opacity:1"/><path style="fill:none;stroke-width:.3985;stroke-linecap:butt;stroke-linejoin:miter;stroke:#000;stroke-opacity:1;stroke-miterlimit:10" d="m-5.818-7.096-23.039-28.09" transform="matrix(1 0 0 -1 44.853 7.396)"/></svg>