<svg width="534.452" height="92.248" viewBox="0 0 534.452 92.248" xmlns="http://www.w3.org/2000/svg"><path d="M12.915-8.872c0 1.438-.111 2.724-.328 3.855-.22 1.125-.563 2.08-1.031 2.86-.47.782-1.076 1.38-1.817 1.793-.744.404-1.635.61-2.672.61-1.312 0-2.4-.358-3.258-1.08C2.95-1.55 2.304-2.59 1.876-3.95c-.422-1.36-.633-3-.633-4.922 0-1.89.19-3.516.574-4.875.381-1.36 1-2.402 1.852-3.129.858-.732 1.992-1.102 3.398-1.102 1.336 0 2.432.364 3.293 1.09.867.72 1.506 1.758 1.922 3.117.422 1.36.633 2.995.633 4.899zm-9.645 0c0 1.65.123 3.023.375 4.125.25 1.096.65 1.916 1.207 2.46.563.54 1.301.81 2.215.81.914 0 1.647-.27 2.203-.81.563-.538.967-1.353 1.22-2.448.257-1.102.386-2.479.386-4.137 0-1.623-.126-2.98-.375-4.067-.252-1.092-.653-1.916-1.207-2.472-.557-.554-1.298-.832-2.227-.832-.931 0-1.673.278-2.226.832-.557.556-.958 1.38-1.207 2.472-.243 1.087-.364 2.444-.364 4.067zm0 0" style="fill:#bababa;fill-opacity:1;fill-rule:nonzero;stroke:none" aria-label="0" transform="matrix(1.33333 0 0 1.33333 31.007 63.615)"/><path d="M12.915-8.872c0 1.438-.111 2.724-.328 3.855-.22 1.125-.562 2.08-1.031 2.86-.469.782-1.075 1.38-1.816 1.793-.745.404-1.635.61-2.672.61-1.313 0-2.4-.358-3.258-1.08C2.949-1.55 2.304-2.59 1.876-3.95c-.422-1.36-.633-3-.633-4.922 0-1.89.19-3.516.575-4.875.38-1.36.999-2.402 1.851-3.129.859-.732 1.992-1.102 3.399-1.102 1.336 0 2.431.364 3.293 1.09.867.72 1.505 1.758 1.921 3.117.422 1.36.633 2.995.633 4.899zm-9.644 0c0 1.65.123 3.023.375 4.125.249 1.096.65 1.916 1.207 2.46.562.54 1.3.81 2.215.81.914 0 1.646-.27 2.203-.81.562-.538.967-1.353 1.219-2.448.257-1.102.386-2.479.386-4.137 0-1.623-.126-2.98-.375-4.067-.252-1.092-.653-1.916-1.207-2.472-.556-.554-1.298-.832-2.226-.832-.932 0-1.673.278-2.227.832-.557.556-.958 1.38-1.207 2.472-.243 1.087-.363 2.444-.363 4.067zm0 0" style="fill:#bababa;fill-opacity:1;fill-rule:nonzero;stroke:none" aria-label="0" transform="matrix(1.33333 0 0 1.33333 106.596 63.615)"/><path d="M12.915-8.872c0 1.438-.112 2.724-.328 3.855-.22 1.125-.563 2.08-1.032 2.86-.468.782-1.075 1.38-1.816 1.793-.744.404-1.635.61-2.672.61-1.312 0-2.4-.358-3.258-1.08C2.948-1.55 2.303-2.59 1.876-3.95c-.422-1.36-.633-3-.633-4.922 0-1.89.19-3.516.574-4.875.38-1.36 1-2.402 1.852-3.129.858-.732 1.992-1.102 3.398-1.102 1.336 0 2.432.364 3.293 1.09.867.72 1.506 1.758 1.922 3.117.422 1.36.633 2.995.633 4.899zm-9.645 0c0 1.65.123 3.023.375 4.125.25 1.096.65 1.916 1.207 2.46.563.54 1.301.81 2.215.81.914 0 1.647-.27 2.203-.81.563-.538.967-1.353 1.219-2.448.258-1.102.387-2.479.387-4.137 0-1.623-.126-2.98-.375-4.067-.252-1.092-.654-1.916-1.207-2.472-.557-.554-1.298-.832-2.227-.832-.932 0-1.673.278-2.227.832-.556.556-.958 1.38-1.207 2.472-.243 1.087-.363 2.444-.363 4.067zm0 0" style="fill:#bababa;fill-opacity:1;fill-rule:nonzero;stroke:none" aria-label="0" transform="matrix(1.33333 0 0 1.33333 182.187 63.615)"/><path d="M8.707 0H6.738v-13.769c.006-.343.015-.656.024-.938.014-.287.035-.58.058-.879a9.083 9.083 0 0 1-.703.657c-.21.181-.48.404-.808.668l-2.016 1.629-1.055-1.372 4.793-3.69h1.676zm0 0" style="fill:#bababa;fill-opacity:1;fill-rule:nonzero;stroke:none" aria-label="1" transform="matrix(1.33333 0 0 1.33333 257.777 63.59)"/><path d="M12.913-8.872c0 1.438-.11 2.724-.328 3.855-.22 1.125-.562 2.08-1.03 2.86-.47.782-1.076 1.38-1.817 1.793-.744.404-1.635.61-2.672.61-1.313 0-2.4-.358-3.258-1.08C2.947-1.55 2.302-2.59 1.874-3.95c-.421-1.36-.632-3-.632-4.922 0-1.89.19-3.516.574-4.875.38-1.36.999-2.402 1.851-3.129.859-.732 1.993-1.102 3.399-1.102 1.336 0 2.431.364 3.293 1.09.867.72 1.506 1.758 1.922 3.117.422 1.36.632 2.995.632 4.899zm-9.644 0c0 1.65.123 3.023.375 4.125.249 1.096.65 1.916 1.207 2.46.562.54 1.3.81 2.215.81.914 0 1.646-.27 2.203-.81.562-.538.967-1.353 1.219-2.448.257-1.102.386-2.479.386-4.137 0-1.623-.126-2.98-.375-4.067-.252-1.092-.653-1.916-1.207-2.472-.556-.554-1.297-.832-2.226-.832-.932 0-1.673.278-2.227.832-.556.556-.958 1.38-1.207 2.472-.243 1.087-.363 2.444-.363 4.067zm0 0" style="fill:#bababa;fill-opacity:1;fill-rule:nonzero;stroke:none" aria-label="0" transform="matrix(1.33333 0 0 1.33333 333.368 63.615)"/><path d="M12.913-8.872c0 1.438-.111 2.724-.328 3.855-.22 1.125-.563 2.08-1.032 2.86-.468.782-1.075 1.38-1.816 1.793-.744.404-1.635.61-2.672.61-1.312 0-2.4-.358-3.258-1.08C2.946-1.55 2.302-2.59 1.874-3.95c-.422-1.36-.633-3-.633-4.922 0-1.89.19-3.516.574-4.875.381-1.36 1-2.402 1.852-3.129.858-.732 1.992-1.102 3.398-1.102 1.336 0 2.432.364 3.293 1.09.867.72 1.506 1.758 1.922 3.117.422 1.36.633 2.995.633 4.899zm-9.645 0c0 1.65.123 3.023.375 4.125.25 1.096.65 1.916 1.207 2.46.563.54 1.301.81 2.215.81.914 0 1.647-.27 2.203-.81.563-.538.967-1.353 1.22-2.448.257-1.102.386-2.479.386-4.137 0-1.623-.126-2.98-.375-4.067-.252-1.092-.654-1.916-1.207-2.472-.557-.554-1.298-.832-2.227-.832-.931 0-1.673.278-2.226.832-.557.556-.958 1.38-1.207 2.472-.244 1.087-.364 2.444-.364 4.067zm0 0" style="fill:#bababa;fill-opacity:1;fill-rule:nonzero;stroke:none" aria-label="0" transform="matrix(1.33333 0 0 1.33333 408.959 63.615)"/><path d="M12.915-8.872c0 1.438-.111 2.724-.328 3.855-.22 1.125-.562 2.08-1.031 2.86-.469.782-1.075 1.38-1.817 1.793-.744.404-1.634.61-2.672.61-1.312 0-2.399-.358-3.257-1.08C2.948-1.55 2.304-2.59 1.876-3.95c-.422-1.36-.633-3-.633-4.922 0-1.89.19-3.516.574-4.875.381-1.36 1-2.402 1.852-3.129.858-.732 1.992-1.102 3.398-1.102 1.336 0 2.432.364 3.293 1.09.868.72 1.506 1.758 1.922 3.117.422 1.36.633 2.995.633 4.899zm-9.644 0c0 1.65.123 3.023.375 4.125.249 1.096.65 1.916 1.207 2.46.562.54 1.3.81 2.214.81.915 0 1.647-.27 2.204-.81.562-.538.966-1.353 1.218-2.448.258-1.102.387-2.479.387-4.137 0-1.623-.126-2.98-.375-4.067-.252-1.092-.653-1.916-1.207-2.472-.557-.554-1.298-.832-2.227-.832-.931 0-1.672.278-2.226.832-.557.556-.958 1.38-1.207 2.472-.243 1.087-.363 2.444-.363 4.067zm0 0" style="fill:#bababa;fill-opacity:1;fill-rule:nonzero;stroke:none" aria-label="0" transform="matrix(1.33333 0 0 1.33333 484.55 63.615)"/><path d="M-28.347-28.347v45.272c0 11.005 8.921 19.926 19.926 19.926H8.42c11.005 0 19.926-8.92 19.926-19.926V-8.42c0-11.005 0-11.005 0 0v25.346c0 11.005 8.92 19.926 19.925 19.926h16.843c11.005 0 19.925-8.92 19.925-19.926V-8.42c0-11.005 0-11.005 0 0v25.346c0 11.005 8.921 19.926 19.926 19.926h16.843c11.004 0 19.925-8.92 19.925-19.926V-8.42c0-11.005 0-11.005 0 0v25.346c0 11.005 8.92 19.926 19.926 19.926h16.842c11.005 0 19.926-8.92 19.926-19.926V-8.42c0-11.005 0-11.005 0 0v25.346c0 11.005 8.92 19.926 19.925 19.926h16.843c11.004 0 19.925-8.92 19.925-19.926V-8.42c0-11.005 0-11.005 0 0v25.346c0 11.005 8.921 19.926 19.926 19.926h16.842c11.005 0 19.926-8.92 19.926-19.926V-8.42c0-11.005 0-11.005 0 0v25.346c0 11.005 8.92 19.926 19.925 19.926h16.843c11.005 0 19.926-8.92 19.926-19.926v-45.272" style="fill:none;stroke:#bababa;stroke-width:2.98883;stroke-linecap:butt;stroke-linejoin:miter;stroke-miterlimit:10;stroke-dasharray:none;stroke-opacity:1" transform="matrix(1.33333 0 0 -1.33333 40.455 51.793)"/></svg>