<svg width="534.452" height="92.248" viewBox="0 0 534.452 92.248" xmlns="http://www.w3.org/2000/svg"><defs><clipPath clipPathUnits="userSpaceOnUse" id="a"><path d="M0 0h940v1230H0Z" transform="scale(10)"/></clipPath><clipPath clipPathUnits="userSpaceOnUse" id="b"><path d="M0 0h940v1230H0Z" transform="scale(10)"/></clipPath><clipPath clipPathUnits="userSpaceOnUse" id="c"><path d="M0 0h940v1230H0Z" transform="matrix(10 0 0 10 0 0)"/></clipPath><clipPath clipPathUnits="userSpaceOnUse" id="d"><path d="M0 0h940v1230H0Z" transform="matrix(10 0 0 10 0 0)"/></clipPath><clipPath clipPathUnits="userSpaceOnUse" id="e"><path d="M0 0h940v1230H0Z" transform="scale(10)"/></clipPath><clipPath clipPathUnits="userSpaceOnUse" id="f"><path d="M0 0h940v1230H0Z" transform="scale(10)"/></clipPath><clipPath clipPathUnits="userSpaceOnUse" id="g"><path d="M0 0h940v1230H0Z" transform="matrix(10 0 0 10 0 0)"/></clipPath><clipPath clipPathUnits="userSpaceOnUse" id="h"><path d="M0 0h940v1230H0Z" transform="matrix(10 0 0 10 0 0)"/></clipPath></defs><path d="M4371 12289c-1187-91-2310-996-3148-2539-497-915-877-2039-1063-3145C18 5755-16 4868 65 4125c103-935 365-1717 787-2348 288-430 687-802 1168-1090C3247-45 4924-202 6395 277c669 218 1240 546 1737 999 418 381 710 830 923 1420 223 615 339 1429 321 2244-34 1539-408 3077-1077 4420-495 995-1071 1727-1771 2252-655 492-1423 733-2157 677zm400-689c405-40 777-180 1159-435 660-441 1255-1189 1736-2180 452-932 758-1986 889-3055 176-1443 29-2662-421-3491-123-226-263-407-475-614-624-611-1455-984-2460-1107-160-19-232-22-549-22-315 0-390 3-547 22-1111 136-2003 599-2539 1319-362 486-615 1164-724 1938-78 558-89 1105-35 1750 124 1476 591 2942 1302 4088 469 755 1042 1319 1618 1593 342 163 697 228 1046 194z" style="fill:#bababa;fill-opacity:1;fill-rule:nonzero;stroke:none" transform="matrix(.0046 0 0 -.0046 18.796 80.14)" clip-path="url(#a)"/><path d="M7454 4881c-55-14-135-64-175-109-47-54-74-123-100-261-47-249-126-517-226-771-76-192-120-284-211-435-269-448-725-855-1296-1156-71-38-147-86-168-105-86-84-109-226-55-336 73-149 255-221 424-170 120 37 497 258 728 427 249 181 572 487 740 699 254 321 434 663 581 1101 111 334 201 726 191 836-9 107-83 209-184 256-56 26-191 39-249 24z" style="fill:#bababa;fill-opacity:1;fill-rule:nonzero;stroke:none" transform="matrix(.0046 0 0 -.0046 18.796 80.14)" clip-path="url(#b)"/><path d="M4371 12289c-1187-91-2310-996-3148-2539-497-915-877-2039-1063-3145C18 5755-16 4868 65 4125c103-935 365-1717 787-2348 288-430 687-802 1168-1090C3247-45 4924-202 6395 277c669 218 1240 546 1737 999 418 381 710 830 923 1420 223 615 339 1429 321 2244-34 1539-408 3077-1077 4420-495 995-1071 1727-1771 2252-655 492-1423 733-2157 677zm400-689c405-40 777-180 1159-435 660-441 1255-1189 1736-2180 452-932 758-1986 889-3055 176-1443 29-2662-421-3491-123-226-263-407-475-614-624-611-1455-984-2460-1107-160-19-232-22-549-22-315 0-390 3-547 22-1111 136-2003 599-2539 1319-362 486-615 1164-724 1938-78 558-89 1105-35 1750 124 1476 591 2942 1302 4088 469 755 1042 1319 1618 1593 342 163 697 228 1046 194z" style="fill:#bababa;fill-opacity:1;fill-rule:nonzero;stroke:none" transform="matrix(.0046 0 0 -.0046 169.977 80.14)" clip-path="url(#c)"/><path d="M7454 4881c-55-14-135-64-175-109-47-54-74-123-100-261-47-249-126-517-226-771-76-192-120-284-211-435-269-448-725-855-1296-1156-71-38-147-86-168-105-86-84-109-226-55-336 73-149 255-221 424-170 120 37 497 258 728 427 249 181 572 487 740 699 254 321 434 663 581 1101 111 334 201 726 191 836-9 107-83 209-184 256-56 26-191 39-249 24z" style="fill:#bababa;fill-opacity:1;fill-rule:nonzero;stroke:none" transform="matrix(.0046 0 0 -.0046 169.977 80.14)" clip-path="url(#d)"/><path d="M4371 12289c-1187-91-2310-996-3148-2539-497-915-877-2039-1063-3145C18 5755-16 4868 65 4125c103-935 365-1717 787-2348 288-430 687-802 1168-1090C3247-45 4924-202 6395 277c669 218 1240 546 1737 999 418 381 710 830 923 1420 223 615 339 1429 321 2244-34 1539-408 3077-1077 4420-495 995-1071 1727-1771 2252-655 492-1423 733-2157 677zm400-689c405-40 777-180 1159-435 660-441 1255-1189 1736-2180 452-932 758-1986 889-3055 176-1443 29-2662-421-3491-123-226-263-407-475-614-624-611-1455-984-2460-1107-160-19-232-22-549-22-315 0-390 3-547 22-1111 136-2003 599-2539 1319-362 486-615 1164-724 1938-78 558-89 1105-35 1750 124 1476 591 2942 1302 4088 469 755 1042 1319 1618 1593 342 163 697 228 1046 194z" style="fill:#bababa;fill-opacity:1;fill-rule:nonzero;stroke:none" transform="matrix(.0046 0 0 -.0046 245.568 80.14)" clip-path="url(#e)"/><path d="M7454 4881c-55-14-135-64-175-109-47-54-74-123-100-261-47-249-126-517-226-771-76-192-120-284-211-435-269-448-725-855-1296-1156-71-38-147-86-168-105-86-84-109-226-55-336 73-149 255-221 424-170 120 37 497 258 728 427 249 181 572 487 740 699 254 321 434 663 581 1101 111 334 201 726 191 836-9 107-83 209-184 256-56 26-191 39-249 24z" style="fill:#bababa;fill-opacity:1;fill-rule:nonzero;stroke:none" transform="matrix(.0046 0 0 -.0046 245.568 80.14)" clip-path="url(#f)"/><path d="M4371 12289c-1187-91-2310-996-3148-2539-497-915-877-2039-1063-3145C18 5755-16 4868 65 4125c103-935 365-1717 787-2348 288-430 687-802 1168-1090C3247-45 4924-202 6395 277c669 218 1240 546 1737 999 418 381 710 830 923 1420 223 615 339 1429 321 2244-34 1539-408 3077-1077 4420-495 995-1071 1727-1771 2252-655 492-1423 733-2157 677zm400-689c405-40 777-180 1159-435 660-441 1255-1189 1736-2180 452-932 758-1986 889-3055 176-1443 29-2662-421-3491-123-226-263-407-475-614-624-611-1455-984-2460-1107-160-19-232-22-549-22-315 0-390 3-547 22-1111 136-2003 599-2539 1319-362 486-615 1164-724 1938-78 558-89 1105-35 1750 124 1476 591 2942 1302 4088 469 755 1042 1319 1618 1593 342 163 697 228 1046 194z" style="fill:#bababa;fill-opacity:1;fill-rule:nonzero;stroke:none" transform="matrix(.0046 0 0 -.0046 472.339 80.14)" clip-path="url(#g)"/><path d="M7454 4881c-55-14-135-64-175-109-47-54-74-123-100-261-47-249-126-517-226-771-76-192-120-284-211-435-269-448-725-855-1296-1156-71-38-147-86-168-105-86-84-109-226-55-336 73-149 255-221 424-170 120 37 497 258 728 427 249 181 572 487 740 699 254 321 434 663 581 1101 111 334 201 726 191 836-9 107-83 209-184 256-56 26-191 39-249 24z" style="fill:#bababa;fill-opacity:1;fill-rule:nonzero;stroke:none" transform="matrix(.0046 0 0 -.0046 472.339 80.14)" clip-path="url(#h)"/><path d="M-28.347-28.347v45.272c0 11.005 8.921 19.926 19.926 19.926H8.42c11.005 0 19.926-8.92 19.926-19.926V-8.42c0-11.005 0-11.005 0 0v25.346c0 11.005 8.92 19.926 19.925 19.926h16.843c11.005 0 19.925-8.92 19.925-19.926V-8.42c0-11.005 0-11.005 0 0v25.346c0 11.005 8.921 19.926 19.926 19.926h16.843c11.004 0 19.925-8.92 19.925-19.926V-8.42c0-11.005 0-11.005 0 0v25.346c0 11.005 8.92 19.926 19.926 19.926h16.842c11.005 0 19.926-8.92 19.926-19.926V-8.42c0-11.005 0-11.005 0 0v25.346c0 11.005 8.92 19.926 19.925 19.926h16.843c11.004 0 19.925-8.92 19.925-19.926V-8.42c0-11.005 0-11.005 0 0v25.346c0 11.005 8.921 19.926 19.926 19.926h16.842c11.005 0 19.926-8.92 19.926-19.926V-8.42c0-11.005 0-11.005 0 0v25.346c0 11.005 8.92 19.926 19.925 19.926h16.843c11.005 0 19.926-8.92 19.926-19.926v-45.272" style="fill:none;stroke:#bababa;stroke-width:2.98883;stroke-linecap:butt;stroke-linejoin:miter;stroke-miterlimit:10;stroke-dasharray:none;stroke-opacity:1" transform="matrix(1.33333 0 0 -1.33333 40.455 51.793)"/></svg>