<?xml version="1.0" encoding="utf-8" standalone="no"?>
<!DOCTYPE svg PUBLIC "-//W3C//DTD SVG 1.1//EN"
  "http://www.w3.org/Graphics/SVG/1.1/DTD/svg11.dtd">
<svg xmlns:xlink="http://www.w3.org/1999/xlink" width="1296pt" height="864pt" viewBox="0 0 1296 864" xmlns="http://www.w3.org/2000/svg" version="1.1">
 <metadata>
  <rdf:RDF xmlns:dc="http://purl.org/dc/elements/1.1/" xmlns:cc="http://creativecommons.org/ns#" xmlns:rdf="http://www.w3.org/1999/02/22-rdf-syntax-ns#">
   <cc:Work>
    <dc:type rdf:resource="http://purl.org/dc/dcmitype/StillImage"/>
    <dc:date>2024-01-12T04:01:46.630732</dc:date>
    <dc:format>image/svg+xml</dc:format>
    <dc:creator>
     <cc:Agent>
      <dc:title>Matplotlib v3.8.2, https://matplotlib.org/</dc:title>
     </cc:Agent>
    </dc:creator>
   </cc:Work>
  </rdf:RDF>
 </metadata>
 <defs>
  <style type="text/css">*{stroke-linejoin: round; stroke-linecap: butt}</style>
 </defs>
 <g id="figure_1">
  <g id="patch_1">
   <path d="M 0 864 
L 1296 864 
L 1296 0 
L 0 0 
L 0 864 
z
" style="fill: none"/>
  </g>
  <g id="axes_1">
   <g id="patch_2">
    <path d="M 160.056 810.5184 
L 1174.824 810.5184 
Q 1242.4752 810.5184 1242.4752 768.528 
L 1242.4752 138.672 
Q 1242.4752 96.6816 1174.824 96.6816 
L 160.056 96.6816 
Q 92.4048 96.6816 92.4048 138.672 
L 92.4048 768.528 
Q 92.4048 810.5184 160.056 810.5184 
L 160.056 810.5184 
z
" style="fill: none; stroke: #000000; stroke-width: 1.5; stroke-linejoin: miter"/>
   </g>
   <g id="patch_3">
    <path d="M 167.889567 803.52 
L 225.036082 803.52 
L 225.036082 629.174786 
L 167.889567 629.174786 
z
" clip-path="url(#p41d198ca85)" style="fill: #afad6a; opacity: 0.9"/>
   </g>
   <g id="patch_4">
    <path d="M 424.727836 803.52 
L 481.874351 803.52 
L 481.874351 689.865333 
L 424.727836 689.865333 
z
" clip-path="url(#p8d747afdf2)" style="fill: #afad6a; opacity: 0.9"/>
   </g>
   <g id="patch_5">
    <path d="M 681.566105 803.52 
L 738.71262 803.52 
L 738.71262 137.005714 
L 681.566105 137.005714 
z
" clip-path="url(#pca3eb4f494)" style="fill: #afad6a; opacity: 0.9"/>
   </g>
   <g id="patch_6">
    <path d="M 938.404374 803.52 
L 995.550888 803.52 
L 995.550888 597.588897 
L 938.404374 597.588897 
z
" clip-path="url(#p1865355f4b)" style="fill: #afad6a; opacity: 0.9"/>
   </g>
   <g id="patch_7">
    <path d="M 225.036082 803.52 
L 282.182597 803.52 
L 282.182597 649.261345 
L 225.036082 649.261345 
z
" clip-path="url(#pa69bff7960)" style="fill: #fabd19; opacity: 0.9"/>
   </g>
   <g id="patch_8">
    <path d="M 481.874351 803.52 
L 539.020866 803.52 
L 539.020866 697.520868 
L 481.874351 697.520868 
z
" clip-path="url(#p3c4b886b2e)" style="fill: #fabd19; opacity: 0.9"/>
   </g>
   <g id="patch_9">
    <path d="M 738.71262 803.52 
L 795.859134 803.52 
L 795.859134 143.94803 
L 738.71262 143.94803 
z
" clip-path="url(#pfffbe0bdfd)" style="fill: #fabd19; opacity: 0.9"/>
   </g>
   <g id="patch_10">
    <path d="M 995.550888 803.52 
L 1052.697403 803.52 
L 1052.697403 606.258143 
L 995.550888 606.258143 
z
" clip-path="url(#p3571dd2caa)" style="fill: #fabd19; opacity: 0.9"/>
   </g>
   <g id="patch_11">
    <path d="M 282.182597 803.52 
L 339.329112 803.52 
L 339.329112 714.34659 
L 282.182597 714.34659 
z
" clip-path="url(#pb3ebccbb44)" style="fill: #fa9a19; opacity: 0.9"/>
   </g>
   <g id="patch_12">
    <path d="M 539.020866 803.52 
L 596.16738 803.52 
L 596.16738 702.54242 
L 539.020866 702.54242 
z
" clip-path="url(#pb30df9fc8d)" style="fill: #fa9a19; opacity: 0.9"/>
   </g>
   <g id="patch_13">
    <path d="M 795.859134 803.52 
L 853.005649 803.52 
L 853.005649 138.960442 
L 795.859134 138.960442 
z
" clip-path="url(#p756b89681f)" style="fill: #fa9a19; opacity: 0.9"/>
   </g>
   <g id="patch_14">
    <path d="M 1052.697403 803.52 
L 1109.843918 803.52 
L 1109.843918 672.761078 
L 1052.697403 672.761078 
z
" clip-path="url(#p1f3aee9173)" style="fill: #fa9a19; opacity: 0.9"/>
   </g>
   <g id="patch_15">
    <path d="M 339.329112 803.52 
L 396.475626 803.52 
L 396.475626 677.993765 
L 339.329112 677.993765 
z
" clip-path="url(#p0e553b2764)" style="fill: #4536b0; opacity: 0.9"/>
   </g>
   <g id="patch_16">
    <path d="M 596.16738 803.52 
L 653.313895 803.52 
L 653.313895 705.636896 
L 596.16738 705.636896 
z
" clip-path="url(#p49d3517dc5)" style="fill: #4536b0; opacity: 0.9"/>
   </g>
   <g id="patch_17">
    <path d="M 853.005649 803.52 
L 910.152164 803.52 
L 910.152164 140.362446 
L 853.005649 140.362446 
z
" clip-path="url(#p45721fe274)" style="fill: #4536b0; opacity: 0.9"/>
   </g>
   <g id="patch_18">
    <path d="M 1109.843918 803.52 
L 1166.990433 803.52 
L 1166.990433 641.43029 
L 1109.843918 641.43029 
z
" clip-path="url(#p98f595b25e)" style="fill: #4536b0; opacity: 0.9"/>
   </g>
   <g id="matplotlib.axis_1">
    <g id="xtick_1">
     <g id="line2d_1">
      <path d="M 282.182597 803.52 
L 282.182597 103.68 
" clip-path="url(#p8ca1bd3f3c)" style="fill: none; stroke: #000000; stroke-opacity: 0; stroke-linecap: round"/>
     </g>
     <g id="line2d_2"/>
     <g id="text_1">
      <!-- if-statements -->
      <g transform="translate(195.829472 796.28) scale(0.24 -0.24)">
       <defs>
        <path id="Poppins-Bold-69" d="M 275 4576 
Q 275 4826 454 4989 
Q 634 5152 928 5152 
Q 1222 5152 1401 4989 
Q 1581 4826 1581 4576 
Q 1581 4333 1401 4169 
Q 1222 4006 928 4006 
Q 634 4006 454 4169 
Q 275 4333 275 4576 
z
M 1472 3571 
L 1472 0 
L 378 0 
L 378 3571 
L 1472 3571 
z
" transform="scale(0.015625)"/>
        <path id="Poppins-Bold-66" d="M 2131 4058 
Q 1862 4058 1740 3942 
Q 1619 3827 1606 3571 
L 2253 3571 
L 2253 2650 
L 1606 2650 
L 1606 0 
L 512 0 
L 512 2650 
L 83 2650 
L 83 3571 
L 512 3571 
L 512 3610 
Q 512 4275 899 4636 
Q 1286 4998 2022 4998 
Q 2176 4998 2253 4992 
L 2253 4051 
L 2131 4058 
z
" transform="scale(0.015625)"/>
        <path id="Poppins-Bold-2d" d="M 2861 2701 
L 2861 1792 
L 38 1792 
L 38 2701 
L 2861 2701 
z
" transform="scale(0.015625)"/>
        <path id="Poppins-Bold-73" d="M 1677 3616 
Q 2355 3616 2761 3277 
Q 3168 2938 3270 2381 
L 2246 2381 
Q 2202 2598 2045 2723 
Q 1888 2848 1651 2848 
Q 1466 2848 1370 2768 
Q 1274 2688 1274 2541 
Q 1274 2374 1450 2291 
Q 1626 2208 2003 2125 
Q 2413 2029 2675 1929 
Q 2938 1830 3130 1606 
Q 3322 1382 3322 1005 
Q 3322 698 3155 461 
Q 2989 224 2675 89 
Q 2362 -45 1933 -45 
Q 1210 -45 774 275 
Q 339 595 243 1190 
L 1299 1190 
Q 1325 960 1494 838 
Q 1664 717 1933 717 
Q 2118 717 2214 803 
Q 2310 890 2310 1030 
Q 2310 1216 2134 1296 
Q 1958 1376 1562 1466 
Q 1165 1549 909 1645 
Q 653 1741 467 1955 
Q 282 2170 282 2541 
Q 282 3021 646 3318 
Q 1011 3616 1677 3616 
z
" transform="scale(0.015625)"/>
        <path id="Poppins-Bold-74" d="M 2400 941 
L 2400 0 
L 1907 0 
Q 1280 0 931 310 
Q 582 621 582 1338 
L 582 2650 
L 102 2650 
L 102 3571 
L 582 3571 
L 582 4448 
L 1677 4448 
L 1677 3571 
L 2394 3571 
L 2394 2650 
L 1677 2650 
L 1677 1318 
Q 1677 1107 1763 1024 
Q 1850 941 2054 941 
L 2400 941 
z
" transform="scale(0.015625)"/>
        <path id="Poppins-Bold-61" d="M 1734 3616 
Q 2144 3616 2438 3430 
Q 2733 3245 2874 2925 
L 2874 3571 
L 3962 3571 
L 3962 0 
L 2874 0 
L 2874 646 
Q 2733 326 2438 140 
Q 2144 -45 1734 -45 
Q 1293 -45 944 176 
Q 595 397 393 813 
Q 192 1229 192 1786 
Q 192 2349 393 2761 
Q 595 3174 944 3395 
Q 1293 3616 1734 3616 
z
M 2086 2656 
Q 1734 2656 1520 2425 
Q 1306 2195 1306 1786 
Q 1306 1376 1520 1145 
Q 1734 915 2086 915 
Q 2432 915 2653 1152 
Q 2874 1389 2874 1786 
Q 2874 2189 2653 2422 
Q 2432 2656 2086 2656 
z
" transform="scale(0.015625)"/>
        <path id="Poppins-Bold-65" d="M 3770 1882 
Q 3770 1747 3738 1587 
L 1261 1587 
Q 1280 1184 1465 1008 
Q 1651 832 1939 832 
Q 2182 832 2342 953 
Q 2502 1075 2554 1267 
L 3712 1267 
Q 3642 890 3405 592 
Q 3168 294 2803 124 
Q 2438 -45 1990 -45 
Q 1466 -45 1059 176 
Q 653 397 422 813 
Q 192 1229 192 1786 
Q 192 2349 419 2761 
Q 646 3174 1056 3395 
Q 1466 3616 1990 3616 
Q 2522 3616 2925 3398 
Q 3328 3181 3549 2787 
Q 3770 2394 3770 1882 
z
M 2662 2048 
Q 2669 2400 2473 2576 
Q 2278 2752 1990 2752 
Q 1690 2752 1491 2573 
Q 1293 2394 1267 2048 
L 2662 2048 
z
" transform="scale(0.015625)"/>
        <path id="Poppins-Bold-6d" d="M 5005 3610 
Q 5664 3610 6041 3203 
Q 6419 2797 6419 2074 
L 6419 0 
L 5331 0 
L 5331 1946 
Q 5331 2285 5148 2473 
Q 4966 2662 4653 2662 
Q 4326 2662 4137 2460 
Q 3949 2259 3949 1894 
L 3949 0 
L 2854 0 
L 2854 1946 
Q 2854 2285 2675 2473 
Q 2496 2662 2182 2662 
Q 1856 2662 1664 2464 
Q 1472 2266 1472 1894 
L 1472 0 
L 378 0 
L 378 3571 
L 1472 3571 
L 1472 2963 
Q 1613 3264 1904 3437 
Q 2195 3610 2586 3610 
Q 2995 3610 3308 3421 
Q 3622 3232 3782 2880 
Q 3968 3213 4291 3411 
Q 4614 3610 5005 3610 
z
" transform="scale(0.015625)"/>
        <path id="Poppins-Bold-6e" d="M 2643 3610 
Q 3258 3610 3619 3200 
Q 3981 2790 3981 2074 
L 3981 0 
L 2886 0 
L 2886 1946 
Q 2886 2304 2697 2505 
Q 2509 2707 2195 2707 
Q 1862 2707 1667 2496 
Q 1472 2285 1472 1894 
L 1472 0 
L 378 0 
L 378 3571 
L 1472 3571 
L 1472 2918 
Q 1626 3238 1930 3424 
Q 2234 3610 2643 3610 
z
" transform="scale(0.015625)"/>
       </defs>
       <use xlink:href="#Poppins-Bold-69"/>
       <use xlink:href="#Poppins-Bold-66" x="28.899994"/>
       <use xlink:href="#Poppins-Bold-2d" x="65.699982"/>
       <use xlink:href="#Poppins-Bold-73" x="119.999969"/>
       <use xlink:href="#Poppins-Bold-74" x="175.499954"/>
       <use xlink:href="#Poppins-Bold-61" x="216.699951"/>
       <use xlink:href="#Poppins-Bold-74" x="284.499939"/>
       <use xlink:href="#Poppins-Bold-65" x="325.699936"/>
       <use xlink:href="#Poppins-Bold-6d" x="387.59993"/>
       <use xlink:href="#Poppins-Bold-65" x="493.399918"/>
       <use xlink:href="#Poppins-Bold-6e" x="555.299911"/>
       <use xlink:href="#Poppins-Bold-74" x="622.899902"/>
       <use xlink:href="#Poppins-Bold-73" x="664.099899"/>
      </g>
     </g>
    </g>
    <g id="xtick_2">
     <g id="line2d_3">
      <path d="M 539.020866 803.52 
L 539.020866 103.68 
" clip-path="url(#p65accb1d8c)" style="fill: none; stroke: #000000; stroke-opacity: 0; stroke-linecap: round"/>
     </g>
     <g id="line2d_4"/>
     <g id="text_2">
      <!-- ternary -->
      <g transform="translate(492.352116 796.28) scale(0.24 -0.24)">
       <defs>
        <path id="Poppins-Bold-72" d="M 1472 2899 
Q 1677 3226 2000 3418 
Q 2323 3610 2701 3610 
L 2701 2438 
L 2387 2438 
Q 1952 2438 1712 2252 
Q 1472 2067 1472 1626 
L 1472 0 
L 378 0 
L 378 3571 
L 1472 3571 
L 1472 2899 
z
" transform="scale(0.015625)"/>
        <path id="Poppins-Bold-79" d="M 1203 3571 
L 2061 1382 
L 2861 3571 
L 4070 3571 
L 1843 -1702 
L 640 -1702 
L 1478 134 
L -19 3571 
L 1203 3571 
z
" transform="scale(0.015625)"/>
       </defs>
       <use xlink:href="#Poppins-Bold-74"/>
       <use xlink:href="#Poppins-Bold-65" x="41.199997"/>
       <use xlink:href="#Poppins-Bold-72" x="103.099991"/>
       <use xlink:href="#Poppins-Bold-6e" x="146.599976"/>
       <use xlink:href="#Poppins-Bold-61" x="214.199966"/>
       <use xlink:href="#Poppins-Bold-72" x="281.999954"/>
       <use xlink:href="#Poppins-Bold-79" x="325.499939"/>
      </g>
     </g>
    </g>
    <g id="xtick_3">
     <g id="line2d_5">
      <path d="M 795.859134 803.52 
L 795.859134 103.68 
" clip-path="url(#p250d4b4693)" style="fill: none; stroke: #000000; stroke-opacity: 0; stroke-linecap: round"/>
     </g>
     <g id="line2d_6"/>
     <g id="text_3">
      <!-- datetime-add -->
      <g transform="translate(707.754759 796.28) scale(0.24 -0.24)">
       <defs>
        <path id="Poppins-Bold-64" d="M 1734 3616 
Q 2144 3616 2438 3430 
Q 2733 3245 2867 2925 
L 2867 4736 
L 3962 4736 
L 3962 0 
L 2867 0 
L 2867 646 
Q 2733 326 2438 140 
Q 2144 -45 1734 -45 
Q 1293 -45 944 176 
Q 595 397 393 813 
Q 192 1229 192 1786 
Q 192 2349 393 2761 
Q 595 3174 944 3395 
Q 1293 3616 1734 3616 
z
M 2086 2656 
Q 1734 2656 1520 2425 
Q 1306 2195 1306 1786 
Q 1306 1376 1520 1145 
Q 1734 915 2086 915 
Q 2432 915 2653 1152 
Q 2874 1389 2874 1786 
Q 2874 2189 2653 2422 
Q 2432 2656 2086 2656 
z
" transform="scale(0.015625)"/>
       </defs>
       <use xlink:href="#Poppins-Bold-64"/>
       <use xlink:href="#Poppins-Bold-61" x="67.799988"/>
       <use xlink:href="#Poppins-Bold-74" x="135.599976"/>
       <use xlink:href="#Poppins-Bold-65" x="176.799973"/>
       <use xlink:href="#Poppins-Bold-74" x="238.699966"/>
       <use xlink:href="#Poppins-Bold-69" x="279.899963"/>
       <use xlink:href="#Poppins-Bold-6d" x="308.799957"/>
       <use xlink:href="#Poppins-Bold-65" x="414.599945"/>
       <use xlink:href="#Poppins-Bold-2d" x="476.499939"/>
       <use xlink:href="#Poppins-Bold-61" x="530.799927"/>
       <use xlink:href="#Poppins-Bold-64" x="598.599915"/>
       <use xlink:href="#Poppins-Bold-64" x="666.399902"/>
      </g>
     </g>
    </g>
    <g id="xtick_4">
     <g id="line2d_7">
      <path d="M 1052.697403 803.52 
L 1052.697403 103.68 
" clip-path="url(#p974cdcc0ef)" style="fill: none; stroke: #000000; stroke-opacity: 0; stroke-linecap: round"/>
     </g>
     <g id="line2d_8"/>
     <g id="text_4">
      <!-- calendar-isleap -->
      <g transform="translate(952.879903 797.84) scale(0.24 -0.24)">
       <defs>
        <path id="Poppins-Bold-63" d="M 1990 3616 
Q 2682 3616 3149 3235 
Q 3616 2854 3738 2189 
L 2579 2189 
Q 2528 2419 2368 2547 
Q 2208 2675 1965 2675 
Q 1677 2675 1491 2448 
Q 1306 2221 1306 1786 
Q 1306 1350 1491 1123 
Q 1677 896 1965 896 
Q 2208 896 2368 1024 
Q 2528 1152 2579 1382 
L 3738 1382 
Q 3616 717 3149 336 
Q 2682 -45 1990 -45 
Q 1466 -45 1059 176 
Q 653 397 422 813 
Q 192 1229 192 1786 
Q 192 2349 419 2761 
Q 646 3174 1056 3395 
Q 1466 3616 1990 3616 
z
" transform="scale(0.015625)"/>
        <path id="Poppins-Bold-6c" d="M 1472 4736 
L 1472 0 
L 378 0 
L 378 4736 
L 1472 4736 
z
" transform="scale(0.015625)"/>
        <path id="Poppins-Bold-70" d="M 2605 3616 
Q 3046 3616 3395 3395 
Q 3744 3174 3945 2761 
Q 4147 2349 4147 1786 
Q 4147 1229 3945 813 
Q 3744 397 3395 176 
Q 3046 -45 2605 -45 
Q 2195 -45 1900 140 
Q 1606 326 1472 646 
L 1472 -1702 
L 378 -1702 
L 378 3571 
L 1472 3571 
L 1472 2925 
Q 1606 3245 1900 3430 
Q 2195 3616 2605 3616 
z
M 2253 2656 
Q 1907 2656 1686 2422 
Q 1466 2189 1466 1786 
Q 1466 1389 1686 1152 
Q 1907 915 2253 915 
Q 2605 915 2819 1145 
Q 3034 1376 3034 1786 
Q 3034 2195 2819 2425 
Q 2605 2656 2253 2656 
z
" transform="scale(0.015625)"/>
       </defs>
       <use xlink:href="#Poppins-Bold-63"/>
       <use xlink:href="#Poppins-Bold-61" x="61.399994"/>
       <use xlink:href="#Poppins-Bold-6c" x="129.199982"/>
       <use xlink:href="#Poppins-Bold-65" x="158.099976"/>
       <use xlink:href="#Poppins-Bold-6e" x="219.999969"/>
       <use xlink:href="#Poppins-Bold-64" x="287.59996"/>
       <use xlink:href="#Poppins-Bold-61" x="355.399948"/>
       <use xlink:href="#Poppins-Bold-72" x="423.199936"/>
       <use xlink:href="#Poppins-Bold-2d" x="466.699921"/>
       <use xlink:href="#Poppins-Bold-69" x="520.999908"/>
       <use xlink:href="#Poppins-Bold-73" x="549.899902"/>
       <use xlink:href="#Poppins-Bold-6c" x="605.399887"/>
       <use xlink:href="#Poppins-Bold-65" x="634.299881"/>
       <use xlink:href="#Poppins-Bold-61" x="696.199875"/>
       <use xlink:href="#Poppins-Bold-70" x="763.999863"/>
      </g>
     </g>
    </g>
   </g>
   <g id="matplotlib.axis_2">
    <g id="ytick_1">
     <g id="line2d_9"/>
    </g>
    <g id="ytick_2">
     <g id="line2d_10">
      <path d="M 103.68 705.853467 
L 1231.2 705.853467 
" clip-path="url(#p27308d2837)" style="fill: none; stroke-dasharray: 2,3.3; stroke-dashoffset: 0; stroke: #000000; stroke-width: 2"/>
     </g>
     <g id="line2d_11"/>
     <g id="text_5">
      <!-- $\mathdefault{1}$ -->
      <g transform="translate(120.04 714.733467) scale(0.24 -0.24)">
       <defs>
        <path id="Poppins-Bold-31" d="M 70 3501 
L 70 4525 
L 1901 4525 
L 1901 0 
L 749 0 
L 749 3501 
L 70 3501 
z
" transform="scale(0.015625)"/>
       </defs>
       <use xlink:href="#Poppins-Bold-31" transform="translate(0 0.296875)"/>
      </g>
     </g>
    </g>
    <g id="ytick_3">
     <g id="line2d_12">
      <path d="M 103.68 608.186933 
L 1231.2 608.186933 
" clip-path="url(#p1eb97969d3)" style="fill: none; stroke-dasharray: 2,3.3; stroke-dashoffset: 0; stroke: #000000; stroke-width: 2"/>
     </g>
     <g id="line2d_13"/>
     <g id="text_6">
      <!-- $\mathdefault{2}$ -->
      <g transform="translate(115 617.066933) scale(0.24 -0.24)">
       <defs>
        <path id="Poppins-Bold-32" d="M 218 870 
Q 2253 2323 2253 3181 
Q 2253 3706 1798 3706 
Q 1542 3706 1424 3526 
Q 1306 3347 1293 2970 
L 224 2970 
Q 262 3795 723 4211 
Q 1184 4627 1888 4627 
Q 2624 4627 2998 4256 
Q 3373 3885 3373 3290 
Q 3373 2630 2867 2000 
Q 2362 1370 1658 934 
L 3443 934 
L 3443 51 
L 218 51 
L 218 870 
z
" transform="scale(0.015625)"/>
       </defs>
       <use xlink:href="#Poppins-Bold-32" transform="translate(0 0.703125)"/>
      </g>
     </g>
    </g>
    <g id="ytick_4">
     <g id="line2d_14"/>
     <g id="text_7">
      <!-- $\mathdefault{3}$ -->
      <g transform="translate(114.04 519.4004) scale(0.24 -0.24)">
       <defs>
        <path id="Poppins-Bold-33" d="M 1933 4723 
Q 2406 4723 2745 4560 
Q 3085 4397 3261 4112 
Q 3437 3827 3437 3469 
Q 3437 3027 3209 2758 
Q 2982 2490 2643 2419 
L 2643 2387 
Q 3520 2106 3520 1293 
Q 3520 902 3341 598 
Q 3162 294 2819 124 
Q 2477 -45 1997 -45 
Q 1216 -45 758 339 
Q 301 723 262 1510 
L 1331 1510 
Q 1344 1210 1497 1037 
Q 1651 864 1946 864 
Q 2182 864 2320 1005 
Q 2458 1146 2458 1370 
Q 2458 1926 1651 1926 
L 1446 1926 
L 1446 2816 
L 1645 2816 
Q 2368 2803 2368 3334 
Q 2368 3565 2243 3689 
Q 2118 3814 1907 3814 
Q 1677 3814 1542 3657 
Q 1408 3501 1389 3238 
L 320 3238 
Q 352 3955 768 4339 
Q 1184 4723 1933 4723 
z
" transform="scale(0.015625)"/>
       </defs>
       <use xlink:href="#Poppins-Bold-33" transform="translate(0 0.203125)"/>
      </g>
     </g>
    </g>
    <g id="ytick_5">
     <g id="line2d_15"/>
     <g id="text_8">
      <!-- $\mathdefault{4}$ -->
      <g transform="translate(112.36 421.733866) scale(0.24 -0.24)">
       <defs>
        <path id="Poppins-Bold-34" d="M 282 832 
L 282 1747 
L 2349 4582 
L 3526 4582 
L 3526 1786 
L 4070 1786 
L 4070 832 
L 3526 832 
L 3526 0 
L 2419 0 
L 2419 832 
L 282 832 
z
M 2509 3315 
L 1395 1786 
L 2509 1786 
L 2509 3315 
z
" transform="scale(0.015625)"/>
       </defs>
       <use xlink:href="#Poppins-Bold-34" transform="translate(0 0.40625)"/>
      </g>
     </g>
    </g>
    <g id="ytick_6">
     <g id="line2d_16"/>
     <g id="text_9">
      <!-- $\mathdefault{5}$ -->
      <g transform="translate(113.08 324.067333) scale(0.24 -0.24)">
       <defs>
        <path id="Poppins-Bold-35" d="M 3610 3674 
L 1574 3674 
L 1574 2758 
Q 1709 2912 1949 2998 
Q 2189 3085 2470 3085 
Q 2925 3085 3232 2883 
Q 3539 2682 3686 2342 
Q 3834 2003 3834 1594 
Q 3834 851 3418 419 
Q 3002 -13 2246 -13 
Q 1734 -13 1356 169 
Q 979 352 774 678 
Q 570 1005 557 1434 
L 1626 1434 
Q 1658 1216 1802 1075 
Q 1946 934 2195 934 
Q 2483 934 2627 1120 
Q 2771 1306 2771 1613 
Q 2771 1907 2617 2067 
Q 2464 2227 2189 2227 
Q 1978 2227 1837 2134 
Q 1696 2042 1645 1894 
L 582 1894 
L 582 4634 
L 3610 4634 
L 3610 3674 
z
" transform="scale(0.015625)"/>
       </defs>
       <use xlink:href="#Poppins-Bold-35" transform="translate(0 0.59375)"/>
      </g>
     </g>
    </g>
    <g id="ytick_7">
     <g id="line2d_17"/>
     <g id="text_10">
      <!-- $\mathdefault{6}$ -->
      <g transform="translate(113.56 226.400799) scale(0.24 -0.24)">
       <defs>
        <path id="Poppins-Bold-36" d="M 2560 3277 
Q 2515 3552 2384 3693 
Q 2253 3834 2010 3834 
Q 1638 3834 1481 3491 
Q 1325 3149 1338 2438 
Q 1446 2701 1712 2851 
Q 1978 3002 2330 3002 
Q 2970 3002 3341 2614 
Q 3712 2227 3712 1504 
Q 3712 1050 3526 698 
Q 3341 346 2979 150 
Q 2618 -45 2112 -45 
Q 1120 -45 742 569 
Q 365 1184 365 2272 
Q 365 3526 768 4118 
Q 1171 4710 2080 4710 
Q 2797 4710 3168 4304 
Q 3539 3898 3584 3277 
L 2560 3277 
z
M 1421 1555 
Q 1421 1261 1587 1078 
Q 1754 896 2074 896 
Q 2362 896 2525 1056 
Q 2688 1216 2688 1523 
Q 2688 1830 2521 1993 
Q 2355 2157 2067 2157 
Q 1792 2157 1606 2000 
Q 1421 1843 1421 1555 
z
" transform="scale(0.015625)"/>
       </defs>
       <use xlink:href="#Poppins-Bold-36" transform="translate(0 0.40625)"/>
      </g>
     </g>
    </g>
    <g id="ytick_8">
     <g id="line2d_18">
      <path d="M 103.68 119.854266 
L 1231.2 119.854266 
" clip-path="url(#p5622a62457)" style="fill: none; stroke-dasharray: 2,3.3; stroke-dashoffset: 0; stroke: #000000; stroke-width: 2"/>
     </g>
     <g id="line2d_19"/>
     <g id="text_11">
      <!-- $\mathdefault{7}$ -->
      <g transform="translate(116.44 128.734266) scale(0.24 -0.24)">
       <defs>
        <path id="Poppins-Bold-37" d="M 3149 3757 
L 1530 0 
L 397 0 
L 2035 3629 
L 115 3629 
L 115 4570 
L 3149 4570 
L 3149 3757 
z
" transform="scale(0.015625)"/>
       </defs>
       <use xlink:href="#Poppins-Bold-37" transform="translate(0 0.59375)"/>
      </g>
     </g>
    </g>
    <g id="text_12">
     <!-- $\times\mathdefault{10^{−7}}\mathdefault{}$ -->
     <g transform="translate(103.68 100.68) scale(0.14 -0.14)">
      <defs>
       <path id="Cmsy10-a3" d="M 941 184 
Q 941 234 972 275 
L 2303 1600 
L 972 2931 
Q 941 2963 941 3016 
Q 941 3063 978 3103 
Q 1016 3144 1069 3144 
Q 1113 3144 1166 3103 
L 2491 1778 
L 3809 3103 
Q 3863 3144 3903 3144 
Q 3956 3144 3993 3106 
Q 4031 3069 4031 3016 
Q 4031 2963 4000 2931 
L 2669 1600 
L 4000 275 
Q 4031 234 4031 184 
Q 4031 131 3993 93 
Q 3956 56 3903 56 
Q 3856 56 3809 103 
L 2491 1422 
L 1166 103 
Q 1119 56 1069 56 
Q 1016 56 978 97 
Q 941 138 941 184 
z
" transform="scale(0.015625)"/>
       <path id="Poppins-Regular-31" d="M 83 3968 
L 83 4512 
L 1376 4512 
L 1376 0 
L 762 0 
L 762 3968 
L 83 3968 
z
" transform="scale(0.015625)"/>
       <path id="Poppins-Regular-30" d="M 365 2285 
Q 365 1197 723 589 
Q 1082 -19 1965 -19 
Q 2848 -19 3209 589 
Q 3571 1197 3571 2285 
Q 3571 3360 3209 3968 
Q 2848 4576 1965 4576 
Q 1082 4576 723 3971 
Q 365 3366 365 2285 
z
M 2995 2285 
Q 2995 1728 2915 1353 
Q 2835 979 2611 755 
Q 2387 531 1965 531 
Q 1549 531 1325 755 
Q 1101 979 1021 1353 
Q 941 1728 941 2285 
Q 941 2835 1021 3206 
Q 1101 3578 1325 3798 
Q 1549 4019 1965 4019 
Q 2387 4019 2611 3798 
Q 2835 3578 2915 3206 
Q 2995 2835 2995 2285 
z
" transform="scale(0.015625)"/>
       <path id="Poppins-Regular-2212" d="M 2771 2592 
L 2771 2099 
L 211 2099 
L 211 2592 
L 2771 2592 
z
" transform="scale(0.015625)"/>
       <path id="Poppins-Regular-37" d="M 3046 4090 
L 1338 0 
L 723 0 
L 2458 4032 
L 90 4032 
L 90 4538 
L 3046 4538 
L 3046 4090 
z
" transform="scale(0.015625)"/>
      </defs>
      <use xlink:href="#Cmsy10-a3" transform="translate(0 0.93125)"/>
      <use xlink:href="#Poppins-Regular-31" transform="translate(77.685547 0.93125)"/>
      <use xlink:href="#Poppins-Regular-30" transform="translate(106.385544 0.93125)"/>
      <use xlink:href="#Poppins-Regular-2212" transform="translate(168.746397 39.365625) scale(0.7)"/>
      <use xlink:href="#Poppins-Regular-37" transform="translate(201.366391 39.365625) scale(0.7)"/>
     </g>
    </g>
   </g>
   <g id="text_13">
    <!-- 1900 -->
    <g transform="translate(175.231575 619.974786) scale(0.2 -0.2)">
     <defs>
      <path id="Poppins-Regular-39" d="M 1024 1267 
Q 1082 864 1306 646 
Q 1530 429 1920 429 
Q 2458 429 2733 845 
Q 3008 1261 3008 2163 
Q 3008 2336 3002 2426 
Q 2912 2042 2566 1811 
Q 2221 1581 1754 1581 
Q 1082 1581 698 1984 
Q 314 2387 314 3110 
Q 314 3533 480 3878 
Q 646 4224 988 4425 
Q 1331 4627 1837 4627 
Q 2810 4627 3171 4028 
Q 3533 3430 3533 2387 
Q 3533 1197 3161 573 
Q 2790 -51 1920 -51 
Q 1274 -51 906 317 
Q 538 685 474 1267 
L 1024 1267 
z
M 2944 3021 
Q 2944 3482 2672 3802 
Q 2400 4122 1856 4122 
Q 1408 4122 1139 3853 
Q 870 3584 870 3104 
Q 870 2592 1139 2317 
Q 1408 2042 1875 2042 
Q 2144 2042 2390 2150 
Q 2637 2259 2790 2483 
Q 2944 2707 2944 3021 
z
" transform="scale(0.015625)"/>
     </defs>
     <use xlink:href="#Poppins-Regular-31"/>
     <use xlink:href="#Poppins-Regular-39" x="28.699997"/>
     <use xlink:href="#Poppins-Regular-30" x="89.499985"/>
     <use xlink:href="#Poppins-Regular-30" x="150.899979"/>
    </g>
   </g>
   <g id="text_14">
    <!-- 1900 -->
    <g transform="translate(432.069843 680.665333) scale(0.2 -0.2)">
     <use xlink:href="#Poppins-Regular-31"/>
     <use xlink:href="#Poppins-Regular-39" x="28.699997"/>
     <use xlink:href="#Poppins-Regular-30" x="89.499985"/>
     <use xlink:href="#Poppins-Regular-30" x="150.899979"/>
    </g>
   </g>
   <g id="text_15">
    <!-- 1900 -->
    <g transform="translate(688.908112 127.805714) scale(0.2 -0.2)">
     <use xlink:href="#Poppins-Regular-31"/>
     <use xlink:href="#Poppins-Regular-39" x="28.699997"/>
     <use xlink:href="#Poppins-Regular-30" x="89.499985"/>
     <use xlink:href="#Poppins-Regular-30" x="150.899979"/>
    </g>
   </g>
   <g id="text_16">
    <!-- 1900 -->
    <g transform="translate(945.746381 588.388897) scale(0.2 -0.2)">
     <use xlink:href="#Poppins-Regular-31"/>
     <use xlink:href="#Poppins-Regular-39" x="28.699997"/>
     <use xlink:href="#Poppins-Regular-30" x="89.499985"/>
     <use xlink:href="#Poppins-Regular-30" x="150.899979"/>
    </g>
   </g>
   <g id="text_17">
    <!-- 2000 -->
    <g transform="translate(229.517152 640.061345) scale(0.2 -0.2)">
     <defs>
      <path id="Poppins-Regular-32" d="M 269 448 
Q 1357 1178 2009 1898 
Q 2662 2618 2662 3238 
Q 2662 3622 2467 3856 
Q 2272 4090 1837 4090 
Q 1389 4090 1158 3805 
Q 928 3520 902 3021 
L 326 3021 
Q 371 3776 793 4182 
Q 1216 4589 1882 4589 
Q 2515 4589 2886 4249 
Q 3258 3910 3258 3290 
Q 3258 2778 2928 2250 
Q 2598 1722 2102 1270 
Q 1606 819 1082 506 
L 3373 506 
L 3373 26 
L 269 26 
L 269 448 
z
" transform="scale(0.015625)"/>
     </defs>
     <use xlink:href="#Poppins-Regular-32"/>
     <use xlink:href="#Poppins-Regular-30" x="56.699997"/>
     <use xlink:href="#Poppins-Regular-30" x="118.099991"/>
     <use xlink:href="#Poppins-Regular-30" x="179.499985"/>
    </g>
   </g>
   <g id="text_18">
    <!-- 2000 -->
    <g transform="translate(486.355421 688.320868) scale(0.2 -0.2)">
     <use xlink:href="#Poppins-Regular-32"/>
     <use xlink:href="#Poppins-Regular-30" x="56.699997"/>
     <use xlink:href="#Poppins-Regular-30" x="118.099991"/>
     <use xlink:href="#Poppins-Regular-30" x="179.499985"/>
    </g>
   </g>
   <g id="text_19">
    <!-- 2000 -->
    <g transform="translate(743.193689 134.74803) scale(0.2 -0.2)">
     <use xlink:href="#Poppins-Regular-32"/>
     <use xlink:href="#Poppins-Regular-30" x="56.699997"/>
     <use xlink:href="#Poppins-Regular-30" x="118.099991"/>
     <use xlink:href="#Poppins-Regular-30" x="179.499985"/>
    </g>
   </g>
   <g id="text_20">
    <!-- 2000 -->
    <g transform="translate(1000.031958 597.058143) scale(0.2 -0.2)">
     <use xlink:href="#Poppins-Regular-32"/>
     <use xlink:href="#Poppins-Regular-30" x="56.699997"/>
     <use xlink:href="#Poppins-Regular-30" x="118.099991"/>
     <use xlink:href="#Poppins-Regular-30" x="179.499985"/>
    </g>
   </g>
   <g id="text_21">
    <!-- 2019 -->
    <g transform="translate(289.994917 705.14659) scale(0.2 -0.2)">
     <use xlink:href="#Poppins-Regular-32"/>
     <use xlink:href="#Poppins-Regular-30" x="56.699997"/>
     <use xlink:href="#Poppins-Regular-31" x="118.099991"/>
     <use xlink:href="#Poppins-Regular-39" x="146.799988"/>
    </g>
   </g>
   <g id="text_22">
    <!-- 2019 -->
    <g transform="translate(546.833186 693.34242) scale(0.2 -0.2)">
     <use xlink:href="#Poppins-Regular-32"/>
     <use xlink:href="#Poppins-Regular-30" x="56.699997"/>
     <use xlink:href="#Poppins-Regular-31" x="118.099991"/>
     <use xlink:href="#Poppins-Regular-39" x="146.799988"/>
    </g>
   </g>
   <g id="text_23">
    <!-- 2019 -->
    <g transform="translate(803.671454 129.760442) scale(0.2 -0.2)">
     <use xlink:href="#Poppins-Regular-32"/>
     <use xlink:href="#Poppins-Regular-30" x="56.699997"/>
     <use xlink:href="#Poppins-Regular-31" x="118.099991"/>
     <use xlink:href="#Poppins-Regular-39" x="146.799988"/>
    </g>
   </g>
   <g id="text_24">
    <!-- 2019 -->
    <g transform="translate(1060.509723 663.561078) scale(0.2 -0.2)">
     <use xlink:href="#Poppins-Regular-32"/>
     <use xlink:href="#Poppins-Regular-30" x="56.699997"/>
     <use xlink:href="#Poppins-Regular-31" x="118.099991"/>
     <use xlink:href="#Poppins-Regular-39" x="146.799988"/>
    </g>
   </g>
   <g id="text_25">
    <!-- 2020 -->
    <g transform="translate(344.280494 668.793765) scale(0.2 -0.2)">
     <use xlink:href="#Poppins-Regular-32"/>
     <use xlink:href="#Poppins-Regular-30" x="56.699997"/>
     <use xlink:href="#Poppins-Regular-32" x="118.099991"/>
     <use xlink:href="#Poppins-Regular-30" x="174.799988"/>
    </g>
   </g>
   <g id="text_26">
    <!-- 2020 -->
    <g transform="translate(601.118763 696.436896) scale(0.2 -0.2)">
     <use xlink:href="#Poppins-Regular-32"/>
     <use xlink:href="#Poppins-Regular-30" x="56.699997"/>
     <use xlink:href="#Poppins-Regular-32" x="118.099991"/>
     <use xlink:href="#Poppins-Regular-30" x="174.799988"/>
    </g>
   </g>
   <g id="text_27">
    <!-- 2020 -->
    <g transform="translate(857.957032 131.162446) scale(0.2 -0.2)">
     <use xlink:href="#Poppins-Regular-32"/>
     <use xlink:href="#Poppins-Regular-30" x="56.699997"/>
     <use xlink:href="#Poppins-Regular-32" x="118.099991"/>
     <use xlink:href="#Poppins-Regular-30" x="174.799988"/>
    </g>
   </g>
   <g id="text_28">
    <!-- 2020 -->
    <g transform="translate(1114.7953 632.23029) scale(0.2 -0.2)">
     <use xlink:href="#Poppins-Regular-32"/>
     <use xlink:href="#Poppins-Regular-30" x="56.699997"/>
     <use xlink:href="#Poppins-Regular-32" x="118.099991"/>
     <use xlink:href="#Poppins-Regular-30" x="174.799988"/>
    </g>
   </g>
  </g>
 </g>
 <defs>
  <clipPath id="p41d198ca85">
   <path d="M 160.056 810.5184 
L 1174.824 810.5184 
Q 1242.4752 810.5184 1242.4752 768.528 
L 1242.4752 138.672 
Q 1242.4752 96.6816 1174.824 96.6816 
L 160.056 96.6816 
Q 92.4048 96.6816 92.4048 138.672 
L 92.4048 768.528 
Q 92.4048 810.5184 160.056 810.5184 
z
"/>
  </clipPath>
  <clipPath id="p8d747afdf2">
   <path d="M 160.056 810.5184 
L 1174.824 810.5184 
Q 1242.4752 810.5184 1242.4752 768.528 
L 1242.4752 138.672 
Q 1242.4752 96.6816 1174.824 96.6816 
L 160.056 96.6816 
Q 92.4048 96.6816 92.4048 138.672 
L 92.4048 768.528 
Q 92.4048 810.5184 160.056 810.5184 
z
"/>
  </clipPath>
  <clipPath id="pca3eb4f494">
   <path d="M 160.056 810.5184 
L 1174.824 810.5184 
Q 1242.4752 810.5184 1242.4752 768.528 
L 1242.4752 138.672 
Q 1242.4752 96.6816 1174.824 96.6816 
L 160.056 96.6816 
Q 92.4048 96.6816 92.4048 138.672 
L 92.4048 768.528 
Q 92.4048 810.5184 160.056 810.5184 
z
"/>
  </clipPath>
  <clipPath id="p1865355f4b">
   <path d="M 160.056 810.5184 
L 1174.824 810.5184 
Q 1242.4752 810.5184 1242.4752 768.528 
L 1242.4752 138.672 
Q 1242.4752 96.6816 1174.824 96.6816 
L 160.056 96.6816 
Q 92.4048 96.6816 92.4048 138.672 
L 92.4048 768.528 
Q 92.4048 810.5184 160.056 810.5184 
z
"/>
  </clipPath>
  <clipPath id="pa69bff7960">
   <path d="M 160.056 810.5184 
L 1174.824 810.5184 
Q 1242.4752 810.5184 1242.4752 768.528 
L 1242.4752 138.672 
Q 1242.4752 96.6816 1174.824 96.6816 
L 160.056 96.6816 
Q 92.4048 96.6816 92.4048 138.672 
L 92.4048 768.528 
Q 92.4048 810.5184 160.056 810.5184 
z
"/>
  </clipPath>
  <clipPath id="p3c4b886b2e">
   <path d="M 160.056 810.5184 
L 1174.824 810.5184 
Q 1242.4752 810.5184 1242.4752 768.528 
L 1242.4752 138.672 
Q 1242.4752 96.6816 1174.824 96.6816 
L 160.056 96.6816 
Q 92.4048 96.6816 92.4048 138.672 
L 92.4048 768.528 
Q 92.4048 810.5184 160.056 810.5184 
z
"/>
  </clipPath>
  <clipPath id="pfffbe0bdfd">
   <path d="M 160.056 810.5184 
L 1174.824 810.5184 
Q 1242.4752 810.5184 1242.4752 768.528 
L 1242.4752 138.672 
Q 1242.4752 96.6816 1174.824 96.6816 
L 160.056 96.6816 
Q 92.4048 96.6816 92.4048 138.672 
L 92.4048 768.528 
Q 92.4048 810.5184 160.056 810.5184 
z
"/>
  </clipPath>
  <clipPath id="p3571dd2caa">
   <path d="M 160.056 810.5184 
L 1174.824 810.5184 
Q 1242.4752 810.5184 1242.4752 768.528 
L 1242.4752 138.672 
Q 1242.4752 96.6816 1174.824 96.6816 
L 160.056 96.6816 
Q 92.4048 96.6816 92.4048 138.672 
L 92.4048 768.528 
Q 92.4048 810.5184 160.056 810.5184 
z
"/>
  </clipPath>
  <clipPath id="pb3ebccbb44">
   <path d="M 160.056 810.5184 
L 1174.824 810.5184 
Q 1242.4752 810.5184 1242.4752 768.528 
L 1242.4752 138.672 
Q 1242.4752 96.6816 1174.824 96.6816 
L 160.056 96.6816 
Q 92.4048 96.6816 92.4048 138.672 
L 92.4048 768.528 
Q 92.4048 810.5184 160.056 810.5184 
z
"/>
  </clipPath>
  <clipPath id="pb30df9fc8d">
   <path d="M 160.056 810.5184 
L 1174.824 810.5184 
Q 1242.4752 810.5184 1242.4752 768.528 
L 1242.4752 138.672 
Q 1242.4752 96.6816 1174.824 96.6816 
L 160.056 96.6816 
Q 92.4048 96.6816 92.4048 138.672 
L 92.4048 768.528 
Q 92.4048 810.5184 160.056 810.5184 
z
"/>
  </clipPath>
  <clipPath id="p756b89681f">
   <path d="M 160.056 810.5184 
L 1174.824 810.5184 
Q 1242.4752 810.5184 1242.4752 768.528 
L 1242.4752 138.672 
Q 1242.4752 96.6816 1174.824 96.6816 
L 160.056 96.6816 
Q 92.4048 96.6816 92.4048 138.672 
L 92.4048 768.528 
Q 92.4048 810.5184 160.056 810.5184 
z
"/>
  </clipPath>
  <clipPath id="p1f3aee9173">
   <path d="M 160.056 810.5184 
L 1174.824 810.5184 
Q 1242.4752 810.5184 1242.4752 768.528 
L 1242.4752 138.672 
Q 1242.4752 96.6816 1174.824 96.6816 
L 160.056 96.6816 
Q 92.4048 96.6816 92.4048 138.672 
L 92.4048 768.528 
Q 92.4048 810.5184 160.056 810.5184 
z
"/>
  </clipPath>
  <clipPath id="p0e553b2764">
   <path d="M 160.056 810.5184 
L 1174.824 810.5184 
Q 1242.4752 810.5184 1242.4752 768.528 
L 1242.4752 138.672 
Q 1242.4752 96.6816 1174.824 96.6816 
L 160.056 96.6816 
Q 92.4048 96.6816 92.4048 138.672 
L 92.4048 768.528 
Q 92.4048 810.5184 160.056 810.5184 
z
"/>
  </clipPath>
  <clipPath id="p49d3517dc5">
   <path d="M 160.056 810.5184 
L 1174.824 810.5184 
Q 1242.4752 810.5184 1242.4752 768.528 
L 1242.4752 138.672 
Q 1242.4752 96.6816 1174.824 96.6816 
L 160.056 96.6816 
Q 92.4048 96.6816 92.4048 138.672 
L 92.4048 768.528 
Q 92.4048 810.5184 160.056 810.5184 
z
"/>
  </clipPath>
  <clipPath id="p45721fe274">
   <path d="M 160.056 810.5184 
L 1174.824 810.5184 
Q 1242.4752 810.5184 1242.4752 768.528 
L 1242.4752 138.672 
Q 1242.4752 96.6816 1174.824 96.6816 
L 160.056 96.6816 
Q 92.4048 96.6816 92.4048 138.672 
L 92.4048 768.528 
Q 92.4048 810.5184 160.056 810.5184 
z
"/>
  </clipPath>
  <clipPath id="p98f595b25e">
   <path d="M 160.056 810.5184 
L 1174.824 810.5184 
Q 1242.4752 810.5184 1242.4752 768.528 
L 1242.4752 138.672 
Q 1242.4752 96.6816 1174.824 96.6816 
L 160.056 96.6816 
Q 92.4048 96.6816 92.4048 138.672 
L 92.4048 768.528 
Q 92.4048 810.5184 160.056 810.5184 
z
"/>
  </clipPath>
  <clipPath id="p8ca1bd3f3c">
   <path d="M 160.056 810.5184 
L 1174.824 810.5184 
Q 1242.4752 810.5184 1242.4752 768.528 
L 1242.4752 138.672 
Q 1242.4752 96.6816 1174.824 96.6816 
L 160.056 96.6816 
Q 92.4048 96.6816 92.4048 138.672 
L 92.4048 768.528 
Q 92.4048 810.5184 160.056 810.5184 
z
"/>
  </clipPath>
  <clipPath id="p65accb1d8c">
   <path d="M 160.056 810.5184 
L 1174.824 810.5184 
Q 1242.4752 810.5184 1242.4752 768.528 
L 1242.4752 138.672 
Q 1242.4752 96.6816 1174.824 96.6816 
L 160.056 96.6816 
Q 92.4048 96.6816 92.4048 138.672 
L 92.4048 768.528 
Q 92.4048 810.5184 160.056 810.5184 
z
"/>
  </clipPath>
  <clipPath id="p250d4b4693">
   <path d="M 160.056 810.5184 
L 1174.824 810.5184 
Q 1242.4752 810.5184 1242.4752 768.528 
L 1242.4752 138.672 
Q 1242.4752 96.6816 1174.824 96.6816 
L 160.056 96.6816 
Q 92.4048 96.6816 92.4048 138.672 
L 92.4048 768.528 
Q 92.4048 810.5184 160.056 810.5184 
z
"/>
  </clipPath>
  <clipPath id="p974cdcc0ef">
   <path d="M 160.056 810.5184 
L 1174.824 810.5184 
Q 1242.4752 810.5184 1242.4752 768.528 
L 1242.4752 138.672 
Q 1242.4752 96.6816 1174.824 96.6816 
L 160.056 96.6816 
Q 92.4048 96.6816 92.4048 138.672 
L 92.4048 768.528 
Q 92.4048 810.5184 160.056 810.5184 
z
"/>
  </clipPath>
  <clipPath id="p27308d2837">
   <path d="M 160.056 810.5184 
L 1174.824 810.5184 
Q 1242.4752 810.5184 1242.4752 768.528 
L 1242.4752 138.672 
Q 1242.4752 96.6816 1174.824 96.6816 
L 160.056 96.6816 
Q 92.4048 96.6816 92.4048 138.672 
L 92.4048 768.528 
Q 92.4048 810.5184 160.056 810.5184 
z
"/>
  </clipPath>
  <clipPath id="p1eb97969d3">
   <path d="M 160.056 810.5184 
L 1174.824 810.5184 
Q 1242.4752 810.5184 1242.4752 768.528 
L 1242.4752 138.672 
Q 1242.4752 96.6816 1174.824 96.6816 
L 160.056 96.6816 
Q 92.4048 96.6816 92.4048 138.672 
L 92.4048 768.528 
Q 92.4048 810.5184 160.056 810.5184 
z
"/>
  </clipPath>
  <clipPath id="p5622a62457">
   <path d="M 160.056 810.5184 
L 1174.824 810.5184 
Q 1242.4752 810.5184 1242.4752 768.528 
L 1242.4752 138.672 
Q 1242.4752 96.6816 1174.824 96.6816 
L 160.056 96.6816 
Q 92.4048 96.6816 92.4048 138.672 
L 92.4048 768.528 
Q 92.4048 810.5184 160.056 810.5184 
z
"/>
  </clipPath>
 </defs>
</svg>
