<?xml version="1.0" encoding="utf-8" standalone="no"?>
<!DOCTYPE svg PUBLIC "-//W3C//DTD SVG 1.1//EN"
  "http://www.w3.org/Graphics/SVG/1.1/DTD/svg11.dtd">
<svg xmlns:xlink="http://www.w3.org/1999/xlink" width="1296pt" height="864pt" viewBox="0 0 1296 864" xmlns="http://www.w3.org/2000/svg" version="1.1">
 <metadata>
  <rdf:RDF xmlns:dc="http://purl.org/dc/elements/1.1/" xmlns:cc="http://creativecommons.org/ns#" xmlns:rdf="http://www.w3.org/1999/02/22-rdf-syntax-ns#">
   <cc:Work>
    <dc:type rdf:resource="http://purl.org/dc/dcmitype/StillImage"/>
    <dc:date>2024-01-12T05:02:33.410617</dc:date>
    <dc:format>image/svg+xml</dc:format>
    <dc:creator>
     <cc:Agent>
      <dc:title>Matplotlib v3.8.2, https://matplotlib.org/</dc:title>
     </cc:Agent>
    </dc:creator>
   </cc:Work>
  </rdf:RDF>
 </metadata>
 <defs>
  <style type="text/css">*{stroke-linejoin: round; stroke-linecap: butt}</style>
 </defs>
 <g id="figure_1">
  <g id="patch_1">
   <path d="M 0 864 
L 1296 864 
L 1296 0 
L 0 0 
L 0 864 
z
" style="fill: none"/>
  </g>
  <g id="axes_1">
   <g id="patch_2">
    <path d="M 212.22 762.5232 
L 1116.18 762.5232 
Q 1176.444 762.5232 1176.444 723.384 
L 1176.444 136.296 
Q 1176.444 97.1568 1116.18 97.1568 
L 212.22 97.1568 
Q 151.956 97.1568 151.956 136.296 
L 151.956 723.384 
Q 151.956 762.5232 212.22 762.5232 
L 212.22 762.5232 
z
" style="fill: none; stroke: #000000; stroke-width: 1.5; stroke-linejoin: miter"/>
   </g>
   <g id="patch_3">
    <path d="M 219.198178 756 
L 270.104556 756 
L 270.104556 621.229956 
L 219.198178 621.229956 
z
" clip-path="url(#p63f10319b5)" style="fill: #afad6a; opacity: 0.9"/>
   </g>
   <g id="patch_4">
    <path d="M 447.990888 756 
L 498.897267 756 
L 498.897267 659.226625 
L 447.990888 659.226625 
z
" clip-path="url(#pdad2a21446)" style="fill: #afad6a; opacity: 0.9"/>
   </g>
   <g id="patch_5">
    <path d="M 676.783599 756 
L 727.689977 756 
L 727.689977 185.897719 
L 676.783599 185.897719 
z
" clip-path="url(#pf46145ec86)" style="fill: #afad6a; opacity: 0.9"/>
   </g>
   <g id="patch_6">
    <path d="M 905.57631 756 
L 956.482688 756 
L 956.482688 567.266022 
L 905.57631 567.266022 
z
" clip-path="url(#p18d06b6b58)" style="fill: #afad6a; opacity: 0.9"/>
   </g>
   <g id="patch_7">
    <path d="M 270.104556 756 
L 321.010934 756 
L 321.010934 631.91726 
L 270.104556 631.91726 
z
" clip-path="url(#p0aca94f33d)" style="fill: #fabd19; opacity: 0.9"/>
   </g>
   <g id="patch_8">
    <path d="M 498.897267 756 
L 549.803645 756 
L 549.803645 673.610636 
L 498.897267 673.610636 
z
" clip-path="url(#pad2357aa92)" style="fill: #fabd19; opacity: 0.9"/>
   </g>
   <g id="patch_9">
    <path d="M 727.689977 756 
L 778.596355 756 
L 778.596355 169.920853 
L 727.689977 169.920853 
z
" clip-path="url(#p68ef05a695)" style="fill: #fabd19; opacity: 0.9"/>
   </g>
   <g id="patch_10">
    <path d="M 956.482688 756 
L 1007.389066 756 
L 1007.389066 580.607906 
L 956.482688 580.607906 
z
" clip-path="url(#p1e94ee6fdb)" style="fill: #fabd19; opacity: 0.9"/>
   </g>
   <g id="patch_11">
    <path d="M 321.010934 756 
L 371.917312 756 
L 371.917312 684.052582 
L 321.010934 684.052582 
z
" clip-path="url(#pe748bbe2ff)" style="fill: #fa9a19; opacity: 0.9"/>
   </g>
   <g id="patch_12">
    <path d="M 549.803645 756 
L 600.710023 756 
L 600.710023 666.688277 
L 549.803645 666.688277 
z
" clip-path="url(#p1624d0260a)" style="fill: #fa9a19; opacity: 0.9"/>
   </g>
   <g id="patch_13">
    <path d="M 778.596355 756 
L 829.502733 756 
L 829.502733 150.025159 
L 778.596355 150.025159 
z
" clip-path="url(#p8301517393)" style="fill: #fa9a19; opacity: 0.9"/>
   </g>
   <g id="patch_14">
    <path d="M 1007.389066 756 
L 1058.295444 756 
L 1058.295444 643.954254 
L 1007.389066 643.954254 
z
" clip-path="url(#pd35efb8600)" style="fill: #fa9a19; opacity: 0.9"/>
   </g>
   <g id="patch_15">
    <path d="M 371.917312 756 
L 422.82369 756 
L 422.82369 649.737183 
L 371.917312 649.737183 
z
" clip-path="url(#p15618de3b2)" style="fill: #4536b0; opacity: 0.9"/>
   </g>
   <g id="patch_16">
    <path d="M 600.710023 756 
L 651.616401 756 
L 651.616401 668.669322 
L 600.710023 668.669322 
z
" clip-path="url(#p0d376316de)" style="fill: #4536b0; opacity: 0.9"/>
   </g>
   <g id="patch_17">
    <path d="M 829.502733 756 
L 880.409112 756 
L 880.409112 134.742857 
L 829.502733 134.742857 
z
" clip-path="url(#p85903f6db3)" style="fill: #4536b0; opacity: 0.9"/>
   </g>
   <g id="patch_18">
    <path d="M 1058.295444 756 
L 1109.201822 756 
L 1109.201822 612.778121 
L 1058.295444 612.778121 
z
" clip-path="url(#p15b911662e)" style="fill: #4536b0; opacity: 0.9"/>
   </g>
   <g id="matplotlib.axis_1">
    <g id="xtick_1">
     <g id="line2d_1">
      <path d="M 321.010934 756 
L 321.010934 103.68 
" clip-path="url(#pc9664ea91f)" style="fill: none; stroke: #000000; stroke-opacity: 0; stroke-width: 0.8; stroke-linecap: square"/>
     </g>
     <g id="line2d_2">
      <defs>
       <path id="m629351a240" d="M 0 0 
L 0 -3.5 
" style="stroke: #000000; stroke-width: 0.8"/>
      </defs>
      <g>
       <use xlink:href="#m629351a240" x="321.010934" y="756" style="stroke: #000000; stroke-width: 0.8"/>
      </g>
     </g>
     <g id="text_1">
      <!-- if-statements -->
      <g style="fill: #ffffff" transform="translate(234.657809 748.76) scale(0.24 -0.24)">
       <defs>
        <path id="Poppins-Bold-69" d="M 275 4576 
Q 275 4826 454 4989 
Q 634 5152 928 5152 
Q 1222 5152 1401 4989 
Q 1581 4826 1581 4576 
Q 1581 4333 1401 4169 
Q 1222 4006 928 4006 
Q 634 4006 454 4169 
Q 275 4333 275 4576 
z
M 1472 3571 
L 1472 0 
L 378 0 
L 378 3571 
L 1472 3571 
z
" transform="scale(0.015625)"/>
        <path id="Poppins-Bold-66" d="M 2131 4058 
Q 1862 4058 1740 3942 
Q 1619 3827 1606 3571 
L 2253 3571 
L 2253 2650 
L 1606 2650 
L 1606 0 
L 512 0 
L 512 2650 
L 83 2650 
L 83 3571 
L 512 3571 
L 512 3610 
Q 512 4275 899 4636 
Q 1286 4998 2022 4998 
Q 2176 4998 2253 4992 
L 2253 4051 
L 2131 4058 
z
" transform="scale(0.015625)"/>
        <path id="Poppins-Bold-2d" d="M 2861 2701 
L 2861 1792 
L 38 1792 
L 38 2701 
L 2861 2701 
z
" transform="scale(0.015625)"/>
        <path id="Poppins-Bold-73" d="M 1677 3616 
Q 2355 3616 2761 3277 
Q 3168 2938 3270 2381 
L 2246 2381 
Q 2202 2598 2045 2723 
Q 1888 2848 1651 2848 
Q 1466 2848 1370 2768 
Q 1274 2688 1274 2541 
Q 1274 2374 1450 2291 
Q 1626 2208 2003 2125 
Q 2413 2029 2675 1929 
Q 2938 1830 3130 1606 
Q 3322 1382 3322 1005 
Q 3322 698 3155 461 
Q 2989 224 2675 89 
Q 2362 -45 1933 -45 
Q 1210 -45 774 275 
Q 339 595 243 1190 
L 1299 1190 
Q 1325 960 1494 838 
Q 1664 717 1933 717 
Q 2118 717 2214 803 
Q 2310 890 2310 1030 
Q 2310 1216 2134 1296 
Q 1958 1376 1562 1466 
Q 1165 1549 909 1645 
Q 653 1741 467 1955 
Q 282 2170 282 2541 
Q 282 3021 646 3318 
Q 1011 3616 1677 3616 
z
" transform="scale(0.015625)"/>
        <path id="Poppins-Bold-74" d="M 2400 941 
L 2400 0 
L 1907 0 
Q 1280 0 931 310 
Q 582 621 582 1338 
L 582 2650 
L 102 2650 
L 102 3571 
L 582 3571 
L 582 4448 
L 1677 4448 
L 1677 3571 
L 2394 3571 
L 2394 2650 
L 1677 2650 
L 1677 1318 
Q 1677 1107 1763 1024 
Q 1850 941 2054 941 
L 2400 941 
z
" transform="scale(0.015625)"/>
        <path id="Poppins-Bold-61" d="M 1734 3616 
Q 2144 3616 2438 3430 
Q 2733 3245 2874 2925 
L 2874 3571 
L 3962 3571 
L 3962 0 
L 2874 0 
L 2874 646 
Q 2733 326 2438 140 
Q 2144 -45 1734 -45 
Q 1293 -45 944 176 
Q 595 397 393 813 
Q 192 1229 192 1786 
Q 192 2349 393 2761 
Q 595 3174 944 3395 
Q 1293 3616 1734 3616 
z
M 2086 2656 
Q 1734 2656 1520 2425 
Q 1306 2195 1306 1786 
Q 1306 1376 1520 1145 
Q 1734 915 2086 915 
Q 2432 915 2653 1152 
Q 2874 1389 2874 1786 
Q 2874 2189 2653 2422 
Q 2432 2656 2086 2656 
z
" transform="scale(0.015625)"/>
        <path id="Poppins-Bold-65" d="M 3770 1882 
Q 3770 1747 3738 1587 
L 1261 1587 
Q 1280 1184 1465 1008 
Q 1651 832 1939 832 
Q 2182 832 2342 953 
Q 2502 1075 2554 1267 
L 3712 1267 
Q 3642 890 3405 592 
Q 3168 294 2803 124 
Q 2438 -45 1990 -45 
Q 1466 -45 1059 176 
Q 653 397 422 813 
Q 192 1229 192 1786 
Q 192 2349 419 2761 
Q 646 3174 1056 3395 
Q 1466 3616 1990 3616 
Q 2522 3616 2925 3398 
Q 3328 3181 3549 2787 
Q 3770 2394 3770 1882 
z
M 2662 2048 
Q 2669 2400 2473 2576 
Q 2278 2752 1990 2752 
Q 1690 2752 1491 2573 
Q 1293 2394 1267 2048 
L 2662 2048 
z
" transform="scale(0.015625)"/>
        <path id="Poppins-Bold-6d" d="M 5005 3610 
Q 5664 3610 6041 3203 
Q 6419 2797 6419 2074 
L 6419 0 
L 5331 0 
L 5331 1946 
Q 5331 2285 5148 2473 
Q 4966 2662 4653 2662 
Q 4326 2662 4137 2460 
Q 3949 2259 3949 1894 
L 3949 0 
L 2854 0 
L 2854 1946 
Q 2854 2285 2675 2473 
Q 2496 2662 2182 2662 
Q 1856 2662 1664 2464 
Q 1472 2266 1472 1894 
L 1472 0 
L 378 0 
L 378 3571 
L 1472 3571 
L 1472 2963 
Q 1613 3264 1904 3437 
Q 2195 3610 2586 3610 
Q 2995 3610 3308 3421 
Q 3622 3232 3782 2880 
Q 3968 3213 4291 3411 
Q 4614 3610 5005 3610 
z
" transform="scale(0.015625)"/>
        <path id="Poppins-Bold-6e" d="M 2643 3610 
Q 3258 3610 3619 3200 
Q 3981 2790 3981 2074 
L 3981 0 
L 2886 0 
L 2886 1946 
Q 2886 2304 2697 2505 
Q 2509 2707 2195 2707 
Q 1862 2707 1667 2496 
Q 1472 2285 1472 1894 
L 1472 0 
L 378 0 
L 378 3571 
L 1472 3571 
L 1472 2918 
Q 1626 3238 1930 3424 
Q 2234 3610 2643 3610 
z
" transform="scale(0.015625)"/>
       </defs>
       <use xlink:href="#Poppins-Bold-69"/>
       <use xlink:href="#Poppins-Bold-66" x="28.899994"/>
       <use xlink:href="#Poppins-Bold-2d" x="65.699982"/>
       <use xlink:href="#Poppins-Bold-73" x="119.999969"/>
       <use xlink:href="#Poppins-Bold-74" x="175.499954"/>
       <use xlink:href="#Poppins-Bold-61" x="216.699951"/>
       <use xlink:href="#Poppins-Bold-74" x="284.499939"/>
       <use xlink:href="#Poppins-Bold-65" x="325.699936"/>
       <use xlink:href="#Poppins-Bold-6d" x="387.59993"/>
       <use xlink:href="#Poppins-Bold-65" x="493.399918"/>
       <use xlink:href="#Poppins-Bold-6e" x="555.299911"/>
       <use xlink:href="#Poppins-Bold-74" x="622.899902"/>
       <use xlink:href="#Poppins-Bold-73" x="664.099899"/>
      </g>
     </g>
    </g>
    <g id="xtick_2">
     <g id="line2d_3">
      <path d="M 549.803645 756 
L 549.803645 103.68 
" clip-path="url(#p49f3ff0479)" style="fill: none; stroke: #000000; stroke-opacity: 0; stroke-width: 0.8; stroke-linecap: square"/>
     </g>
     <g id="line2d_4">
      <g>
       <use xlink:href="#m629351a240" x="549.803645" y="756" style="stroke: #000000; stroke-width: 0.8"/>
      </g>
     </g>
     <g id="text_2">
      <!-- ternary -->
      <g style="fill: #ffffff" transform="translate(503.134895 748.76) scale(0.24 -0.24)">
       <defs>
        <path id="Poppins-Bold-72" d="M 1472 2899 
Q 1677 3226 2000 3418 
Q 2323 3610 2701 3610 
L 2701 2438 
L 2387 2438 
Q 1952 2438 1712 2252 
Q 1472 2067 1472 1626 
L 1472 0 
L 378 0 
L 378 3571 
L 1472 3571 
L 1472 2899 
z
" transform="scale(0.015625)"/>
        <path id="Poppins-Bold-79" d="M 1203 3571 
L 2061 1382 
L 2861 3571 
L 4070 3571 
L 1843 -1702 
L 640 -1702 
L 1478 134 
L -19 3571 
L 1203 3571 
z
" transform="scale(0.015625)"/>
       </defs>
       <use xlink:href="#Poppins-Bold-74"/>
       <use xlink:href="#Poppins-Bold-65" x="41.199997"/>
       <use xlink:href="#Poppins-Bold-72" x="103.099991"/>
       <use xlink:href="#Poppins-Bold-6e" x="146.599976"/>
       <use xlink:href="#Poppins-Bold-61" x="214.199966"/>
       <use xlink:href="#Poppins-Bold-72" x="281.999954"/>
       <use xlink:href="#Poppins-Bold-79" x="325.499939"/>
      </g>
     </g>
    </g>
    <g id="xtick_3">
     <g id="line2d_5">
      <path d="M 778.596355 756 
L 778.596355 103.68 
" clip-path="url(#p4f40e15f5f)" style="fill: none; stroke: #000000; stroke-opacity: 0; stroke-width: 0.8; stroke-linecap: square"/>
     </g>
     <g id="line2d_6">
      <g>
       <use xlink:href="#m629351a240" x="778.596355" y="756" style="stroke: #000000; stroke-width: 0.8"/>
      </g>
     </g>
     <g id="text_3">
      <!-- datetime-add -->
      <g style="fill: #ffffff" transform="translate(690.49198 748.76) scale(0.24 -0.24)">
       <defs>
        <path id="Poppins-Bold-64" d="M 1734 3616 
Q 2144 3616 2438 3430 
Q 2733 3245 2867 2925 
L 2867 4736 
L 3962 4736 
L 3962 0 
L 2867 0 
L 2867 646 
Q 2733 326 2438 140 
Q 2144 -45 1734 -45 
Q 1293 -45 944 176 
Q 595 397 393 813 
Q 192 1229 192 1786 
Q 192 2349 393 2761 
Q 595 3174 944 3395 
Q 1293 3616 1734 3616 
z
M 2086 2656 
Q 1734 2656 1520 2425 
Q 1306 2195 1306 1786 
Q 1306 1376 1520 1145 
Q 1734 915 2086 915 
Q 2432 915 2653 1152 
Q 2874 1389 2874 1786 
Q 2874 2189 2653 2422 
Q 2432 2656 2086 2656 
z
" transform="scale(0.015625)"/>
       </defs>
       <use xlink:href="#Poppins-Bold-64"/>
       <use xlink:href="#Poppins-Bold-61" x="67.799988"/>
       <use xlink:href="#Poppins-Bold-74" x="135.599976"/>
       <use xlink:href="#Poppins-Bold-65" x="176.799973"/>
       <use xlink:href="#Poppins-Bold-74" x="238.699966"/>
       <use xlink:href="#Poppins-Bold-69" x="279.899963"/>
       <use xlink:href="#Poppins-Bold-6d" x="308.799957"/>
       <use xlink:href="#Poppins-Bold-65" x="414.599945"/>
       <use xlink:href="#Poppins-Bold-2d" x="476.499939"/>
       <use xlink:href="#Poppins-Bold-61" x="530.799927"/>
       <use xlink:href="#Poppins-Bold-64" x="598.599915"/>
       <use xlink:href="#Poppins-Bold-64" x="666.399902"/>
      </g>
     </g>
    </g>
    <g id="xtick_4">
     <g id="line2d_7">
      <path d="M 1007.389066 756 
L 1007.389066 103.68 
" clip-path="url(#pe0e72e39de)" style="fill: none; stroke: #000000; stroke-opacity: 0; stroke-width: 0.8; stroke-linecap: square"/>
     </g>
     <g id="line2d_8">
      <g>
       <use xlink:href="#m629351a240" x="1007.389066" y="756" style="stroke: #000000; stroke-width: 0.8"/>
      </g>
     </g>
     <g id="text_4">
      <!-- calendar-isleap -->
      <g style="fill: #ffffff" transform="translate(907.571566 750.32) scale(0.24 -0.24)">
       <defs>
        <path id="Poppins-Bold-63" d="M 1990 3616 
Q 2682 3616 3149 3235 
Q 3616 2854 3738 2189 
L 2579 2189 
Q 2528 2419 2368 2547 
Q 2208 2675 1965 2675 
Q 1677 2675 1491 2448 
Q 1306 2221 1306 1786 
Q 1306 1350 1491 1123 
Q 1677 896 1965 896 
Q 2208 896 2368 1024 
Q 2528 1152 2579 1382 
L 3738 1382 
Q 3616 717 3149 336 
Q 2682 -45 1990 -45 
Q 1466 -45 1059 176 
Q 653 397 422 813 
Q 192 1229 192 1786 
Q 192 2349 419 2761 
Q 646 3174 1056 3395 
Q 1466 3616 1990 3616 
z
" transform="scale(0.015625)"/>
        <path id="Poppins-Bold-6c" d="M 1472 4736 
L 1472 0 
L 378 0 
L 378 4736 
L 1472 4736 
z
" transform="scale(0.015625)"/>
        <path id="Poppins-Bold-70" d="M 2605 3616 
Q 3046 3616 3395 3395 
Q 3744 3174 3945 2761 
Q 4147 2349 4147 1786 
Q 4147 1229 3945 813 
Q 3744 397 3395 176 
Q 3046 -45 2605 -45 
Q 2195 -45 1900 140 
Q 1606 326 1472 646 
L 1472 -1702 
L 378 -1702 
L 378 3571 
L 1472 3571 
L 1472 2925 
Q 1606 3245 1900 3430 
Q 2195 3616 2605 3616 
z
M 2253 2656 
Q 1907 2656 1686 2422 
Q 1466 2189 1466 1786 
Q 1466 1389 1686 1152 
Q 1907 915 2253 915 
Q 2605 915 2819 1145 
Q 3034 1376 3034 1786 
Q 3034 2195 2819 2425 
Q 2605 2656 2253 2656 
z
" transform="scale(0.015625)"/>
       </defs>
       <use xlink:href="#Poppins-Bold-63"/>
       <use xlink:href="#Poppins-Bold-61" x="61.399994"/>
       <use xlink:href="#Poppins-Bold-6c" x="129.199982"/>
       <use xlink:href="#Poppins-Bold-65" x="158.099976"/>
       <use xlink:href="#Poppins-Bold-6e" x="219.999969"/>
       <use xlink:href="#Poppins-Bold-64" x="287.59996"/>
       <use xlink:href="#Poppins-Bold-61" x="355.399948"/>
       <use xlink:href="#Poppins-Bold-72" x="423.199936"/>
       <use xlink:href="#Poppins-Bold-2d" x="466.699921"/>
       <use xlink:href="#Poppins-Bold-69" x="520.999908"/>
       <use xlink:href="#Poppins-Bold-73" x="549.899902"/>
       <use xlink:href="#Poppins-Bold-6c" x="605.399887"/>
       <use xlink:href="#Poppins-Bold-65" x="634.299881"/>
       <use xlink:href="#Poppins-Bold-61" x="696.199875"/>
       <use xlink:href="#Poppins-Bold-70" x="763.999863"/>
      </g>
     </g>
    </g>
   </g>
   <g id="matplotlib.axis_2">
    <g id="ytick_1">
     <g id="line2d_9">
      <defs>
       <path id="m633a7dfb45" d="M 0 0 
L 3.5 0 
" style="stroke: #000000; stroke-width: 0.8"/>
      </defs>
      <g>
       <use xlink:href="#m633a7dfb45" x="162" y="756" style="stroke: #000000; stroke-width: 0.8"/>
      </g>
     </g>
    </g>
    <g id="ytick_2">
     <g id="line2d_10">
      <path d="M 162 672.366262 
L 1166.4 672.366262 
" clip-path="url(#pfd43a3f41c)" style="fill: none; stroke-dasharray: 2,3.3; stroke-dashoffset: 0; stroke: #000000; stroke-width: 2"/>
     </g>
     <g id="line2d_11">
      <g>
       <use xlink:href="#m633a7dfb45" x="162" y="672.366262" style="stroke: #000000; stroke-width: 0.8"/>
      </g>
     </g>
     <g id="text_5">
      <!-- $\mathdefault{1}$ -->
      <g transform="translate(178.36 681.246262) scale(0.24 -0.24)">
       <defs>
        <path id="Poppins-Bold-31" d="M 70 3501 
L 70 4525 
L 1901 4525 
L 1901 0 
L 749 0 
L 749 3501 
L 70 3501 
z
" transform="scale(0.015625)"/>
       </defs>
       <use xlink:href="#Poppins-Bold-31" transform="translate(0 0.296875)"/>
      </g>
     </g>
    </g>
    <g id="ytick_3">
     <g id="line2d_12">
      <path d="M 162 588.732525 
L 1166.4 588.732525 
" clip-path="url(#p0f9d5e7682)" style="fill: none; stroke-dasharray: 2,3.3; stroke-dashoffset: 0; stroke: #000000; stroke-width: 2"/>
     </g>
     <g id="line2d_13">
      <g>
       <use xlink:href="#m633a7dfb45" x="162" y="588.732525" style="stroke: #000000; stroke-width: 0.8"/>
      </g>
     </g>
     <g id="text_6">
      <!-- $\mathdefault{2}$ -->
      <g transform="translate(173.32 597.612525) scale(0.24 -0.24)">
       <defs>
        <path id="Poppins-Bold-32" d="M 218 870 
Q 2253 2323 2253 3181 
Q 2253 3706 1798 3706 
Q 1542 3706 1424 3526 
Q 1306 3347 1293 2970 
L 224 2970 
Q 262 3795 723 4211 
Q 1184 4627 1888 4627 
Q 2624 4627 2998 4256 
Q 3373 3885 3373 3290 
Q 3373 2630 2867 2000 
Q 2362 1370 1658 934 
L 3443 934 
L 3443 51 
L 218 51 
L 218 870 
z
" transform="scale(0.015625)"/>
       </defs>
       <use xlink:href="#Poppins-Bold-32" transform="translate(0 0.703125)"/>
      </g>
     </g>
    </g>
    <g id="ytick_4">
     <g id="line2d_14">
      <g>
       <use xlink:href="#m633a7dfb45" x="162" y="505.098787" style="stroke: #000000; stroke-width: 0.8"/>
      </g>
     </g>
     <g id="text_7">
      <!-- $\mathdefault{3}$ -->
      <g transform="translate(172.36 513.978787) scale(0.24 -0.24)">
       <defs>
        <path id="Poppins-Bold-33" d="M 1933 4723 
Q 2406 4723 2745 4560 
Q 3085 4397 3261 4112 
Q 3437 3827 3437 3469 
Q 3437 3027 3209 2758 
Q 2982 2490 2643 2419 
L 2643 2387 
Q 3520 2106 3520 1293 
Q 3520 902 3341 598 
Q 3162 294 2819 124 
Q 2477 -45 1997 -45 
Q 1216 -45 758 339 
Q 301 723 262 1510 
L 1331 1510 
Q 1344 1210 1497 1037 
Q 1651 864 1946 864 
Q 2182 864 2320 1005 
Q 2458 1146 2458 1370 
Q 2458 1926 1651 1926 
L 1446 1926 
L 1446 2816 
L 1645 2816 
Q 2368 2803 2368 3334 
Q 2368 3565 2243 3689 
Q 2118 3814 1907 3814 
Q 1677 3814 1542 3657 
Q 1408 3501 1389 3238 
L 320 3238 
Q 352 3955 768 4339 
Q 1184 4723 1933 4723 
z
" transform="scale(0.015625)"/>
       </defs>
       <use xlink:href="#Poppins-Bold-33" transform="translate(0 0.203125)"/>
      </g>
     </g>
    </g>
    <g id="ytick_5">
     <g id="line2d_15">
      <g>
       <use xlink:href="#m633a7dfb45" x="162" y="421.465049" style="stroke: #000000; stroke-width: 0.8"/>
      </g>
     </g>
     <g id="text_8">
      <!-- $\mathdefault{4}$ -->
      <g transform="translate(170.68 430.345049) scale(0.24 -0.24)">
       <defs>
        <path id="Poppins-Bold-34" d="M 282 832 
L 282 1747 
L 2349 4582 
L 3526 4582 
L 3526 1786 
L 4070 1786 
L 4070 832 
L 3526 832 
L 3526 0 
L 2419 0 
L 2419 832 
L 282 832 
z
M 2509 3315 
L 1395 1786 
L 2509 1786 
L 2509 3315 
z
" transform="scale(0.015625)"/>
       </defs>
       <use xlink:href="#Poppins-Bold-34" transform="translate(0 0.40625)"/>
      </g>
     </g>
    </g>
    <g id="ytick_6">
     <g id="line2d_16">
      <g>
       <use xlink:href="#m633a7dfb45" x="162" y="337.831311" style="stroke: #000000; stroke-width: 0.8"/>
      </g>
     </g>
     <g id="text_9">
      <!-- $\mathdefault{5}$ -->
      <g transform="translate(171.4 346.711311) scale(0.24 -0.24)">
       <defs>
        <path id="Poppins-Bold-35" d="M 3610 3674 
L 1574 3674 
L 1574 2758 
Q 1709 2912 1949 2998 
Q 2189 3085 2470 3085 
Q 2925 3085 3232 2883 
Q 3539 2682 3686 2342 
Q 3834 2003 3834 1594 
Q 3834 851 3418 419 
Q 3002 -13 2246 -13 
Q 1734 -13 1356 169 
Q 979 352 774 678 
Q 570 1005 557 1434 
L 1626 1434 
Q 1658 1216 1802 1075 
Q 1946 934 2195 934 
Q 2483 934 2627 1120 
Q 2771 1306 2771 1613 
Q 2771 1907 2617 2067 
Q 2464 2227 2189 2227 
Q 1978 2227 1837 2134 
Q 1696 2042 1645 1894 
L 582 1894 
L 582 4634 
L 3610 4634 
L 3610 3674 
z
" transform="scale(0.015625)"/>
       </defs>
       <use xlink:href="#Poppins-Bold-35" transform="translate(0 0.59375)"/>
      </g>
     </g>
    </g>
    <g id="ytick_7">
     <g id="line2d_17">
      <g>
       <use xlink:href="#m633a7dfb45" x="162" y="254.197574" style="stroke: #000000; stroke-width: 0.8"/>
      </g>
     </g>
     <g id="text_10">
      <!-- $\mathdefault{6}$ -->
      <g transform="translate(171.88 263.077574) scale(0.24 -0.24)">
       <defs>
        <path id="Poppins-Bold-36" d="M 2560 3277 
Q 2515 3552 2384 3693 
Q 2253 3834 2010 3834 
Q 1638 3834 1481 3491 
Q 1325 3149 1338 2438 
Q 1446 2701 1712 2851 
Q 1978 3002 2330 3002 
Q 2970 3002 3341 2614 
Q 3712 2227 3712 1504 
Q 3712 1050 3526 698 
Q 3341 346 2979 150 
Q 2618 -45 2112 -45 
Q 1120 -45 742 569 
Q 365 1184 365 2272 
Q 365 3526 768 4118 
Q 1171 4710 2080 4710 
Q 2797 4710 3168 4304 
Q 3539 3898 3584 3277 
L 2560 3277 
z
M 1421 1555 
Q 1421 1261 1587 1078 
Q 1754 896 2074 896 
Q 2362 896 2525 1056 
Q 2688 1216 2688 1523 
Q 2688 1830 2521 1993 
Q 2355 2157 2067 2157 
Q 1792 2157 1606 2000 
Q 1421 1843 1421 1555 
z
" transform="scale(0.015625)"/>
       </defs>
       <use xlink:href="#Poppins-Bold-36" transform="translate(0 0.40625)"/>
      </g>
     </g>
    </g>
    <g id="ytick_8">
     <g id="line2d_18">
      <path d="M 162 170.563836 
L 1166.4 170.563836 
" clip-path="url(#p5cc899d87d)" style="fill: none; stroke-dasharray: 2,3.3; stroke-dashoffset: 0; stroke: #000000; stroke-width: 2"/>
     </g>
     <g id="line2d_19">
      <g>
       <use xlink:href="#m633a7dfb45" x="162" y="170.563836" style="stroke: #000000; stroke-width: 0.8"/>
      </g>
     </g>
     <g id="text_11">
      <!-- $\mathdefault{7}$ -->
      <g transform="translate(174.76 179.443836) scale(0.24 -0.24)">
       <defs>
        <path id="Poppins-Bold-37" d="M 3149 3757 
L 1530 0 
L 397 0 
L 2035 3629 
L 115 3629 
L 115 4570 
L 3149 4570 
L 3149 3757 
z
" transform="scale(0.015625)"/>
       </defs>
       <use xlink:href="#Poppins-Bold-37" transform="translate(0 0.59375)"/>
      </g>
     </g>
    </g>
    <g id="text_12">
     <!-- $\times\mathdefault{10^{−7}}\mathdefault{}$ -->
     <g transform="translate(162 100.68) scale(0.1 -0.1)">
      <defs>
       <path id="DejaVuSans-d7" d="M 4488 3438 
L 3059 2003 
L 4488 575 
L 4116 197 
L 2681 1631 
L 1247 197 
L 878 575 
L 2303 2003 
L 878 3438 
L 1247 3816 
L 2681 2381 
L 4116 3816 
L 4488 3438 
z
" transform="scale(0.015625)"/>
       <path id="Poppins-Regular-31" d="M 83 3968 
L 83 4512 
L 1376 4512 
L 1376 0 
L 762 0 
L 762 3968 
L 83 3968 
z
" transform="scale(0.015625)"/>
       <path id="Poppins-Regular-30" d="M 365 2285 
Q 365 1197 723 589 
Q 1082 -19 1965 -19 
Q 2848 -19 3209 589 
Q 3571 1197 3571 2285 
Q 3571 3360 3209 3968 
Q 2848 4576 1965 4576 
Q 1082 4576 723 3971 
Q 365 3366 365 2285 
z
M 2995 2285 
Q 2995 1728 2915 1353 
Q 2835 979 2611 755 
Q 2387 531 1965 531 
Q 1549 531 1325 755 
Q 1101 979 1021 1353 
Q 941 1728 941 2285 
Q 941 2835 1021 3206 
Q 1101 3578 1325 3798 
Q 1549 4019 1965 4019 
Q 2387 4019 2611 3798 
Q 2835 3578 2915 3206 
Q 2995 2835 2995 2285 
z
" transform="scale(0.015625)"/>
       <path id="Poppins-Regular-2212" d="M 2771 2592 
L 2771 2099 
L 211 2099 
L 211 2592 
L 2771 2592 
z
" transform="scale(0.015625)"/>
       <path id="Poppins-Regular-37" d="M 3046 4090 
L 1338 0 
L 723 0 
L 2458 4032 
L 90 4032 
L 90 4538 
L 3046 4538 
L 3046 4090 
z
" transform="scale(0.015625)"/>
      </defs>
      <use xlink:href="#DejaVuSans-d7" transform="translate(0 0.93125)"/>
      <use xlink:href="#Poppins-Regular-31" transform="translate(83.789062 0.93125)"/>
      <use xlink:href="#Poppins-Regular-30" transform="translate(112.489059 0.93125)"/>
      <use xlink:href="#Poppins-Regular-2212" transform="translate(174.849913 39.365625) scale(0.7)"/>
      <use xlink:href="#Poppins-Regular-37" transform="translate(207.469906 39.365625) scale(0.7)"/>
     </g>
    </g>
   </g>
   <g id="text_13">
    <!-- 1900 -->
    <g transform="translate(223.420117 612.029956) scale(0.2 -0.2)">
     <defs>
      <path id="Poppins-Regular-39" d="M 1024 1267 
Q 1082 864 1306 646 
Q 1530 429 1920 429 
Q 2458 429 2733 845 
Q 3008 1261 3008 2163 
Q 3008 2336 3002 2426 
Q 2912 2042 2566 1811 
Q 2221 1581 1754 1581 
Q 1082 1581 698 1984 
Q 314 2387 314 3110 
Q 314 3533 480 3878 
Q 646 4224 988 4425 
Q 1331 4627 1837 4627 
Q 2810 4627 3171 4028 
Q 3533 3430 3533 2387 
Q 3533 1197 3161 573 
Q 2790 -51 1920 -51 
Q 1274 -51 906 317 
Q 538 685 474 1267 
L 1024 1267 
z
M 2944 3021 
Q 2944 3482 2672 3802 
Q 2400 4122 1856 4122 
Q 1408 4122 1139 3853 
Q 870 3584 870 3104 
Q 870 2592 1139 2317 
Q 1408 2042 1875 2042 
Q 2144 2042 2390 2150 
Q 2637 2259 2790 2483 
Q 2944 2707 2944 3021 
z
" transform="scale(0.015625)"/>
     </defs>
     <use xlink:href="#Poppins-Regular-31"/>
     <use xlink:href="#Poppins-Regular-39" x="28.699997"/>
     <use xlink:href="#Poppins-Regular-30" x="89.499985"/>
     <use xlink:href="#Poppins-Regular-30" x="150.899979"/>
    </g>
   </g>
   <g id="text_14">
    <!-- 1900 -->
    <g transform="translate(452.212827 650.026625) scale(0.2 -0.2)">
     <use xlink:href="#Poppins-Regular-31"/>
     <use xlink:href="#Poppins-Regular-39" x="28.699997"/>
     <use xlink:href="#Poppins-Regular-30" x="89.499985"/>
     <use xlink:href="#Poppins-Regular-30" x="150.899979"/>
    </g>
   </g>
   <g id="text_15">
    <!-- 1900 -->
    <g transform="translate(681.005538 176.697719) scale(0.2 -0.2)">
     <use xlink:href="#Poppins-Regular-31"/>
     <use xlink:href="#Poppins-Regular-39" x="28.699997"/>
     <use xlink:href="#Poppins-Regular-30" x="89.499985"/>
     <use xlink:href="#Poppins-Regular-30" x="150.899979"/>
    </g>
   </g>
   <g id="text_16">
    <!-- 1900 -->
    <g transform="translate(909.798249 558.066022) scale(0.2 -0.2)">
     <use xlink:href="#Poppins-Regular-31"/>
     <use xlink:href="#Poppins-Regular-39" x="28.699997"/>
     <use xlink:href="#Poppins-Regular-30" x="89.499985"/>
     <use xlink:href="#Poppins-Regular-30" x="150.899979"/>
    </g>
   </g>
   <g id="text_17">
    <!-- 2000 -->
    <g transform="translate(271.465557 622.71726) scale(0.2 -0.2)">
     <defs>
      <path id="Poppins-Regular-32" d="M 269 448 
Q 1357 1178 2009 1898 
Q 2662 2618 2662 3238 
Q 2662 3622 2467 3856 
Q 2272 4090 1837 4090 
Q 1389 4090 1158 3805 
Q 928 3520 902 3021 
L 326 3021 
Q 371 3776 793 4182 
Q 1216 4589 1882 4589 
Q 2515 4589 2886 4249 
Q 3258 3910 3258 3290 
Q 3258 2778 2928 2250 
Q 2598 1722 2102 1270 
Q 1606 819 1082 506 
L 3373 506 
L 3373 26 
L 269 26 
L 269 448 
z
" transform="scale(0.015625)"/>
     </defs>
     <use xlink:href="#Poppins-Regular-32"/>
     <use xlink:href="#Poppins-Regular-30" x="56.699997"/>
     <use xlink:href="#Poppins-Regular-30" x="118.099991"/>
     <use xlink:href="#Poppins-Regular-30" x="179.499985"/>
    </g>
   </g>
   <g id="text_18">
    <!-- 2000 -->
    <g transform="translate(500.258268 664.410636) scale(0.2 -0.2)">
     <use xlink:href="#Poppins-Regular-32"/>
     <use xlink:href="#Poppins-Regular-30" x="56.699997"/>
     <use xlink:href="#Poppins-Regular-30" x="118.099991"/>
     <use xlink:href="#Poppins-Regular-30" x="179.499985"/>
    </g>
   </g>
   <g id="text_19">
    <!-- 2000 -->
    <g transform="translate(729.050979 160.720853) scale(0.2 -0.2)">
     <use xlink:href="#Poppins-Regular-32"/>
     <use xlink:href="#Poppins-Regular-30" x="56.699997"/>
     <use xlink:href="#Poppins-Regular-30" x="118.099991"/>
     <use xlink:href="#Poppins-Regular-30" x="179.499985"/>
    </g>
   </g>
   <g id="text_20">
    <!-- 2000 -->
    <g transform="translate(957.843689 571.407906) scale(0.2 -0.2)">
     <use xlink:href="#Poppins-Regular-32"/>
     <use xlink:href="#Poppins-Regular-30" x="56.699997"/>
     <use xlink:href="#Poppins-Regular-30" x="118.099991"/>
     <use xlink:href="#Poppins-Regular-30" x="179.499985"/>
    </g>
   </g>
   <g id="text_21">
    <!-- 2019 -->
    <g transform="translate(325.703186 674.852582) scale(0.2 -0.2)">
     <use xlink:href="#Poppins-Regular-32"/>
     <use xlink:href="#Poppins-Regular-30" x="56.699997"/>
     <use xlink:href="#Poppins-Regular-31" x="118.099991"/>
     <use xlink:href="#Poppins-Regular-39" x="146.799988"/>
    </g>
   </g>
   <g id="text_22">
    <!-- 2019 -->
    <g transform="translate(554.495896 657.488277) scale(0.2 -0.2)">
     <use xlink:href="#Poppins-Regular-32"/>
     <use xlink:href="#Poppins-Regular-30" x="56.699997"/>
     <use xlink:href="#Poppins-Regular-31" x="118.099991"/>
     <use xlink:href="#Poppins-Regular-39" x="146.799988"/>
    </g>
   </g>
   <g id="text_23">
    <!-- 2019 -->
    <g transform="translate(783.288607 140.825159) scale(0.2 -0.2)">
     <use xlink:href="#Poppins-Regular-32"/>
     <use xlink:href="#Poppins-Regular-30" x="56.699997"/>
     <use xlink:href="#Poppins-Regular-31" x="118.099991"/>
     <use xlink:href="#Poppins-Regular-39" x="146.799988"/>
    </g>
   </g>
   <g id="text_24">
    <!-- 2019 -->
    <g transform="translate(1012.081318 634.754254) scale(0.2 -0.2)">
     <use xlink:href="#Poppins-Regular-32"/>
     <use xlink:href="#Poppins-Regular-30" x="56.699997"/>
     <use xlink:href="#Poppins-Regular-31" x="118.099991"/>
     <use xlink:href="#Poppins-Regular-39" x="146.799988"/>
    </g>
   </g>
   <g id="text_25">
    <!-- 2020 -->
    <g transform="translate(373.748626 640.537183) scale(0.2 -0.2)">
     <use xlink:href="#Poppins-Regular-32"/>
     <use xlink:href="#Poppins-Regular-30" x="56.699997"/>
     <use xlink:href="#Poppins-Regular-32" x="118.099991"/>
     <use xlink:href="#Poppins-Regular-30" x="174.799988"/>
    </g>
   </g>
   <g id="text_26">
    <!-- 2020 -->
    <g transform="translate(602.541337 659.469322) scale(0.2 -0.2)">
     <use xlink:href="#Poppins-Regular-32"/>
     <use xlink:href="#Poppins-Regular-30" x="56.699997"/>
     <use xlink:href="#Poppins-Regular-32" x="118.099991"/>
     <use xlink:href="#Poppins-Regular-30" x="174.799988"/>
    </g>
   </g>
   <g id="text_27">
    <!-- 2020 -->
    <g transform="translate(831.334048 125.542857) scale(0.2 -0.2)">
     <use xlink:href="#Poppins-Regular-32"/>
     <use xlink:href="#Poppins-Regular-30" x="56.699997"/>
     <use xlink:href="#Poppins-Regular-32" x="118.099991"/>
     <use xlink:href="#Poppins-Regular-30" x="174.799988"/>
    </g>
   </g>
   <g id="text_28">
    <!-- 2020 -->
    <g transform="translate(1060.126758 603.578121) scale(0.2 -0.2)">
     <use xlink:href="#Poppins-Regular-32"/>
     <use xlink:href="#Poppins-Regular-30" x="56.699997"/>
     <use xlink:href="#Poppins-Regular-32" x="118.099991"/>
     <use xlink:href="#Poppins-Regular-30" x="174.799988"/>
    </g>
   </g>
  </g>
 </g>
 <defs>
  <clipPath id="p63f10319b5">
   <path d="M 212.22 762.5232 
L 1116.18 762.5232 
Q 1176.444 762.5232 1176.444 723.384 
L 1176.444 136.296 
Q 1176.444 97.1568 1116.18 97.1568 
L 212.22 97.1568 
Q 151.956 97.1568 151.956 136.296 
L 151.956 723.384 
Q 151.956 762.5232 212.22 762.5232 
z
"/>
  </clipPath>
  <clipPath id="pdad2a21446">
   <path d="M 212.22 762.5232 
L 1116.18 762.5232 
Q 1176.444 762.5232 1176.444 723.384 
L 1176.444 136.296 
Q 1176.444 97.1568 1116.18 97.1568 
L 212.22 97.1568 
Q 151.956 97.1568 151.956 136.296 
L 151.956 723.384 
Q 151.956 762.5232 212.22 762.5232 
z
"/>
  </clipPath>
  <clipPath id="pf46145ec86">
   <path d="M 212.22 762.5232 
L 1116.18 762.5232 
Q 1176.444 762.5232 1176.444 723.384 
L 1176.444 136.296 
Q 1176.444 97.1568 1116.18 97.1568 
L 212.22 97.1568 
Q 151.956 97.1568 151.956 136.296 
L 151.956 723.384 
Q 151.956 762.5232 212.22 762.5232 
z
"/>
  </clipPath>
  <clipPath id="p18d06b6b58">
   <path d="M 212.22 762.5232 
L 1116.18 762.5232 
Q 1176.444 762.5232 1176.444 723.384 
L 1176.444 136.296 
Q 1176.444 97.1568 1116.18 97.1568 
L 212.22 97.1568 
Q 151.956 97.1568 151.956 136.296 
L 151.956 723.384 
Q 151.956 762.5232 212.22 762.5232 
z
"/>
  </clipPath>
  <clipPath id="p0aca94f33d">
   <path d="M 212.22 762.5232 
L 1116.18 762.5232 
Q 1176.444 762.5232 1176.444 723.384 
L 1176.444 136.296 
Q 1176.444 97.1568 1116.18 97.1568 
L 212.22 97.1568 
Q 151.956 97.1568 151.956 136.296 
L 151.956 723.384 
Q 151.956 762.5232 212.22 762.5232 
z
"/>
  </clipPath>
  <clipPath id="pad2357aa92">
   <path d="M 212.22 762.5232 
L 1116.18 762.5232 
Q 1176.444 762.5232 1176.444 723.384 
L 1176.444 136.296 
Q 1176.444 97.1568 1116.18 97.1568 
L 212.22 97.1568 
Q 151.956 97.1568 151.956 136.296 
L 151.956 723.384 
Q 151.956 762.5232 212.22 762.5232 
z
"/>
  </clipPath>
  <clipPath id="p68ef05a695">
   <path d="M 212.22 762.5232 
L 1116.18 762.5232 
Q 1176.444 762.5232 1176.444 723.384 
L 1176.444 136.296 
Q 1176.444 97.1568 1116.18 97.1568 
L 212.22 97.1568 
Q 151.956 97.1568 151.956 136.296 
L 151.956 723.384 
Q 151.956 762.5232 212.22 762.5232 
z
"/>
  </clipPath>
  <clipPath id="p1e94ee6fdb">
   <path d="M 212.22 762.5232 
L 1116.18 762.5232 
Q 1176.444 762.5232 1176.444 723.384 
L 1176.444 136.296 
Q 1176.444 97.1568 1116.18 97.1568 
L 212.22 97.1568 
Q 151.956 97.1568 151.956 136.296 
L 151.956 723.384 
Q 151.956 762.5232 212.22 762.5232 
z
"/>
  </clipPath>
  <clipPath id="pe748bbe2ff">
   <path d="M 212.22 762.5232 
L 1116.18 762.5232 
Q 1176.444 762.5232 1176.444 723.384 
L 1176.444 136.296 
Q 1176.444 97.1568 1116.18 97.1568 
L 212.22 97.1568 
Q 151.956 97.1568 151.956 136.296 
L 151.956 723.384 
Q 151.956 762.5232 212.22 762.5232 
z
"/>
  </clipPath>
  <clipPath id="p1624d0260a">
   <path d="M 212.22 762.5232 
L 1116.18 762.5232 
Q 1176.444 762.5232 1176.444 723.384 
L 1176.444 136.296 
Q 1176.444 97.1568 1116.18 97.1568 
L 212.22 97.1568 
Q 151.956 97.1568 151.956 136.296 
L 151.956 723.384 
Q 151.956 762.5232 212.22 762.5232 
z
"/>
  </clipPath>
  <clipPath id="p8301517393">
   <path d="M 212.22 762.5232 
L 1116.18 762.5232 
Q 1176.444 762.5232 1176.444 723.384 
L 1176.444 136.296 
Q 1176.444 97.1568 1116.18 97.1568 
L 212.22 97.1568 
Q 151.956 97.1568 151.956 136.296 
L 151.956 723.384 
Q 151.956 762.5232 212.22 762.5232 
z
"/>
  </clipPath>
  <clipPath id="pd35efb8600">
   <path d="M 212.22 762.5232 
L 1116.18 762.5232 
Q 1176.444 762.5232 1176.444 723.384 
L 1176.444 136.296 
Q 1176.444 97.1568 1116.18 97.1568 
L 212.22 97.1568 
Q 151.956 97.1568 151.956 136.296 
L 151.956 723.384 
Q 151.956 762.5232 212.22 762.5232 
z
"/>
  </clipPath>
  <clipPath id="p15618de3b2">
   <path d="M 212.22 762.5232 
L 1116.18 762.5232 
Q 1176.444 762.5232 1176.444 723.384 
L 1176.444 136.296 
Q 1176.444 97.1568 1116.18 97.1568 
L 212.22 97.1568 
Q 151.956 97.1568 151.956 136.296 
L 151.956 723.384 
Q 151.956 762.5232 212.22 762.5232 
z
"/>
  </clipPath>
  <clipPath id="p0d376316de">
   <path d="M 212.22 762.5232 
L 1116.18 762.5232 
Q 1176.444 762.5232 1176.444 723.384 
L 1176.444 136.296 
Q 1176.444 97.1568 1116.18 97.1568 
L 212.22 97.1568 
Q 151.956 97.1568 151.956 136.296 
L 151.956 723.384 
Q 151.956 762.5232 212.22 762.5232 
z
"/>
  </clipPath>
  <clipPath id="p85903f6db3">
   <path d="M 212.22 762.5232 
L 1116.18 762.5232 
Q 1176.444 762.5232 1176.444 723.384 
L 1176.444 136.296 
Q 1176.444 97.1568 1116.18 97.1568 
L 212.22 97.1568 
Q 151.956 97.1568 151.956 136.296 
L 151.956 723.384 
Q 151.956 762.5232 212.22 762.5232 
z
"/>
  </clipPath>
  <clipPath id="p15b911662e">
   <path d="M 212.22 762.5232 
L 1116.18 762.5232 
Q 1176.444 762.5232 1176.444 723.384 
L 1176.444 136.296 
Q 1176.444 97.1568 1116.18 97.1568 
L 212.22 97.1568 
Q 151.956 97.1568 151.956 136.296 
L 151.956 723.384 
Q 151.956 762.5232 212.22 762.5232 
z
"/>
  </clipPath>
  <clipPath id="pc9664ea91f">
   <path d="M 212.22 762.5232 
L 1116.18 762.5232 
Q 1176.444 762.5232 1176.444 723.384 
L 1176.444 136.296 
Q 1176.444 97.1568 1116.18 97.1568 
L 212.22 97.1568 
Q 151.956 97.1568 151.956 136.296 
L 151.956 723.384 
Q 151.956 762.5232 212.22 762.5232 
z
"/>
  </clipPath>
  <clipPath id="p49f3ff0479">
   <path d="M 212.22 762.5232 
L 1116.18 762.5232 
Q 1176.444 762.5232 1176.444 723.384 
L 1176.444 136.296 
Q 1176.444 97.1568 1116.18 97.1568 
L 212.22 97.1568 
Q 151.956 97.1568 151.956 136.296 
L 151.956 723.384 
Q 151.956 762.5232 212.22 762.5232 
z
"/>
  </clipPath>
  <clipPath id="p4f40e15f5f">
   <path d="M 212.22 762.5232 
L 1116.18 762.5232 
Q 1176.444 762.5232 1176.444 723.384 
L 1176.444 136.296 
Q 1176.444 97.1568 1116.18 97.1568 
L 212.22 97.1568 
Q 151.956 97.1568 151.956 136.296 
L 151.956 723.384 
Q 151.956 762.5232 212.22 762.5232 
z
"/>
  </clipPath>
  <clipPath id="pe0e72e39de">
   <path d="M 212.22 762.5232 
L 1116.18 762.5232 
Q 1176.444 762.5232 1176.444 723.384 
L 1176.444 136.296 
Q 1176.444 97.1568 1116.18 97.1568 
L 212.22 97.1568 
Q 151.956 97.1568 151.956 136.296 
L 151.956 723.384 
Q 151.956 762.5232 212.22 762.5232 
z
"/>
  </clipPath>
  <clipPath id="pfd43a3f41c">
   <path d="M 212.22 762.5232 
L 1116.18 762.5232 
Q 1176.444 762.5232 1176.444 723.384 
L 1176.444 136.296 
Q 1176.444 97.1568 1116.18 97.1568 
L 212.22 97.1568 
Q 151.956 97.1568 151.956 136.296 
L 151.956 723.384 
Q 151.956 762.5232 212.22 762.5232 
z
"/>
  </clipPath>
  <clipPath id="p0f9d5e7682">
   <path d="M 212.22 762.5232 
L 1116.18 762.5232 
Q 1176.444 762.5232 1176.444 723.384 
L 1176.444 136.296 
Q 1176.444 97.1568 1116.18 97.1568 
L 212.22 97.1568 
Q 151.956 97.1568 151.956 136.296 
L 151.956 723.384 
Q 151.956 762.5232 212.22 762.5232 
z
"/>
  </clipPath>
  <clipPath id="p5cc899d87d">
   <path d="M 212.22 762.5232 
L 1116.18 762.5232 
Q 1176.444 762.5232 1176.444 723.384 
L 1176.444 136.296 
Q 1176.444 97.1568 1116.18 97.1568 
L 212.22 97.1568 
Q 151.956 97.1568 151.956 136.296 
L 151.956 723.384 
Q 151.956 762.5232 212.22 762.5232 
z
"/>
  </clipPath>
 </defs>
</svg>
