<svg xmlns="http://www.w3.org/2000/svg" width="637.333" height="480" version="1.0" viewBox="0 0 478 360"><path d="M0 180v180h478V0H0z"/><path fill="#fff" d="M119.1 16.2c.2 23.3-.7 30.8-3.6 30.8-.8 0-4.3-1.6-7.8-3.5C93.6 35.7 88 41 88 62.2c0 10.9 1.2 16.1 4.5 19.4 3.4 3.4 7.2 3 16-1.6l7.6-4.1 1.5 3.7c1.2 2.8 1.5 7.6 1.5 20.7 0 9.4-.4 17.4-.9 17.9s-8.5.9-17.9.9c-13.1 0-17.9-.3-20.7-1.5l-3.7-1.5 4.1-7.6c4.6-8.8 5-12.6 1.6-16-3.3-3.3-8.5-4.5-19.4-4.5-11.5 0-17.6 1.4-20.2 4.8-2.9 3.6-2.4 7.8 1.5 15.2 1.9 3.5 3.5 7 3.5 7.6 0 2.9-6.9 3.7-30.7 3.5L6 119V6h113z"/><path fill="#fff" d="M235.5 24.2c0 16.6.2 18.7 2.2 23 3 6.6 4.8 6.8 15 1.9 4.7-2.3 9.1-4.1 9.7-4.1 2.2 0 3.9 5.2 4.4 13.2.6 9.6-.4 16-2.8 19l-1.9 2.3-8.5-4.4c-10.6-5.4-12.8-5.1-15.9 1.7-2 4.3-2.2 6.3-2.1 22.9V118l-12.6-.6c-13-.7-24.8.5-29.6 2.8-5.2 2.4-5.3 5.6-.4 15.1 4.9 9.6 4.8 10.8-1.9 12.7-4.6 1.3-17.6 1.3-22.2 0-6.6-1.9-6.8-3.1-2-12.6 5.4-10.4 5.1-12.6-1.7-15.7-4.3-2-6.3-2.2-23-2.2h-18.3l.6-12c.8-13-.5-25.7-3-30.5-2.5-4.9-5.5-4.8-15.2.1l-8.5 4.4-1.8-2.3c-2.5-3-3.4-9.6-2.8-19.7.6-8.9 1.9-12.5 4.6-12.5.9 0 4.6 1.6 8 3.5 8.7 4.6 11.5 5.2 14.1 2.6 3.6-3.6 4.6-9.5 4.5-27.9L124.3 6h111.2z"/><path fill="#fff" d="M355.3 17.5c.6 10.6-.4 26.3-1.8 28.5-1 1.6-2.8 1.2-9.5-2.5-14.3-7.7-20-2.4-20 18.5 0 11 1.2 16.3 4.5 19.6s7.1 3 15.1-1.1c7-3.7 8.9-4.1 9.9-2.5 1.4 2.2 2.4 17.9 1.8 28.3l-.6 11.3-18.6-.1c-17 0-19 .2-23.3 2.2-6.8 3.1-7.1 5.3-1.7 15.7 4.8 9.5 4.6 10.7-2 12.6-4.6 1.3-17.6 1.3-22.2 0-6.7-1.9-6.8-3.1-1.9-12.7 4.9-9.5 4.8-12.7-.4-15.1-4.8-2.4-16.6-3.5-30.2-2.8l-13.1.6-.6-11.2c-.5-10.8.5-26.7 1.8-28.8 1-1.7 3.2-1.2 10.1 2.5 7.8 4.1 11.6 4.4 14.9 1.1S272 73 272 62s-1.2-16.3-4.5-19.6c-3.4-3.4-7.6-3.1-15.2 1.1-3.5 1.9-7 3.5-7.8 3.5-3 0-4.3-11.5-3.7-32.3L241 6h113.7z"/><path fill="#fff" d="M472 61.8v55.7h-18.2c-16.6 0-18.7.2-23 2.2-6.6 3-6.8 4.7-1.7 15.3 4.7 10 4.6 11.2-2 13-4.6 1.3-17.6 1.3-22.2 0-6.7-1.9-6.8-3.1-1.9-12.7 4.9-9.5 4.8-12.7-.4-15.1-4.8-2.4-16.6-3.5-29.9-2.8l-12.7.6.6-12.7c.7-13.3-.4-25.1-2.8-29.9-2.4-5.2-5.6-5.3-15.3-.3l-8.6 4.4-1.9-2.3c-4.7-5.7-3.4-32.2 1.6-32.2.6 0 5 1.8 9.7 4.1 10.2 4.9 12 4.7 15-1.9 2-4.3 2.2-6.4 2.2-23V6H472zM73.1 94c6.6 1.9 6.8 3.1 2 12.5-5.4 10.4-5.2 12.7 1.7 15.8 4.3 2 6.3 2.2 23.5 2.1H119l.1 10c.2 22.8-.7 30.6-3.5 30.6-.7 0-4.3-1.6-8-3.5-8-4.1-11.8-4.4-15.1-1.1S88 169 88 180s1.2 16.3 4.5 19.6 7.1 3 15.1-1.1c3.7-1.9 7.3-3.5 8-3.5 2.8 0 3.7 7.8 3.5 30.6l-.1 10h-18.7c-17.3-.1-19.2.1-23.5 2.1-6.8 3.1-7.1 5.3-1.7 15.9l4.4 8.5-2.3 1.9c-3 2.5-9.5 3.4-19.7 2.8-8.5-.6-12.5-1.9-12.5-4.2 0-.8 1.8-5.2 4.1-9.9 4.5-9.5 4.5-11.8-.1-14.2-4.9-2.5-17.5-3.8-30.7-3.1l-12.3.7V123.9l12.2.7c13.3.7 25.9-.6 30.8-3.1 4.6-2.4 4.6-4.7.1-14.2-4.4-9-4.8-10.8-2.9-11.9 3.7-2.3 20.5-3.2 26.9-1.4"/><path fill="#fff" d="M160.8 123.7c1.9.3 3.6 1.2 3.9 2 .3.9-1 4.6-3.1 8.3-4.2 7.9-4.6 12.1-1.2 15.5 3.3 3.3 8.6 4.5 19.6 4.5s16.3-1.2 19.6-4.5 3-7.1-1.2-15.3c-2-3.9-3.4-7.7-3.1-8.5s2.5-1.9 4.9-2.3c5.5-1 34.9-.7 36 .4.5.5.9 8.3 1 17.3.1 16.9-1 23.9-3.7 23.9-.8 0-4.3-1.6-7.8-3.5-14-7.7-19.7-2.4-19.7 18.5 0 11 1.2 16.3 4.5 19.6 3.4 3.4 7.6 3.1 15.2-1.1 3.5-1.9 7-3.5 7.8-3.5 2.7 0 3.8 7 3.7 23.9-.1 9-.5 16.8-1 17.3-1.1 1.1-30.3 1.4-36 .4-2.4-.4-4.6-1.5-4.9-2.3s1.1-4.6 3.1-8.5c4.2-8.2 4.5-12 1.2-15.3S191 206 180 206s-16.3 1.2-19.6 4.5c-3.4 3.4-3 7.6 1.2 15.5 2.1 3.7 3.4 7.5 3.1 8.3-.9 2.4-12.5 3.5-32 2.9l-8.9-.2.7-12.8c.8-13.7-.5-26.3-3-31.2-2.5-4.8-5.4-4.8-15 .1l-8.5 4.4-2.2-2.3c-2.2-2.1-2.3-3.1-2.3-15 0-13.1 1-17.2 4.1-17.2.8 0 5.1 1.8 9.5 4.1 9 4.7 11.9 4.6 14.4-.1 2.5-4.9 3.8-17.5 3-31.2l-.7-12.7 8.9-.4c9.5-.4 22.8 0 28.1 1"/><path fill="#fff" d="M278.8 123.7c1.9.3 3.6 1.2 3.9 2s-1.1 4.6-3.1 8.5c-4.2 8.2-4.5 12-1.2 15.3S287 154 298 154s16.3-1.2 19.6-4.5c3.4-3.4 3-7.6-1.2-15.5-2.1-3.7-3.4-7.5-3.1-8.3s2.5-1.9 4.9-2.3c5.5-1 34.9-.7 36 .4s1.4 30.5.4 36c-.4 2.4-1.5 4.6-2.3 4.9s-4.6-1-8.3-3.1c-7.9-4.2-12.1-4.6-15.5-1.2-3.3 3.3-4.5 8.6-4.5 19.6s1.2 16.3 4.5 19.6c3.4 3.4 7.6 3 15.5-1.2 3.7-2.1 7.5-3.4 8.3-3.1s1.9 2.5 2.3 4.9c1 5.5.7 34.9-.4 36s-30.4 1.4-36 .4c-2.4-.4-4.6-1.5-4.9-2.3s1-4.6 3.1-8.3c4.2-7.9 4.6-12.1 1.2-15.5-3.3-3.3-8.6-4.5-19.6-4.5s-16.3 1.2-19.6 4.5-3 7.1 1.2 15.3c2 3.9 3.4 7.8 3.1 8.6-.9 2.3-12.8 3.4-31.8 2.8l-8.5-.2v-18.8c.1-17.2-.1-19.1-2.1-23.4-3.1-6.8-5.3-7.1-15.7-1.7-9.5 4.8-10.7 4.6-12.6-2-1.3-4.6-1.3-17.6 0-22.2 1.9-6.6 3.1-6.8 12.6-2 10.5 5.3 12.6 5.1 15.7-1.7 2-4.3 2.2-6.2 2.1-23.4v-18.7l8.5-.4c9.3-.4 22.6 0 27.9 1"/><path fill="#fff" d="M396.8 123.7c1.9.3 3.6 1.2 3.9 2s-1.1 4.6-3.1 8.5c-4.2 8.2-4.5 12-1.2 15.3S405 154 416 154s16.3-1.2 19.6-4.5c3.4-3.4 3.1-7.6-1.1-15.2-3.6-6.6-4.2-8.8-2.5-9.8 2.2-1.4 17.3-2.3 28.3-1.8l11.7.6v112.8l-12.2-.7c-13.3-.7-25.9.6-30.8 3.1-4.6 2.4-4.6 4.7-.1 14.2 2.3 4.7 4.1 9.1 4.1 9.9 0 2.3-4 3.6-12.5 4.2-10.2.6-16.7-.3-19.7-2.8l-2.3-1.9 4.4-8.5c5.4-10.6 5.1-12.8-1.7-15.9-4.3-2-6.3-2.2-22.7-2.2l-18 .1v-18.1c0-16.4-.2-18.4-2.2-22.7-3.1-6.8-5.3-7.1-15.7-1.7-7.1 3.6-8.7 4.1-10 3-2.3-1.9-3.6-7.6-3.6-16.1s1.3-14.2 3.6-16.1c1.3-1.1 2.9-.6 10 3 10.5 5.3 12.6 5.1 15.7-1.7 2-4.3 2.2-6.3 2.2-23.4l-.1-18.7 8.6-.4c9.2-.4 22.5 0 27.8 1M191.1 212c6.6 1.9 6.8 3.1 2 12.6-5.4 10.4-5.1 12.6 1.7 15.7 4.3 2 6.3 2.2 23.5 2.2l18.7-.1.2 9.1c.5 19.2-.5 30.3-2.9 31.2-.8.3-4.7-1.1-8.6-3.1-8.4-4.2-11.9-4.5-15.2-1.2S206 287 206 298s1.2 16.3 4.5 19.6c3.4 3.4 7.6 3.1 15.2-1.1 3.5-1.9 7-3.5 7.8-3.5 3 0 4.2 10.8 3.7 31.7l-.2 9.3H124.3l.1-17.3c.1-18.3-.9-24.2-4.5-27.8-2.6-2.6-6-1.9-14.4 2.7-3.4 1.9-6.9 3.4-7.8 3.4-2.6 0-3.9-3.7-4.5-12.5-.6-10.2.3-16.7 2.8-19.7l1.9-2.3 8.5 4.4c9.7 4.9 12.6 4.9 15.1.1s3.8-17.5 3-30.5l-.6-12h18.3c16.7 0 18.7-.2 23-2.2 6.8-3.1 7-5.2 1.7-15.7-4.8-9.4-4.6-10.8 1.5-12.5 4.3-1.3 18.3-1.3 22.7-.1"/><path fill="#fff" d="M309.1 212c6.6 1.9 6.8 3.1 2 12.6-5.4 10.4-5.1 12.6 1.7 15.7 4.3 2 6.3 2.2 23 2.2h18.3l-.6 12c-.8 13 .5 25.7 3 30.5s5.4 4.8 15.1-.1l8.5-4.4 1.9 2.3c2.5 3 3.4 9.5 2.8 19.7-.6 8.8-1.9 12.5-4.5 12.5-.9 0-4.4-1.5-7.8-3.4-8.4-4.6-11.8-5.3-14.4-2.7-3.6 3.6-4.6 9.5-4.5 27.8V354H242.4v-18.3c.1-16.6-.1-18.6-2.1-22.9-3-6.6-4.8-6.8-15-1.9-4.7 2.3-9.1 4.1-9.7 4.1-2.2 0-3.9-5.2-4.4-13.2-.6-9.6.4-16 2.8-19l1.9-2.3 8.5 4.4c10.6 5.4 12.8 5.1 15.9-1.7 2-4.3 2.2-6.3 2.2-22.7l-.1-18h18.1c16.4 0 18.4-.2 22.7-2.2 6.8-3.1 7-5.2 1.7-15.7-4.8-9.4-4.6-10.8 1.5-12.5 4.3-1.3 18.3-1.3 22.7-.1M43.8 242.1c1.7.6 3.2 1.7 3.2 2.4 0 .8-1.6 4.3-3.5 7.8-7.7 14-2.4 19.7 18.5 19.7 11 0 16.3-1.2 19.6-4.5 3.4-3.4 3-7.2-1.6-15.8-4.2-8.1-4.2-8.8 1.4-10.1 4.1-1 35.8-.8 36.8.2.5.5.8 8.5.9 17.8 0 17.1-1 23.4-3.7 23.4-.7 0-4.3-1.6-8-3.5-7.8-4.1-11.6-4.4-14.9-1.1s-4.5 8.5-4.5 19.4c0 11.5 1.4 17.6 4.8 20.2 3.6 2.9 7.7 2.5 14.9-1.5 3.5-1.9 7-3.5 7.8-3.5 2.9 0 3.8 7.5 3.6 30.7L119 354H6V241.1l10.3-.3c13.5-.4 23.4.1 27.5 1.3"/><path fill="#fff" d="M393.3 241.4c9 .7 9.3 1.5 4.7 10.3-4.6 8.6-5 12.4-1.6 15.8 3.3 3.3 8.6 4.5 19.6 4.5s16.3-1.2 19.6-4.5c3.4-3.4 3.1-7.6-1.1-15.2-1.9-3.5-3.5-7-3.5-7.8 0-3 7.6-3.9 30.8-3.6l10.2.1v113H359l-.1-10.3c-.3-23.1.6-30.7 3.6-30.7.8 0 4.3 1.6 7.8 3.5 14 7.7 19.7 2.4 19.7-18.5 0-11-1.2-16.3-4.5-19.6s-7.1-3-14.9 1.1c-3.7 1.9-7.3 3.5-8 3.5-2.7 0-3.7-6.6-3.7-23.6 0-9.2.4-17.1.8-17.5.5-.5 5.3-1 10.8-1.1 10.1-.3 12.3-.2 22.8.6"/><path d="M130.9 127.6c-1.4.4-1.7 3-2.2 17.7-.6 19.4-1.5 23.5-5.8 27.1-4.1 3.5-8.3 3.3-16.4-.5-3.6-1.7-6.9-2.8-7.5-2.4-1 .6-1.4 18.2-.4 20.8.4 1.2 1.8.8 7.2-1.9 10.7-5.4 16.1-4.4 20.4 3.9 2 3.8 2.2 6.1 2.6 22l.4 17.7 2.5.6c2.3.6 26.4-.3 27.1-1 .1-.2-1-2.9-2.5-6.2-5-11-3.1-17.2 6.7-21.8 3.9-1.8 6.1-2 17.8-1.9 11.8.2 13.8.5 17.4 2.5 8.7 4.8 10.2 10.9 5.5 21.2-1.5 3.2-2.5 6.1-2.2 6.4.8.8 29.3.8 30.1 0 .7-.8.9-29.6.2-30.4-.3-.2-3.2.8-6.4 2.3-10.6 4.9-16.7 3.1-21.4-6.3-2.3-4.5-2.5-6-2.5-17.9 0-12 .2-13.3 2.5-17.4 5.1-9 11.8-10.8 21.8-5.7 3 1.5 5.6 2.5 5.9 2.3.8-.9.8-29.5 0-30.3-.9-.9-29.2-1.2-30.1-.3-.4.3.6 3.2 2 6.4 4.7 10.1 3.3 16.3-4.7 21-2.9 1.7-5.6 2-17.9 2.3-13.5.3-14.8.2-19-2-2.5-1.3-5.5-3.9-6.8-5.8-2.8-4.2-2.5-8.6 1.4-16.2 1.4-2.7 2.3-5.3 2-5.6-.8-.7-25.6-1.3-27.7-.6"/><path d="M248.4 127.7c-.8.5-1.3 6.6-1.6 17.8-.3 13.5-.8 17.9-2.2 21.3-3.8 8.9-10.1 10.4-20.5 5-7.7-3.9-8.1-3.6-8.1 8.2s.3 12.1 8.8 8.2c7.8-3.6 10-3.9 14.3-1.6 5.7 2.9 7.2 8.5 7.7 28.2l.5 17.2 2.5.7c2.3.5 26.2-.4 26.9-1.1.2-.2-.8-2.7-2.2-5.7-4.9-10.7-2.6-18.5 6.7-22.5 6.2-2.6 27.9-2.3 34.1.4 9.6 4.3 11.4 10.6 6.3 21.7-1.4 3.2-2.4 6-2.2 6.2.8.8 29.5.8 30.3 0 .7-.8.8-29.6 0-30.4-.2-.2-3 .9-6.2 2.3-10.8 5-16.8 3.2-21.5-6.2-2.3-4.4-2.5-6.1-2.5-17.4s.2-13 2.5-17.4c4.8-9.5 11.6-11.4 21.8-6.2 3 1.5 5.7 2.4 6 2.1 1-1 .8-29.2-.1-30.2-1-.9-29.2-1.1-30.1-.2-.4.3.5 3 1.9 6 2.7 5.8 3.2 12.2 1.3 16.3-.6 1.5-3.3 3.6-6.2 5.1-4.6 2.3-6.1 2.5-18.6 2.5-12.1 0-14.1-.2-18-2.3-8.8-4.5-10.5-10.7-5.6-21.2 1.4-3.2 2.4-6 2.1-6.3-.9-.9-26.9-1.4-28.1-.5"/></svg>
